SplineFontDB: 3.0
FontName: OpenSans
FullName: Open Sans
FamilyName: Open Sans
Weight: Book
Copyright: Digitized data copyright (c) 2010-2011, Google Corporation.
Version: 1.10
ItalicAngle: 0
UnderlinePosition: -103
UnderlineWidth: 102
Ascent: 1638
Descent: 410
sfntRevision: 0x0001199a
LayerCount: 2
Layer: 0 1 "Back"  1
Layer: 1 1 "Zeichenebene"  0
XUID: [1021 196 3271 2823]
FSType: 0
OS2Version: 3
OS2_WeightWidthSlopeOnly: 0
OS2_UseTypoMetrics: 1
CreationTime: 1292861707
ModificationTime: 1394890133
PfmFamily: 17
TTFWeight: 400
TTFWidth: 5
LineGap: 0
VLineGap: 0
Panose: 2 11 6 6 3 5 4 2 2 4
OS2TypoAscent: 1567
OS2TypoAOffset: 0
OS2TypoDescent: -492
OS2TypoDOffset: 0
OS2TypoLinegap: 132
OS2WinAscent: 2189
OS2WinAOffset: 0
OS2WinDescent: 600
OS2WinDOffset: 0
HheadAscent: 2189
HheadAOffset: 0
HheadDescent: -600
HheadDOffset: 0
OS2SubXSize: 1434
OS2SubYSize: 1331
OS2SubXOff: 0
OS2SubYOff: 287
OS2SupXSize: 1434
OS2SupYSize: 1331
OS2SupXOff: 0
OS2SupYOff: 977
OS2StrikeYSize: 102
OS2StrikeYPos: 497
OS2FamilyClass: 2050
OS2Vendor: '1ASC'
OS2CodePages: 2000019f.00000000
OS2UnicodeRanges: e00002ef.4000205b.00000028.00000000
Lookup: 1 0 0 "'ss02' Stilgruppe 2 in Latin lookup 0"  {"'ss02' Stilgruppe 2 in Latin lookup 0 subtable"  } ['salt' ('latn' <'MOL ' 'ROM ' 'dflt' > ) 'ss01' ('latn' <'MOL ' 'ROM ' 'dflt' > ) 'ss02' ('latn' <'MOL ' 'ROM ' 'dflt' > ) ]
Lookup: 1 0 0 "'ss03' Stilgruppe 3 in Latin lookup 1"  {"'ss03' Stilgruppe 3 in Latin lookup 1 subtable"  } ['salt' ('latn' <'MOL ' 'ROM ' 'dflt' > ) 'ss01' ('latn' <'MOL ' 'ROM ' 'dflt' > ) 'ss03' ('latn' <'MOL ' 'ROM ' 'dflt' > ) ]
Lookup: 1 0 0 "'onum' Minuskelziffern in Latin lookup 2"  {"'onum' Minuskelziffern in Latin lookup 2 subtable" ("oldstyle" ) } ['onum' ('latn' <'MOL ' 'ROM ' 'dflt' > ) ]
Lookup: 1 0 0 "'onum' Minuskelziffern in Latin lookup 3"  {"'onum' Minuskelziffern in Latin lookup 3 subtable" ("oldstyle" ) } ['onum' ('latn' <'MOL ' 'ROM ' 'dflt' > ) ]

StartChar: .notdef
Encoding: 65536 -1 0
Width: 1229
GlyphClass: 2
Flags: W
LayerCount: 2
Fore
SplineSet
193 1462 m 1,0,-1
 1034 1462 l 1,1,-1
 1034 0 l 1,2,-1
 193 0 l 1,3,-1
 193 1462 l 1,0,-1
297 104 m 1,4,-1
 930 104 l 1,5,-1
 930 1358 l 1,6,-1
 297 1358 l 1,7,-1
 297 104 l 1,4,-1
EndSplineSet
EndChar

StartChar: exclam
Encoding: 33 33 4
Width: 547
GlyphClass: 2
Flags: W
LayerCount: 2
Fore
SplineSet
326 403 m 1,0,-1
 221 403 l 1,1,-1
 170 1462 l 1,2,-1
 377 1462 l 1,3,-1
 326 403 l 1,0,-1
152 106 m 0,4,5
 152 242 152 242 272 242 c 0,6,7
 330 242 330 242 361.5 207 c 128,-1,8
 393 172 393 172 393 106 c 0,9,10
 393 42 393 42 361 6.5 c 128,-1,11
 329 -29 329 -29 272 -29 c 0,12,13
 220 -29 220 -29 186 2.5 c 128,-1,14
 152 34 152 34 152 106 c 0,4,5
EndSplineSet
EndChar

StartChar: quotedbl
Encoding: 34 34 5
Width: 821
GlyphClass: 2
Flags: W
LayerCount: 2
Fore
SplineSet
319 1462 m 1,0,-1
 279 934 l 1,1,-1
 174 934 l 1,2,-1
 133 1462 l 1,3,-1
 319 1462 l 1,0,-1
688 1462 m 1,4,-1
 647 934 l 1,5,-1
 543 934 l 1,6,-1
 502 1462 l 1,7,-1
 688 1462 l 1,4,-1
EndSplineSet
EndChar

StartChar: numbersign
Encoding: 35 35 6
Width: 1323
GlyphClass: 2
Flags: W
LayerCount: 2
Fore
SplineSet
981 899 m 1,0,-1
 915 559 l 1,1,-1
 1198 559 l 1,2,-1
 1198 430 l 1,3,-1
 891 430 l 1,4,-1
 807 0 l 1,5,-1
 670 0 l 1,6,-1
 754 430 l 1,7,-1
 451 430 l 1,8,-1
 369 0 l 1,9,-1
 233 0 l 1,10,-1
 313 430 l 1,11,-1
 51 430 l 1,12,-1
 51 559 l 1,13,-1
 338 559 l 1,14,-1
 406 899 l 1,15,-1
 129 899 l 1,16,-1
 129 1026 l 1,17,-1
 428 1026 l 1,18,-1
 510 1462 l 1,19,-1
 649 1462 l 1,20,-1
 567 1026 l 1,21,-1
 872 1026 l 1,22,-1
 956 1462 l 1,23,-1
 1090 1462 l 1,24,-1
 1006 1026 l 1,25,-1
 1270 1026 l 1,26,-1
 1270 899 l 1,27,-1
 981 899 l 1,0,-1
475 559 m 1,28,-1
 778 559 l 1,29,-1
 844 899 l 1,30,-1
 541 899 l 1,31,-1
 475 559 l 1,28,-1
EndSplineSet
EndChar

StartChar: dollar
Encoding: 36 36 7
Width: 1171
GlyphClass: 2
Flags: W
LayerCount: 2
Fore
SplineSet
1036 449 m 0,0,1
 1036 313 1036 313 934 224.5 c 128,-1,2
 832 136 832 136 649 113 c 1,3,-1
 649 -119 l 1,4,-1
 520 -119 l 1,5,-1
 520 104 l 1,6,7
 408 104 408 104 303 121.5 c 128,-1,8
 198 139 198 139 131 170 c 1,9,-1
 131 326 l 1,10,11
 214 289 214 289 322.5 265.5 c 128,-1,12
 431 242 431 242 520 242 c 1,13,-1
 520 682 l 1,14,15
 315 747 315 747 232.5 833 c 128,-1,16
 150 919 150 919 150 1055 c 0,17,18
 150 1186 150 1186 251.5 1270 c 128,-1,19
 353 1354 353 1354 520 1372 c 1,20,-1
 520 1554 l 1,21,-1
 649 1554 l 1,22,-1
 649 1374 l 1,23,24
 833 1369 833 1369 1004 1300 c 1,25,-1
 952 1169 l 1,26,27
 803 1228 803 1228 649 1239 c 1,28,-1
 649 805 l 1,29,30
 806 755 806 755 884 707.5 c 128,-1,31
 962 660 962 660 999 598.5 c 128,-1,32
 1036 537 1036 537 1036 449 c 0,0,1
866 436 m 0,33,34
 866 508 866 508 821.5 552.5 c 128,-1,35
 777 597 777 597 649 641 c 1,36,-1
 649 252 l 1,37,38
 866 282 866 282 866 436 c 0,33,34
319 1057 m 0,39,40
 319 981 319 981 364 935 c 128,-1,41
 409 889 409 889 520 848 c 1,42,-1
 520 1235 l 1,43,44
 421 1219 421 1219 370 1172.5 c 128,-1,45
 319 1126 319 1126 319 1057 c 0,39,40
EndSplineSet
EndChar

StartChar: percent
Encoding: 37 37 8
Width: 1686
GlyphClass: 2
Flags: W
LayerCount: 2
Fore
SplineSet
242 1026 m 256,0,1
 242 856 242 856 279 771 c 128,-1,2
 316 686 316 686 399 686 c 0,3,4
 563 686 563 686 563 1026 c 0,5,6
 563 1364 563 1364 399 1364 c 0,7,8
 316 1364 316 1364 279 1280 c 128,-1,9
 242 1196 242 1196 242 1026 c 256,0,1
700 1026 m 0,10,11
 700 798 700 798 623.5 681.5 c 128,-1,12
 547 565 547 565 399 565 c 0,13,14
 259 565 259 565 181.5 684 c 128,-1,15
 104 803 104 803 104 1026 c 0,16,17
 104 1253 104 1253 178.5 1368 c 128,-1,18
 253 1483 253 1483 399 1483 c 0,19,20
 544 1483 544 1483 622 1364 c 128,-1,21
 700 1245 700 1245 700 1026 c 0,10,11
1122 440 m 256,22,23
 1122 269 1122 269 1159 184.5 c 128,-1,24
 1196 100 1196 100 1280 100 c 256,25,26
 1364 100 1364 100 1404 183.5 c 128,-1,27
 1444 267 1444 267 1444 440 c 0,28,29
 1444 611 1444 611 1404 693.5 c 128,-1,30
 1364 776 1364 776 1280 776 c 256,31,32
 1196 776 1196 776 1159 693.5 c 128,-1,33
 1122 611 1122 611 1122 440 c 256,22,23
1581 440 m 0,34,35
 1581 213 1581 213 1504.5 96.5 c 128,-1,36
 1428 -20 1428 -20 1280 -20 c 0,37,38
 1138 -20 1138 -20 1061.5 99 c 128,-1,39
 985 218 985 218 985 440 c 0,40,41
 985 667 985 667 1059.5 782 c 128,-1,42
 1134 897 1134 897 1280 897 c 0,43,44
 1422 897 1422 897 1501.5 779.5 c 128,-1,45
 1581 662 1581 662 1581 440 c 0,34,35
1323 1462 m 1,46,-1
 512 0 l 1,47,-1
 365 0 l 1,48,-1
 1176 1462 l 1,49,-1
 1323 1462 l 1,46,-1
EndSplineSet
EndChar

StartChar: ampersand
Encoding: 38 38 9
Width: 1495
GlyphClass: 2
Flags: W
LayerCount: 2
Fore
SplineSet
414 1171 m 0,0,1
 414 1102 414 1102 450 1039.5 c 128,-1,2
 486 977 486 977 573 889 c 1,3,4
 702 964 702 964 752.5 1027.5 c 128,-1,5
 803 1091 803 1091 803 1174 c 0,6,7
 803 1251 803 1251 751.5 1299.5 c 128,-1,8
 700 1348 700 1348 614 1348 c 0,9,10
 525 1348 525 1348 469.5 1300 c 128,-1,11
 414 1252 414 1252 414 1171 c 0,0,1
569 129 m 0,12,13
 810 129 810 129 969 283 c 1,14,-1
 532 707 l 1,15,16
 421 639 421 639 375 594.5 c 128,-1,17
 329 550 329 550 307 499 c 128,-1,18
 285 448 285 448 285 383 c 0,19,20
 285 266 285 266 362.5 197.5 c 128,-1,21
 440 129 440 129 569 129 c 0,12,13
113 379 m 0,22,23
 113 509 113 509 182.5 609 c 128,-1,24
 252 709 252 709 432 811 c 1,25,26
 347 906 347 906 316.5 955 c 128,-1,27
 286 1004 286 1004 268 1057 c 128,-1,28
 250 1110 250 1110 250 1167 c 0,29,30
 250 1317 250 1317 348 1401 c 128,-1,31
 446 1485 446 1485 621 1485 c 0,32,33
 783 1485 783 1485 876 1401.5 c 128,-1,34
 969 1318 969 1318 969 1169 c 0,35,36
 969 1062 969 1062 901 971.5 c 128,-1,37
 833 881 833 881 676 788 c 1,38,-1
 1083 397 l 1,39,40
 1139 459 1139 459 1172.5 542.5 c 128,-1,41
 1206 626 1206 626 1229 725 c 1,42,-1
 1397 725 l 1,43,44
 1329 439 1329 439 1192 291 c 1,45,-1
 1491 0 l 1,46,-1
 1262 0 l 1,47,-1
 1077 178 l 1,48,49
 959 72 959 72 837 26 c 128,-1,50
 715 -20 715 -20 565 -20 c 0,51,52
 350 -20 350 -20 231.5 86 c 128,-1,53
 113 192 113 192 113 379 c 0,22,23
EndSplineSet
EndChar

StartChar: quotesingle
Encoding: 39 39 10
Width: 453
GlyphClass: 2
Flags: W
LayerCount: 2
Fore
SplineSet
319 1462 m 1,0,-1
 279 934 l 1,1,-1
 174 934 l 1,2,-1
 133 1462 l 1,3,-1
 319 1462 l 1,0,-1
EndSplineSet
EndChar

StartChar: parenleft
Encoding: 40 40 11
Width: 606
GlyphClass: 2
Flags: W
LayerCount: 2
Fore
SplineSet
82 561 m 0,0,1
 82 826 82 826 159.5 1057 c 128,-1,2
 237 1288 237 1288 383 1462 c 1,3,-1
 545 1462 l 1,4,5
 401 1269 401 1269 328.5 1038 c 128,-1,6
 256 807 256 807 256 563 c 0,7,8
 256 323 256 323 330 94 c 128,-1,9
 404 -135 404 -135 543 -324 c 1,10,-1
 383 -324 l 1,11,12
 236 -154 236 -154 159 73 c 128,-1,13
 82 300 82 300 82 561 c 0,0,1
EndSplineSet
EndChar

StartChar: parenright
Encoding: 41 41 12
Width: 606
GlyphClass: 2
Flags: W
LayerCount: 2
Fore
SplineSet
524 561 m 256,0,1
 524 298 524 298 446.5 71 c 128,-1,2
 369 -156 369 -156 223 -324 c 1,3,-1
 63 -324 l 1,4,5
 202 -136 202 -136 276 93.5 c 128,-1,6
 350 323 350 323 350 563 c 0,7,8
 350 807 350 807 277.5 1038 c 128,-1,9
 205 1269 205 1269 61 1462 c 1,10,-1
 223 1462 l 1,11,12
 370 1287 370 1287 447 1055.5 c 128,-1,13
 524 824 524 824 524 561 c 256,0,1
EndSplineSet
EndChar

StartChar: asterisk
Encoding: 42 42 13
Width: 1130
GlyphClass: 2
Flags: W
LayerCount: 2
Fore
SplineSet
657 1556 m 1,0,-1
 614 1161 l 1,1,-1
 1012 1272 l 1,2,-1
 1038 1090 l 1,3,-1
 657 1059 l 1,4,-1
 905 733 l 1,5,-1
 733 639 l 1,6,-1
 557 1001 l 1,7,-1
 397 639 l 1,8,-1
 221 733 l 1,9,-1
 463 1059 l 1,10,-1
 86 1090 l 1,11,-1
 115 1272 l 1,12,-1
 506 1161 l 1,13,-1
 463 1556 l 1,14,-1
 657 1556 l 1,0,-1
EndSplineSet
EndChar

StartChar: plus
Encoding: 43 43 14
Width: 1171
GlyphClass: 2
Flags: W
LayerCount: 2
Fore
SplineSet
653 791 m 1,0,-1
 1065 791 l 1,1,-1
 1065 653 l 1,2,-1
 653 653 l 1,3,-1
 653 227 l 1,4,-1
 514 227 l 1,5,-1
 514 653 l 1,6,-1
 104 653 l 1,7,-1
 104 791 l 1,8,-1
 514 791 l 1,9,-1
 514 1219 l 1,10,-1
 653 1219 l 1,11,-1
 653 791 l 1,0,-1
EndSplineSet
EndChar

StartChar: comma
Encoding: 44 44 15
Width: 502
GlyphClass: 2
Flags: W
LayerCount: 2
Fore
SplineSet
350 238 m 1,0,-1
 365 215 l 1,1,2
 339 115 339 115 290 -17.5 c 128,-1,3
 241 -150 241 -150 188 -264 c 1,4,-1
 63 -264 l 1,5,6
 90 -160 90 -160 122.5 -7 c 128,-1,7
 155 146 155 146 168 238 c 1,8,-1
 350 238 l 1,0,-1
EndSplineSet
EndChar

StartChar: hyphen
Encoding: 45 45 16
Width: 659
GlyphClass: 2
Flags: W
LayerCount: 2
Fore
SplineSet
84 473 m 1,0,-1
 84 625 l 1,1,-1
 575 625 l 1,2,-1
 575 473 l 1,3,-1
 84 473 l 1,0,-1
EndSplineSet
EndChar

StartChar: period
Encoding: 46 46 17
Width: 545
GlyphClass: 2
Flags: W
LayerCount: 2
Fore
SplineSet
152 106 m 0,0,1
 152 173 152 173 182.5 207.5 c 128,-1,2
 213 242 213 242 270 242 c 0,3,4
 328 242 328 242 360.5 207.5 c 128,-1,5
 393 173 393 173 393 106 c 0,6,7
 393 41 393 41 360 6 c 128,-1,8
 327 -29 327 -29 270 -29 c 0,9,10
 219 -29 219 -29 185.5 2.5 c 128,-1,11
 152 34 152 34 152 106 c 0,0,1
EndSplineSet
EndChar

StartChar: slash
Encoding: 47 47 18
Width: 752
GlyphClass: 2
Flags: W
LayerCount: 2
Fore
SplineSet
731 1462 m 1,0,-1
 186 0 l 1,1,-1
 20 0 l 1,2,-1
 565 1462 l 1,3,-1
 731 1462 l 1,0,-1
EndSplineSet
EndChar

StartChar: zero
Encoding: 48 48 19
Width: 1171
GlyphClass: 2
Flags: W
LayerCount: 2
Fore
SplineSet
1069 733 m 0,0,1
 1069 354 1069 354 949.5 167 c 128,-1,2
 830 -20 830 -20 584 -20 c 0,3,4
 348 -20 348 -20 225 171.5 c 128,-1,5
 102 363 102 363 102 733 c 0,6,7
 102 1115 102 1115 221 1300 c 128,-1,8
 340 1485 340 1485 584 1485 c 0,9,10
 822 1485 822 1485 945.5 1292 c 128,-1,11
 1069 1099 1069 1099 1069 733 c 0,0,1
270 733 m 256,12,13
 270 414 270 414 345 268.5 c 128,-1,14
 420 123 420 123 584 123 c 0,15,16
 750 123 750 123 824.5 270.5 c 128,-1,17
 899 418 899 418 899 733 c 256,18,19
 899 1048 899 1048 824.5 1194.5 c 128,-1,20
 750 1341 750 1341 584 1341 c 0,21,22
 420 1341 420 1341 345 1196.5 c 128,-1,23
 270 1052 270 1052 270 733 c 256,12,13
EndSplineSet
Substitution2: "'onum' Minuskelziffern in Latin lookup 3 subtable" zero.os
Substitution2: "'onum' Minuskelziffern in Latin lookup 2 subtable" zero.os
EndChar

StartChar: one
Encoding: 49 49 20
Width: 1171
GlyphClass: 2
Flags: W
LayerCount: 2
Fore
SplineSet
715 0 m 1,0,-1
 553 0 l 1,1,-1
 553 1042 l 2,2,3
 553 1172 553 1172 561 1288 c 1,4,5
 540 1267 540 1267 514 1244 c 128,-1,6
 488 1221 488 1221 276 1049 c 1,7,-1
 188 1163 l 1,8,-1
 575 1462 l 1,9,-1
 715 1462 l 1,10,-1
 715 0 l 1,0,-1
EndSplineSet
Substitution2: "'pnum' Proportionalziffern in Latin lookup 4 subtable" one.pnum
Substitution2: "'onum' Minuskelziffern in Latin lookup 2 subtable" one.os
EndChar

StartChar: two
Encoding: 50 50 21
Width: 1171
GlyphClass: 2
Flags: W
LayerCount: 2
Fore
SplineSet
1061 0 m 1,0,-1
 100 0 l 1,1,-1
 100 143 l 1,2,-1
 485 530 l 2,3,4
 661 708 661 708 717 784 c 128,-1,5
 773 860 773 860 801 932 c 128,-1,6
 829 1004 829 1004 829 1087 c 0,7,8
 829 1204 829 1204 758 1272.5 c 128,-1,9
 687 1341 687 1341 561 1341 c 0,10,11
 470 1341 470 1341 388.5 1311 c 128,-1,12
 307 1281 307 1281 207 1202 c 1,13,-1
 119 1315 l 1,14,15
 321 1483 321 1483 559 1483 c 0,16,17
 765 1483 765 1483 882 1377.5 c 128,-1,18
 999 1272 999 1272 999 1094 c 0,19,20
 999 955 999 955 921 819 c 128,-1,21
 843 683 843 683 629 475 c 2,22,-1
 309 162 l 1,23,-1
 309 154 l 1,24,-1
 1061 154 l 1,25,-1
 1061 0 l 1,0,-1
EndSplineSet
Substitution2: "'onum' Minuskelziffern in Latin lookup 3 subtable" two.os
Substitution2: "'onum' Minuskelziffern in Latin lookup 2 subtable" two.os
EndChar

StartChar: three
Encoding: 51 51 22
Width: 1171
GlyphClass: 2
Flags: W
LayerCount: 2
Fore
SplineSet
1006 1118 m 0,0,1
 1006 978 1006 978 927.5 889 c 128,-1,2
 849 800 849 800 705 770 c 1,3,-1
 705 762 l 1,4,5
 881 740 881 740 966 650 c 128,-1,6
 1051 560 1051 560 1051 414 c 0,7,8
 1051 205 1051 205 906 92.5 c 128,-1,9
 761 -20 761 -20 494 -20 c 0,10,11
 378 -20 378 -20 281.5 -2.5 c 128,-1,12
 185 15 185 15 94 59 c 1,13,-1
 94 217 l 1,14,15
 189 170 189 170 296.5 145.5 c 128,-1,16
 404 121 404 121 500 121 c 0,17,18
 879 121 879 121 879 418 c 0,19,20
 879 684 879 684 461 684 c 2,21,-1
 317 684 l 1,22,-1
 317 827 l 1,23,-1
 463 827 l 2,24,25
 634 827 634 827 734 902.5 c 128,-1,26
 834 978 834 978 834 1112 c 0,27,28
 834 1219 834 1219 760.5 1280 c 128,-1,29
 687 1341 687 1341 561 1341 c 0,30,31
 465 1341 465 1341 380 1315 c 128,-1,32
 295 1289 295 1289 186 1219 c 1,33,-1
 102 1331 l 1,34,35
 192 1402 192 1402 309.5 1442.5 c 128,-1,36
 427 1483 427 1483 557 1483 c 0,37,38
 770 1483 770 1483 888 1385.5 c 128,-1,39
 1006 1288 1006 1288 1006 1118 c 0,0,1
EndSplineSet
Substitution2: "'onum' Minuskelziffern in Latin lookup 3 subtable" three.os
Substitution2: "'onum' Minuskelziffern in Latin lookup 2 subtable" three.os
EndChar

StartChar: four
Encoding: 52 52 23
Width: 1171
GlyphClass: 2
Flags: W
LayerCount: 2
Fore
SplineSet
1130 336 m 1,0,-1
 913 336 l 1,1,-1
 913 0 l 1,2,-1
 754 0 l 1,3,-1
 754 336 l 1,4,-1
 43 336 l 1,5,-1
 43 481 l 1,6,-1
 737 1470 l 1,7,-1
 913 1470 l 1,8,-1
 913 487 l 1,9,-1
 1130 487 l 1,10,-1
 1130 336 l 1,0,-1
754 487 m 1,11,-1
 754 973 l 2,12,13
 754 1116 754 1116 764 1296 c 1,14,-1
 756 1296 l 1,15,16
 708 1200 708 1200 666 1137 c 1,17,-1
 209 487 l 1,18,-1
 754 487 l 1,11,-1
EndSplineSet
Substitution2: "'onum' Minuskelziffern in Latin lookup 3 subtable" four.os
Substitution2: "'onum' Minuskelziffern in Latin lookup 2 subtable" four.os
EndChar

StartChar: five
Encoding: 53 53 24
Width: 1171
GlyphClass: 2
Flags: W
LayerCount: 2
Fore
SplineSet
557 893 m 0,0,1
 788 893 788 893 920.5 778.5 c 128,-1,2
 1053 664 1053 664 1053 465 c 0,3,4
 1053 238 1053 238 908.5 109 c 128,-1,5
 764 -20 764 -20 510 -20 c 0,6,7
 263 -20 263 -20 133 59 c 1,8,-1
 133 219 l 1,9,10
 203 174 203 174 307 148.5 c 128,-1,11
 411 123 411 123 512 123 c 0,12,13
 688 123 688 123 785.5 206 c 128,-1,14
 883 289 883 289 883 446 c 0,15,16
 883 752 883 752 508 752 c 0,17,18
 413 752 413 752 254 723 c 1,19,-1
 168 778 l 1,20,-1
 223 1462 l 1,21,-1
 950 1462 l 1,22,-1
 950 1309 l 1,23,-1
 365 1309 l 1,24,-1
 328 870 l 1,25,26
 443 893 443 893 557 893 c 0,0,1
EndSplineSet
Substitution2: "'onum' Minuskelziffern in Latin lookup 3 subtable" five.os
Substitution2: "'onum' Minuskelziffern in Latin lookup 2 subtable" five.os
EndChar

StartChar: six
Encoding: 54 54 25
Width: 1171
GlyphClass: 2
Flags: W
LayerCount: 2
Fore
SplineSet
117 625 m 0,0,1
 117 1056 117 1056 284.5 1269.5 c 128,-1,2
 452 1483 452 1483 780 1483 c 0,3,4
 893 1483 893 1483 958 1464 c 1,5,-1
 958 1321 l 1,6,7
 881 1346 881 1346 782 1346 c 0,8,9
 547 1346 547 1346 423 1199.5 c 128,-1,10
 299 1053 299 1053 287 739 c 1,11,-1
 299 739 l 1,12,13
 409 911 409 911 647 911 c 0,14,15
 844 911 844 911 957.5 792 c 128,-1,16
 1071 673 1071 673 1071 469 c 0,17,18
 1071 241 1071 241 946.5 110.5 c 128,-1,19
 822 -20 822 -20 610 -20 c 0,20,21
 383 -20 383 -20 250 150.5 c 128,-1,22
 117 321 117 321 117 625 c 0,0,1
608 121 m 0,23,24
 750 121 750 121 828.5 210.5 c 128,-1,25
 907 300 907 300 907 469 c 0,26,27
 907 614 907 614 834 697 c 128,-1,28
 761 780 761 780 616 780 c 0,29,30
 526 780 526 780 451 743 c 128,-1,31
 376 706 376 706 331.5 641 c 128,-1,32
 287 576 287 576 287 506 c 0,33,34
 287 403 287 403 327 314 c 128,-1,35
 367 225 367 225 440.5 173 c 128,-1,36
 514 121 514 121 608 121 c 0,23,24
EndSplineSet
Substitution2: "'onum' Minuskelziffern in Latin lookup 3 subtable" six.os
Substitution2: "'onum' Minuskelziffern in Latin lookup 2 subtable" six.os
EndChar

StartChar: seven
Encoding: 55 55 26
Width: 1171
GlyphClass: 2
Flags: W
LayerCount: 2
Fore
SplineSet
285 0 m 1,0,-1
 891 1309 l 1,1,-1
 94 1309 l 1,2,-1
 94 1462 l 1,3,-1
 1067 1462 l 1,4,-1
 1067 1329 l 1,5,-1
 469 0 l 1,6,-1
 285 0 l 1,0,-1
EndSplineSet
Substitution2: "'onum' Minuskelziffern in Latin lookup 3 subtable" seven.os
Substitution2: "'onum' Minuskelziffern in Latin lookup 2 subtable" seven.os
EndChar

StartChar: eight
Encoding: 56 56 27
Width: 1171
GlyphClass: 2
Flags: W
LayerCount: 2
Fore
SplineSet
584 1483 m 0,0,1
 784 1483 784 1483 901 1390 c 128,-1,2
 1018 1297 1018 1297 1018 1133 c 0,3,4
 1018 1025 1018 1025 951 936 c 128,-1,5
 884 847 884 847 737 774 c 1,6,7
 915 689 915 689 990 595.5 c 128,-1,8
 1065 502 1065 502 1065 379 c 0,9,10
 1065 197 1065 197 938 88.5 c 128,-1,11
 811 -20 811 -20 590 -20 c 0,12,13
 356 -20 356 -20 230 82.5 c 128,-1,14
 104 185 104 185 104 373 c 0,15,16
 104 624 104 624 410 764 c 1,17,18
 272 842 272 842 212 932.5 c 128,-1,19
 152 1023 152 1023 152 1135 c 0,20,21
 152 1294 152 1294 269.5 1388.5 c 128,-1,22
 387 1483 387 1483 584 1483 c 0,0,1
268 369 m 0,23,24
 268 249 268 249 351.5 182 c 128,-1,25
 435 115 435 115 586 115 c 0,26,27
 735 115 735 115 818 185 c 128,-1,28
 901 255 901 255 901 377 c 0,29,30
 901 474 901 474 823 549.5 c 128,-1,31
 745 625 745 625 551 696 c 1,32,33
 402 632 402 632 335 554.5 c 128,-1,34
 268 477 268 477 268 369 c 0,23,24
582 1348 m 0,35,36
 457 1348 457 1348 386 1288 c 128,-1,37
 315 1228 315 1228 315 1128 c 0,38,39
 315 1036 315 1036 374 970 c 128,-1,40
 433 904 433 904 592 838 c 1,41,42
 735 898 735 898 794.5 967 c 128,-1,43
 854 1036 854 1036 854 1128 c 0,44,45
 854 1229 854 1229 781.5 1288.5 c 128,-1,46
 709 1348 709 1348 582 1348 c 0,35,36
EndSplineSet
Substitution2: "'onum' Minuskelziffern in Latin lookup 3 subtable" eight.os
Substitution2: "'onum' Minuskelziffern in Latin lookup 2 subtable" eight.os
EndChar

StartChar: nine
Encoding: 57 57 28
Width: 1171
GlyphClass: 2
Flags: W
LayerCount: 2
Fore
SplineSet
1061 838 m 0,0,1
 1061 -20 1061 -20 397 -20 c 0,2,3
 281 -20 281 -20 213 0 c 1,4,-1
 213 143 l 1,5,6
 293 117 293 117 395 117 c 0,7,8
 635 117 635 117 757.5 265.5 c 128,-1,9
 880 414 880 414 891 721 c 1,10,-1
 879 721 l 1,11,12
 824 638 824 638 733 594.5 c 128,-1,13
 642 551 642 551 528 551 c 0,14,15
 334 551 334 551 220 667 c 128,-1,16
 106 783 106 783 106 991 c 0,17,18
 106 1219 106 1219 233.5 1351 c 128,-1,19
 361 1483 361 1483 569 1483 c 0,20,21
 718 1483 718 1483 829.5 1406.5 c 128,-1,22
 941 1330 941 1330 1001 1183.5 c 128,-1,23
 1061 1037 1061 1037 1061 838 c 0,0,1
569 1341 m 0,24,25
 426 1341 426 1341 348 1249 c 128,-1,26
 270 1157 270 1157 270 993 c 0,27,28
 270 849 270 849 342 766.5 c 128,-1,29
 414 684 414 684 561 684 c 0,30,31
 652 684 652 684 728.5 721 c 128,-1,32
 805 758 805 758 849 822 c 128,-1,33
 893 886 893 886 893 956 c 0,34,35
 893 1061 893 1061 852 1150 c 128,-1,36
 811 1239 811 1239 737.5 1290 c 128,-1,37
 664 1341 664 1341 569 1341 c 0,24,25
EndSplineSet
Substitution2: "'onum' Minuskelziffern in Latin lookup 3 subtable" nine.os
Substitution2: "'onum' Minuskelziffern in Latin lookup 2 subtable" nine.os
EndChar

StartChar: colon
Encoding: 58 58 29
Width: 545
GlyphClass: 2
Flags: W
LayerCount: 2
Fore
SplineSet
152 106 m 0,0,1
 152 173 152 173 182.5 207.5 c 128,-1,2
 213 242 213 242 270 242 c 0,3,4
 328 242 328 242 360.5 207.5 c 128,-1,5
 393 173 393 173 393 106 c 0,6,7
 393 41 393 41 360 6 c 128,-1,8
 327 -29 327 -29 270 -29 c 0,9,10
 219 -29 219 -29 185.5 2.5 c 128,-1,11
 152 34 152 34 152 106 c 0,0,1
152 989 m 0,12,13
 152 1124 152 1124 270 1124 c 0,14,15
 393 1124 393 1124 393 989 c 0,16,17
 393 924 393 924 360 889 c 128,-1,18
 327 854 327 854 270 854 c 0,19,20
 219 854 219 854 185.5 885.5 c 128,-1,21
 152 917 152 917 152 989 c 0,12,13
EndSplineSet
EndChar

StartChar: semicolon
Encoding: 59 59 30
Width: 545
GlyphClass: 2
Flags: W
LayerCount: 2
Fore
SplineSet
350 238 m 1,0,-1
 365 215 l 1,1,2
 339 115 339 115 290 -17.5 c 128,-1,3
 241 -150 241 -150 188 -264 c 1,4,-1
 63 -264 l 1,5,6
 90 -160 90 -160 122.5 -7 c 128,-1,7
 155 146 155 146 168 238 c 1,8,-1
 350 238 l 1,0,-1
147 989 m 0,9,10
 147 1124 147 1124 266 1124 c 0,11,12
 389 1124 389 1124 389 989 c 0,13,14
 389 924 389 924 356 889 c 128,-1,15
 323 854 323 854 266 854 c 0,16,17
 208 854 208 854 177.5 889 c 128,-1,18
 147 924 147 924 147 989 c 0,9,10
EndSplineSet
EndChar

StartChar: less
Encoding: 60 60 31
Width: 1171
GlyphClass: 2
Flags: W
LayerCount: 2
Fore
SplineSet
1065 242 m 1,0,-1
 104 664 l 1,1,-1
 104 762 l 1,2,-1
 1065 1241 l 1,3,-1
 1065 1092 l 1,4,-1
 283 721 l 1,5,-1
 1065 393 l 1,6,-1
 1065 242 l 1,0,-1
EndSplineSet
EndChar

StartChar: equal
Encoding: 61 61 32
Width: 1171
GlyphClass: 2
Flags: W
LayerCount: 2
Fore
SplineSet
119 858 m 1,0,-1
 119 995 l 1,1,-1
 1049 995 l 1,2,-1
 1049 858 l 1,3,-1
 119 858 l 1,0,-1
119 449 m 1,4,-1
 119 586 l 1,5,-1
 1049 586 l 1,6,-1
 1049 449 l 1,7,-1
 119 449 l 1,4,-1
EndSplineSet
EndChar

StartChar: greater
Encoding: 62 62 33
Width: 1171
GlyphClass: 2
Flags: W
LayerCount: 2
Fore
SplineSet
104 393 m 1,0,-1
 887 719 l 1,1,-1
 104 1092 l 1,2,-1
 104 1241 l 1,3,-1
 1065 762 l 1,4,-1
 1065 664 l 1,5,-1
 104 242 l 1,6,-1
 104 393 l 1,0,-1
EndSplineSet
EndChar

StartChar: question
Encoding: 63 63 34
Width: 879
GlyphClass: 2
Flags: W
LayerCount: 2
Fore
SplineSet
289 403 m 1,0,-1
 289 457 l 2,1,2
 289 574 289 574 325 649.5 c 128,-1,3
 361 725 361 725 459 809 c 0,4,5
 595 924 595 924 630.5 982 c 128,-1,6
 666 1040 666 1040 666 1122 c 0,7,8
 666 1224 666 1224 600.5 1279.5 c 128,-1,9
 535 1335 535 1335 412 1335 c 0,10,11
 333 1335 333 1335 258 1316.5 c 128,-1,12
 183 1298 183 1298 86 1249 c 1,13,-1
 27 1384 l 1,14,15
 216 1483 216 1483 422 1483 c 0,16,17
 613 1483 613 1483 719 1389 c 128,-1,18
 825 1295 825 1295 825 1124 c 0,19,20
 825 1051 825 1051 805.5 995.5 c 128,-1,21
 786 940 786 940 748 890.5 c 128,-1,22
 710 841 710 841 584 731 c 1,23,24
 483 645 483 645 450.5 588 c 128,-1,25
 418 531 418 531 418 436 c 2,26,-1
 418 403 l 1,27,-1
 289 403 l 1,0,-1
240 106 m 0,28,29
 240 242 240 242 360 242 c 0,30,31
 418 242 418 242 449.5 207 c 128,-1,32
 481 172 481 172 481 106 c 0,33,34
 481 42 481 42 449 6.5 c 128,-1,35
 417 -29 417 -29 360 -29 c 0,36,37
 308 -29 308 -29 274 2.5 c 128,-1,38
 240 34 240 34 240 106 c 0,28,29
EndSplineSet
EndChar

StartChar: at
Encoding: 64 64 35
Width: 1841
GlyphClass: 2
Flags: W
LayerCount: 2
Fore
SplineSet
1720 729 m 0,0,1
 1720 587 1720 587 1676 469 c 128,-1,2
 1632 351 1632 351 1552 286 c 128,-1,3
 1472 221 1472 221 1368 221 c 0,4,5
 1282 221 1282 221 1223 273 c 128,-1,6
 1164 325 1164 325 1153 406 c 1,7,-1
 1145 406 l 1,8,9
 1105 319 1105 319 1030.5 270 c 128,-1,10
 956 221 956 221 854 221 c 0,11,12
 704 221 704 221 619.5 323.5 c 128,-1,13
 535 426 535 426 535 602 c 0,14,15
 535 806 535 806 653 933.5 c 128,-1,16
 771 1061 771 1061 963 1061 c 0,17,18
 1031 1061 1031 1061 1117 1048.5 c 128,-1,19
 1203 1036 1203 1036 1272 1014 c 1,20,-1
 1247 544 l 1,21,-1
 1247 522 l 2,22,23
 1247 344 1247 344 1380 344 c 0,24,25
 1471 344 1471 344 1528 451.5 c 128,-1,26
 1585 559 1585 559 1585 731 c 0,27,28
 1585 912 1585 912 1511 1048 c 128,-1,29
 1437 1184 1437 1184 1300.5 1257.5 c 128,-1,30
 1164 1331 1164 1331 987 1331 c 0,31,32
 764 1331 764 1331 599 1238.5 c 128,-1,33
 434 1146 434 1146 347 974.5 c 128,-1,34
 260 803 260 803 260 578 c 0,35,36
 260 273 260 273 421 109 c 128,-1,37
 582 -55 582 -55 885 -55 c 0,38,39
 1095 -55 1095 -55 1321 31 c 1,40,-1
 1321 -102 l 1,41,42
 1129 -186 1129 -186 885 -186 c 0,43,44
 522 -186 522 -186 321.5 13.5 c 128,-1,45
 121 213 121 213 121 571 c 0,46,47
 121 831 121 831 228 1034 c 128,-1,48
 335 1237 335 1237 533 1348.5 c 128,-1,49
 731 1460 731 1460 987 1460 c 0,50,51
 1202 1460 1202 1460 1369.5 1369.5 c 128,-1,52
 1537 1279 1537 1279 1628.5 1112.5 c 128,-1,53
 1720 946 1720 946 1720 729 c 0,0,1
686 598 m 0,54,55
 686 344 686 344 881 344 c 0,56,57
 1088 344 1088 344 1106 657 c 1,58,-1
 1120 918 l 1,59,60
 1048 938 1048 938 963 938 c 0,61,62
 833 938 833 938 759.5 848 c 128,-1,63
 686 758 686 758 686 598 c 0,54,55
EndSplineSet
EndChar

StartChar: A
Encoding: 65 65 36
Width: 1296
GlyphClass: 2
Flags: W
LayerCount: 2
Fore
SplineSet
1120 0 m 1,0,-1
 938 465 l 1,1,-1
 352 465 l 1,2,-1
 172 0 l 1,3,-1
 0 0 l 1,4,-1
 578 1468 l 1,5,-1
 721 1468 l 1,6,-1
 1296 0 l 1,7,-1
 1120 0 l 1,0,-1
885 618 m 1,8,-1
 715 1071 l 2,9,10
 682 1157 682 1157 647 1282 c 1,11,12
 625 1186 625 1186 584 1071 c 1,13,-1
 412 618 l 1,14,-1
 885 618 l 1,8,-1
EndSplineSet
EndChar

StartChar: B
Encoding: 66 66 37
Width: 1327
GlyphClass: 2
Flags: W
LayerCount: 2
Fore
SplineSet
201 1462 m 1,0,-1
 614 1462 l 2,1,2
 905 1462 905 1462 1035 1375 c 128,-1,3
 1165 1288 1165 1288 1165 1100 c 0,4,5
 1165 970 1165 970 1092.5 885.5 c 128,-1,6
 1020 801 1020 801 881 776 c 1,7,-1
 881 766 l 1,8,9
 1214 709 1214 709 1214 416 c 0,10,11
 1214 220 1214 220 1081.5 110 c 128,-1,12
 949 0 949 0 711 0 c 2,13,-1
 201 0 l 1,14,-1
 201 1462 l 1,0,-1
371 836 m 1,15,-1
 651 836 l 2,16,17
 831 836 831 836 910 892.5 c 128,-1,18
 989 949 989 949 989 1083 c 0,19,20
 989 1206 989 1206 901 1260.5 c 128,-1,21
 813 1315 813 1315 621 1315 c 2,22,-1
 371 1315 l 1,23,-1
 371 836 l 1,15,-1
371 692 m 1,24,-1
 371 145 l 1,25,-1
 676 145 l 2,26,27
 853 145 853 145 942.5 213.5 c 128,-1,28
 1032 282 1032 282 1032 428 c 0,29,30
 1032 564 1032 564 940.5 628 c 128,-1,31
 849 692 849 692 662 692 c 2,32,-1
 371 692 l 1,24,-1
EndSplineSet
EndChar

StartChar: C
Encoding: 67 67 38
Width: 1292
GlyphClass: 2
Flags: W
LayerCount: 2
Fore
SplineSet
827 1331 m 0,0,1
 586 1331 586 1331 446.5 1170.5 c 128,-1,2
 307 1010 307 1010 307 731 c 0,3,4
 307 444 307 444 441.5 287.5 c 128,-1,5
 576 131 576 131 825 131 c 0,6,7
 978 131 978 131 1174 186 c 1,8,-1
 1174 37 l 1,9,10
 1022 -20 1022 -20 799 -20 c 0,11,12
 476 -20 476 -20 300.5 176 c 128,-1,13
 125 372 125 372 125 733 c 0,14,15
 125 959 125 959 209.5 1129 c 128,-1,16
 294 1299 294 1299 453.5 1391 c 128,-1,17
 613 1483 613 1483 829 1483 c 0,18,19
 1059 1483 1059 1483 1231 1399 c 1,20,-1
 1159 1253 l 1,21,22
 993 1331 993 1331 827 1331 c 0,0,1
EndSplineSet
EndChar

StartChar: D
Encoding: 68 68 39
Width: 1493
GlyphClass: 2
Flags: W
LayerCount: 2
Fore
SplineSet
1368 745 m 0,0,1
 1368 383 1368 383 1171.5 191.5 c 128,-1,2
 975 0 975 0 606 0 c 2,3,-1
 201 0 l 1,4,-1
 201 1462 l 1,5,-1
 649 1462 l 2,6,7
 990 1462 990 1462 1179 1273 c 128,-1,8
 1368 1084 1368 1084 1368 745 c 0,0,1
1188 739 m 0,9,10
 1188 1025 1188 1025 1044.5 1170 c 128,-1,11
 901 1315 901 1315 618 1315 c 2,12,-1
 371 1315 l 1,13,-1
 371 147 l 1,14,-1
 578 147 l 2,15,16
 882 147 882 147 1035 296.5 c 128,-1,17
 1188 446 1188 446 1188 739 c 0,9,10
EndSplineSet
EndChar

StartChar: E
Encoding: 69 69 40
Width: 1139
GlyphClass: 2
Flags: W
LayerCount: 2
Fore
SplineSet
1016 0 m 1,0,-1
 201 0 l 1,1,-1
 201 1462 l 1,2,-1
 1016 1462 l 1,3,-1
 1016 1311 l 1,4,-1
 371 1311 l 1,5,-1
 371 840 l 1,6,-1
 977 840 l 1,7,-1
 977 690 l 1,8,-1
 371 690 l 1,9,-1
 371 152 l 1,10,-1
 1016 152 l 1,11,-1
 1016 0 l 1,0,-1
EndSplineSet
EndChar

StartChar: F
Encoding: 70 70 41
Width: 1057
GlyphClass: 2
Flags: W
LayerCount: 2
Fore
SplineSet
371 0 m 1,0,-1
 201 0 l 1,1,-1
 201 1462 l 1,2,-1
 1016 1462 l 1,3,-1
 1016 1311 l 1,4,-1
 371 1311 l 1,5,-1
 371 776 l 1,6,-1
 977 776 l 1,7,-1
 977 625 l 1,8,-1
 371 625 l 1,9,-1
 371 0 l 1,0,-1
EndSplineSet
EndChar

StartChar: G
Encoding: 71 71 42
Width: 1491
GlyphClass: 2
Flags: W
LayerCount: 2
Fore
SplineSet
844 766 m 1,0,-1
 1341 766 l 1,1,-1
 1341 55 l 1,2,3
 1225 18 1225 18 1105 -1 c 128,-1,4
 985 -20 985 -20 827 -20 c 0,5,6
 495 -20 495 -20 310 177.5 c 128,-1,7
 125 375 125 375 125 731 c 0,8,9
 125 959 125 959 216.5 1130.5 c 128,-1,10
 308 1302 308 1302 480 1392.5 c 128,-1,11
 652 1483 652 1483 883 1483 c 0,12,13
 1117 1483 1117 1483 1319 1397 c 1,14,-1
 1253 1247 l 1,15,16
 1055 1331 1055 1331 872 1331 c 0,17,18
 605 1331 605 1331 455 1172 c 128,-1,19
 305 1013 305 1013 305 731 c 0,20,21
 305 435 305 435 449.5 282 c 128,-1,22
 594 129 594 129 874 129 c 0,23,24
 1026 129 1026 129 1171 164 c 1,25,-1
 1171 614 l 1,26,-1
 844 614 l 1,27,-1
 844 766 l 1,0,-1
EndSplineSet
EndChar

StartChar: H
Encoding: 72 72 43
Width: 1511
GlyphClass: 2
Flags: W
LayerCount: 2
Fore
SplineSet
1311 0 m 1,0,-1
 1141 0 l 1,1,-1
 1141 688 l 1,2,-1
 371 688 l 1,3,-1
 371 0 l 1,4,-1
 201 0 l 1,5,-1
 201 1462 l 1,6,-1
 371 1462 l 1,7,-1
 371 840 l 1,8,-1
 1141 840 l 1,9,-1
 1141 1462 l 1,10,-1
 1311 1462 l 1,11,-1
 1311 0 l 1,0,-1
EndSplineSet
EndChar

StartChar: I.alt
Encoding: 65539 -1 44
Width: 682
GlyphClass: 2
Flags: W
LayerCount: 2
Fore
SplineSet
598 0 m 1,0,-1
 84 0 l 1,1,-1
 84 98 l 1,2,-1
 256 133 l 1,3,-1
 256 1327 l 1,4,-1
 84 1364 l 1,5,-1
 84 1462 l 1,6,-1
 598 1462 l 1,7,-1
 598 1364 l 1,8,-1
 426 1327 l 1,9,-1
 426 133 l 1,10,-1
 598 98 l 1,11,-1
 598 0 l 1,0,-1
EndSplineSet
EndChar

StartChar: J
Encoding: 74 74 45
Width: 547
GlyphClass: 2
Flags: W
LayerCount: 2
Fore
SplineSet
-12 -385 m 0,0,1
 -106 -385 -106 -385 -160 -358 c 1,2,-1
 -160 -213 l 1,3,4
 -89 -233 -89 -233 -12 -233 c 0,5,6
 87 -233 87 -233 138.5 -173 c 128,-1,7
 190 -113 190 -113 190 0 c 2,8,-1
 190 1462 l 1,9,-1
 360 1462 l 1,10,-1
 360 14 l 2,11,12
 360 -176 360 -176 264 -280.5 c 128,-1,13
 168 -385 168 -385 -12 -385 c 0,0,1
EndSplineSet
EndChar

StartChar: K
Encoding: 75 75 46
Width: 1257
GlyphClass: 2
Flags: W
LayerCount: 2
Fore
SplineSet
1257 0 m 1,0,-1
 1057 0 l 1,1,-1
 524 709 l 1,2,-1
 371 573 l 1,3,-1
 371 0 l 1,4,-1
 201 0 l 1,5,-1
 201 1462 l 1,6,-1
 371 1462 l 1,7,-1
 371 737 l 1,8,-1
 1034 1462 l 1,9,-1
 1235 1462 l 1,10,-1
 647 827 l 1,11,-1
 1257 0 l 1,0,-1
EndSplineSet
EndChar

StartChar: L
Encoding: 76 76 47
Width: 1063
GlyphClass: 2
Flags: W
LayerCount: 2
Fore
SplineSet
201 0 m 1,0,-1
 201 1462 l 1,1,-1
 371 1462 l 1,2,-1
 371 154 l 1,3,-1
 1016 154 l 1,4,-1
 1016 0 l 1,5,-1
 201 0 l 1,0,-1
EndSplineSet
EndChar

StartChar: M
Encoding: 77 77 48
Width: 1849
GlyphClass: 2
Flags: W
LayerCount: 2
Fore
SplineSet
848 0 m 1,0,-1
 352 1296 l 1,1,-1
 344 1296 l 1,2,3
 358 1142 358 1142 358 930 c 2,4,-1
 358 0 l 1,5,-1
 201 0 l 1,6,-1
 201 1462 l 1,7,-1
 457 1462 l 1,8,-1
 920 256 l 1,9,-1
 928 256 l 1,10,-1
 1395 1462 l 1,11,-1
 1649 1462 l 1,12,-1
 1649 0 l 1,13,-1
 1479 0 l 1,14,-1
 1479 942 l 2,15,16
 1479 1104 1479 1104 1493 1294 c 1,17,-1
 1485 1294 l 1,18,-1
 985 0 l 1,19,-1
 848 0 l 1,0,-1
EndSplineSet
EndChar

StartChar: N
Encoding: 78 78 49
Width: 1544
GlyphClass: 2
Flags: W
LayerCount: 2
Fore
SplineSet
1343 0 m 1,0,-1
 1149 0 l 1,1,-1
 350 1227 l 1,2,-1
 342 1227 l 1,3,4
 358 1011 358 1011 358 831 c 2,5,-1
 358 0 l 1,6,-1
 201 0 l 1,7,-1
 201 1462 l 1,8,-1
 393 1462 l 1,9,-1
 1190 240 l 1,10,-1
 1198 240 l 1,11,12
 1196 267 1196 267 1189 413.5 c 128,-1,13
 1182 560 1182 560 1184 623 c 1,14,-1
 1184 1462 l 1,15,-1
 1343 1462 l 1,16,-1
 1343 0 l 1,0,-1
EndSplineSet
EndChar

StartChar: O
Encoding: 79 79 50
Width: 1595
GlyphClass: 2
Flags: W
LayerCount: 2
Fore
SplineSet
1470 733 m 0,0,1
 1470 382 1470 382 1292.5 181 c 128,-1,2
 1115 -20 1115 -20 799 -20 c 0,3,4
 476 -20 476 -20 300.5 177.5 c 128,-1,5
 125 375 125 375 125 735 c 0,6,7
 125 1092 125 1092 301 1288.5 c 128,-1,8
 477 1485 477 1485 801 1485 c 0,9,10
 1116 1485 1116 1485 1293 1285 c 128,-1,11
 1470 1085 1470 1085 1470 733 c 0,0,1
305 733 m 0,12,13
 305 436 305 436 431.5 282.5 c 128,-1,14
 558 129 558 129 799 129 c 0,15,16
 1042 129 1042 129 1166 282 c 128,-1,17
 1290 435 1290 435 1290 733 c 0,18,19
 1290 1028 1290 1028 1166.5 1180.5 c 128,-1,20
 1043 1333 1043 1333 801 1333 c 0,21,22
 558 1333 558 1333 431.5 1179.5 c 128,-1,23
 305 1026 305 1026 305 733 c 0,12,13
EndSplineSet
EndChar

StartChar: P
Encoding: 80 80 51
Width: 1233
GlyphClass: 2
Flags: W
LayerCount: 2
Fore
SplineSet
1128 1036 m 0,0,1
 1128 814 1128 814 976.5 694.5 c 128,-1,2
 825 575 825 575 543 575 c 2,3,-1
 371 575 l 1,4,-1
 371 0 l 1,5,-1
 201 0 l 1,6,-1
 201 1462 l 1,7,-1
 580 1462 l 2,8,9
 1128 1462 1128 1462 1128 1036 c 0,0,1
371 721 m 1,10,-1
 524 721 l 2,11,12
 750 721 750 721 851 794 c 128,-1,13
 952 867 952 867 952 1028 c 0,14,15
 952 1173 952 1173 857 1244 c 128,-1,16
 762 1315 762 1315 561 1315 c 2,17,-1
 371 1315 l 1,18,-1
 371 721 l 1,10,-1
EndSplineSet
EndChar

StartChar: Q
Encoding: 81 81 52
Width: 1595
GlyphClass: 2
Flags: W
LayerCount: 2
Fore
SplineSet
1470 733 m 0,0,1
 1470 452 1470 452 1357 266 c 128,-1,2
 1244 80 1244 80 1038 14 c 1,3,-1
 1386 -348 l 1,4,-1
 1139 -348 l 1,5,-1
 854 -18 l 1,6,-1
 799 -20 l 1,7,8
 476 -20 476 -20 300.5 177.5 c 128,-1,9
 125 375 125 375 125 735 c 0,10,11
 125 1092 125 1092 301 1288.5 c 128,-1,12
 477 1485 477 1485 801 1485 c 0,13,14
 1116 1485 1116 1485 1293 1285 c 128,-1,15
 1470 1085 1470 1085 1470 733 c 0,0,1
305 733 m 0,16,17
 305 436 305 436 431.5 282.5 c 128,-1,18
 558 129 558 129 799 129 c 0,19,20
 1042 129 1042 129 1166 282 c 128,-1,21
 1290 435 1290 435 1290 733 c 0,22,23
 1290 1028 1290 1028 1166.5 1180.5 c 128,-1,24
 1043 1333 1043 1333 801 1333 c 0,25,26
 558 1333 558 1333 431.5 1179.5 c 128,-1,27
 305 1026 305 1026 305 733 c 0,16,17
EndSplineSet
EndChar

StartChar: R
Encoding: 82 82 53
Width: 1266
GlyphClass: 2
Flags: W
LayerCount: 2
Fore
SplineSet
371 608 m 1,0,-1
 371 0 l 1,1,-1
 201 0 l 1,2,-1
 201 1462 l 1,3,-1
 602 1462 l 2,4,5
 871 1462 871 1462 999.5 1359 c 128,-1,6
 1128 1256 1128 1256 1128 1049 c 0,7,8
 1128 759 1128 759 834 657 c 1,9,-1
 1231 0 l 1,10,-1
 1030 0 l 1,11,-1
 676 608 l 1,12,-1
 371 608 l 1,0,-1
371 754 m 1,13,-1
 604 754 l 2,14,15
 784 754 784 754 868 825.5 c 128,-1,16
 952 897 952 897 952 1040 c 0,17,18
 952 1185 952 1185 866.5 1249 c 128,-1,19
 781 1313 781 1313 592 1313 c 2,20,-1
 371 1313 l 1,21,-1
 371 754 l 1,13,-1
EndSplineSet
EndChar

StartChar: S
Encoding: 83 83 54
Width: 1124
GlyphClass: 2
Flags: W
LayerCount: 2
Fore
SplineSet
1026 389 m 0,0,1
 1026 196 1026 196 886 88 c 128,-1,2
 746 -20 746 -20 506 -20 c 0,3,4
 246 -20 246 -20 106 47 c 1,5,-1
 106 211 l 1,6,7
 196 173 196 173 302 151 c 128,-1,8
 408 129 408 129 512 129 c 0,9,10
 682 129 682 129 768 193.5 c 128,-1,11
 854 258 854 258 854 373 c 0,12,13
 854 449 854 449 823.5 497.5 c 128,-1,14
 793 546 793 546 721.5 587 c 128,-1,15
 650 628 650 628 504 680 c 0,16,17
 300 753 300 753 212.5 853 c 128,-1,18
 125 953 125 953 125 1114 c 0,19,20
 125 1283 125 1283 252 1383 c 128,-1,21
 379 1483 379 1483 588 1483 c 0,22,23
 806 1483 806 1483 989 1403 c 1,24,-1
 936 1255 l 1,25,26
 755 1331 755 1331 584 1331 c 0,27,28
 449 1331 449 1331 373 1273 c 128,-1,29
 297 1215 297 1215 297 1112 c 0,30,31
 297 1036 297 1036 325 987.5 c 128,-1,32
 353 939 353 939 419.5 898.5 c 128,-1,33
 486 858 486 858 623 809 c 0,34,35
 853 727 853 727 939.5 633 c 128,-1,36
 1026 539 1026 539 1026 389 c 0,0,1
EndSplineSet
EndChar

StartChar: T
Encoding: 84 84 55
Width: 1133
GlyphClass: 2
Flags: W
LayerCount: 2
Fore
SplineSet
651 0 m 1,0,-1
 481 0 l 1,1,-1
 481 1311 l 1,2,-1
 18 1311 l 1,3,-1
 18 1462 l 1,4,-1
 1114 1462 l 1,5,-1
 1114 1311 l 1,6,-1
 651 1311 l 1,7,-1
 651 0 l 1,0,-1
EndSplineSet
EndChar

StartChar: U
Encoding: 85 85 56
Width: 1491
GlyphClass: 2
Flags: W
LayerCount: 2
Fore
SplineSet
1305 1462 m 1,0,-1
 1305 516 l 2,1,2
 1305 266 1305 266 1154 123 c 128,-1,3
 1003 -20 1003 -20 739 -20 c 256,4,5
 475 -20 475 -20 330.5 124 c 128,-1,6
 186 268 186 268 186 520 c 2,7,-1
 186 1462 l 1,8,-1
 356 1462 l 1,9,-1
 356 508 l 2,10,11
 356 325 356 325 456 227 c 128,-1,12
 556 129 556 129 750 129 c 0,13,14
 935 129 935 129 1035 227.5 c 128,-1,15
 1135 326 1135 326 1135 510 c 2,16,-1
 1135 1462 l 1,17,-1
 1305 1462 l 1,0,-1
EndSplineSet
EndChar

StartChar: V
Encoding: 86 86 57
Width: 1219
GlyphClass: 2
Flags: W
LayerCount: 2
Fore
SplineSet
1036 1462 m 1,0,-1
 1219 1462 l 1,1,-1
 692 0 l 1,2,-1
 524 0 l 1,3,-1
 0 1462 l 1,4,-1
 180 1462 l 1,5,-1
 516 516 l 2,6,7
 574 353 574 353 608 199 c 1,8,9
 644 361 644 361 702 522 c 2,10,-1
 1036 1462 l 1,0,-1
EndSplineSet
EndChar

StartChar: W
Encoding: 87 87 58
Width: 1896
GlyphClass: 2
Flags: W
LayerCount: 2
Fore
SplineSet
1477 0 m 1,0,-1
 1309 0 l 1,1,-1
 1014 979 l 1,2,3
 993 1044 993 1044 967 1143 c 128,-1,4
 941 1242 941 1242 940 1262 c 1,5,6
 918 1130 918 1130 870 973 c 1,7,-1
 584 0 l 1,8,-1
 416 0 l 1,9,-1
 27 1462 l 1,10,-1
 207 1462 l 1,11,-1
 438 559 l 2,12,13
 486 369 486 369 508 215 c 1,14,15
 535 398 535 398 588 573 c 1,16,-1
 850 1462 l 1,17,-1
 1030 1462 l 1,18,-1
 1305 565 l 2,19,20
 1353 410 1353 410 1386 215 c 1,21,22
 1405 357 1405 357 1458 561 c 2,23,-1
 1688 1462 l 1,24,-1
 1868 1462 l 1,25,-1
 1477 0 l 1,0,-1
EndSplineSet
EndChar

StartChar: X
Encoding: 88 88 59
Width: 1182
GlyphClass: 2
Flags: W
LayerCount: 2
Fore
SplineSet
1174 0 m 1,0,-1
 981 0 l 1,1,-1
 588 643 l 1,2,-1
 188 0 l 1,3,-1
 8 0 l 1,4,-1
 494 764 l 1,5,-1
 41 1462 l 1,6,-1
 229 1462 l 1,7,-1
 592 883 l 1,8,-1
 958 1462 l 1,9,-1
 1139 1462 l 1,10,-1
 686 770 l 1,11,-1
 1174 0 l 1,0,-1
EndSplineSet
EndChar

StartChar: Y
Encoding: 89 89 60
Width: 1147
GlyphClass: 2
Flags: W
LayerCount: 2
Fore
SplineSet
573 731 m 1,0,-1
 963 1462 l 1,1,-1
 1147 1462 l 1,2,-1
 659 567 l 1,3,-1
 659 0 l 1,4,-1
 487 0 l 1,5,-1
 487 559 l 1,6,-1
 0 1462 l 1,7,-1
 186 1462 l 1,8,-1
 573 731 l 1,0,-1
EndSplineSet
EndChar

StartChar: Z
Encoding: 90 90 61
Width: 1169
GlyphClass: 2
Flags: W
LayerCount: 2
Fore
SplineSet
1087 0 m 1,0,-1
 82 0 l 1,1,-1
 82 133 l 1,2,-1
 858 1309 l 1,3,-1
 106 1309 l 1,4,-1
 106 1462 l 1,5,-1
 1065 1462 l 1,6,-1
 1065 1329 l 1,7,-1
 289 154 l 1,8,-1
 1087 154 l 1,9,-1
 1087 0 l 1,0,-1
EndSplineSet
EndChar

StartChar: bracketleft
Encoding: 91 91 62
Width: 674
GlyphClass: 2
Flags: W
LayerCount: 2
Fore
SplineSet
623 -324 m 1,0,-1
 166 -324 l 1,1,-1
 166 1462 l 1,2,-1
 623 1462 l 1,3,-1
 623 1321 l 1,4,-1
 334 1321 l 1,5,-1
 334 -182 l 1,6,-1
 623 -182 l 1,7,-1
 623 -324 l 1,0,-1
EndSplineSet
EndChar

StartChar: backslash
Encoding: 92 92 63
Width: 752
GlyphClass: 2
Flags: W
LayerCount: 2
Fore
SplineSet
186 1462 m 1,0,-1
 733 0 l 1,1,-1
 567 0 l 1,2,-1
 23 1462 l 1,3,-1
 186 1462 l 1,0,-1
EndSplineSet
EndChar

StartChar: bracketright
Encoding: 93 93 64
Width: 674
GlyphClass: 2
Flags: W
LayerCount: 2
Fore
SplineSet
51 -182 m 1,0,-1
 340 -182 l 1,1,-1
 340 1321 l 1,2,-1
 51 1321 l 1,3,-1
 51 1462 l 1,4,-1
 508 1462 l 1,5,-1
 508 -324 l 1,6,-1
 51 -324 l 1,7,-1
 51 -182 l 1,0,-1
EndSplineSet
EndChar

StartChar: asciicircum
Encoding: 94 94 65
Width: 1110
GlyphClass: 2
Flags: W
LayerCount: 2
Fore
SplineSet
49 551 m 1,0,-1
 483 1473 l 1,1,-1
 582 1473 l 1,2,-1
 1059 551 l 1,3,-1
 907 551 l 1,4,-1
 535 1296 l 1,5,-1
 201 551 l 1,6,-1
 49 551 l 1,0,-1
EndSplineSet
EndChar

StartChar: underscore
Encoding: 95 95 66
Width: 918
GlyphClass: 2
Flags: W
LayerCount: 2
Fore
SplineSet
922 -315 m 1,0,-1
 -4 -315 l 1,1,-1
 -4 -184 l 1,2,-1
 922 -184 l 1,3,-1
 922 -315 l 1,0,-1
EndSplineSet
EndChar

StartChar: grave
Encoding: 96 96 67
Width: 1182
GlyphClass: 2
Flags: W
LayerCount: 2
Fore
SplineSet
786 1241 m 1,0,-1
 676 1241 l 1,1,2
 611 1293 611 1293 522 1389 c 128,-1,3
 433 1485 433 1485 393 1548 c 1,4,-1
 393 1569 l 1,5,-1
 596 1569 l 1,6,7
 628 1500 628 1500 685 1409.5 c 128,-1,8
 742 1319 742 1319 786 1266 c 1,9,-1
 786 1241 l 1,0,-1
EndSplineSet
EndChar

StartChar: a
Encoding: 97 97 68
Width: 1139
GlyphClass: 2
Flags: W
LayerCount: 2
Fore
SplineSet
850 0 m 1,0,-1
 817 156 l 1,1,-1
 809 156 l 1,2,3
 727 53 727 53 645.5 16.5 c 128,-1,4
 564 -20 564 -20 442 -20 c 0,5,6
 279 -20 279 -20 186.5 64 c 128,-1,7
 94 148 94 148 94 303 c 0,8,9
 94 635 94 635 625 651 c 1,10,-1
 811 657 l 1,11,-1
 811 725 l 2,12,13
 811 854 811 854 755.5 915.5 c 128,-1,14
 700 977 700 977 578 977 c 0,15,16
 441 977 441 977 268 893 c 1,17,-1
 217 1020 l 1,18,19
 298 1064 298 1064 394.5 1089 c 128,-1,20
 491 1114 491 1114 588 1114 c 0,21,22
 784 1114 784 1114 878.5 1027 c 128,-1,23
 973 940 973 940 973 748 c 2,24,-1
 973 0 l 1,25,-1
 850 0 l 1,0,-1
475 117 m 0,26,27
 630 117 630 117 718.5 202 c 128,-1,28
 807 287 807 287 807 440 c 2,29,-1
 807 539 l 1,30,-1
 641 532 l 1,31,32
 443 525 443 525 355.5 470.5 c 128,-1,33
 268 416 268 416 268 301 c 0,34,35
 268 211 268 211 322.5 164 c 128,-1,36
 377 117 377 117 475 117 c 0,26,27
EndSplineSet
EndChar

StartChar: b
Encoding: 98 98 69
Width: 1255
GlyphClass: 2
Flags: W
LayerCount: 2
Fore
SplineSet
686 1114 m 0,0,1
 902 1114 902 1114 1021.5 966.5 c 128,-1,2
 1141 819 1141 819 1141 549 c 256,3,4
 1141 279 1141 279 1020.5 129.5 c 128,-1,5
 900 -20 900 -20 686 -20 c 0,6,7
 579 -20 579 -20 490.5 19.5 c 128,-1,8
 402 59 402 59 342 141 c 1,9,-1
 330 141 l 1,10,-1
 295 0 l 1,11,-1
 176 0 l 1,12,-1
 176 1556 l 1,13,-1
 342 1556 l 1,14,-1
 342 1178 l 2,15,16
 342 1051 342 1051 334 950 c 1,17,-1
 342 950 l 1,18,19
 458 1114 458 1114 686 1114 c 0,0,1
662 975 m 0,20,21
 492 975 492 975 417 877.5 c 128,-1,22
 342 780 342 780 342 549 c 256,23,24
 342 318 342 318 419 218.5 c 128,-1,25
 496 119 496 119 666 119 c 0,26,27
 819 119 819 119 894 230.5 c 128,-1,28
 969 342 969 342 969 551 c 0,29,30
 969 765 969 765 894 870 c 128,-1,31
 819 975 819 975 662 975 c 0,20,21
EndSplineSet
EndChar

StartChar: c
Encoding: 99 99 70
Width: 975
GlyphClass: 2
Flags: W
LayerCount: 2
Fore
SplineSet
614 -20 m 0,0,1
 376 -20 376 -20 245.5 126.5 c 128,-1,2
 115 273 115 273 115 541 c 0,3,4
 115 816 115 816 247.5 966 c 128,-1,5
 380 1116 380 1116 625 1116 c 0,6,7
 704 1116 704 1116 783 1099 c 128,-1,8
 862 1082 862 1082 907 1059 c 1,9,-1
 856 918 l 1,10,11
 801 940 801 940 736 954.5 c 128,-1,12
 671 969 671 969 621 969 c 0,13,14
 287 969 287 969 287 543 c 0,15,16
 287 341 287 341 368.5 233 c 128,-1,17
 450 125 450 125 610 125 c 0,18,19
 747 125 747 125 891 184 c 1,20,-1
 891 37 l 1,21,22
 781 -20 781 -20 614 -20 c 0,0,1
EndSplineSet
EndChar

StartChar: d
Encoding: 100 100 71
Width: 1255
GlyphClass: 2
Flags: W
LayerCount: 2
Fore
SplineSet
922 147 m 1,0,-1
 913 147 l 1,1,2
 798 -20 798 -20 569 -20 c 0,3,4
 354 -20 354 -20 234.5 127 c 128,-1,5
 115 274 115 274 115 545 c 256,6,7
 115 816 115 816 235 966 c 128,-1,8
 355 1116 355 1116 569 1116 c 0,9,10
 792 1116 792 1116 911 954 c 1,11,-1
 924 954 l 1,12,-1
 917 1033 l 1,13,-1
 913 1110 l 1,14,-1
 913 1556 l 1,15,-1
 1079 1556 l 1,16,-1
 1079 0 l 1,17,-1
 944 0 l 1,18,-1
 922 147 l 1,0,-1
590 119 m 0,19,20
 760 119 760 119 836.5 211.5 c 128,-1,21
 913 304 913 304 913 510 c 2,22,-1
 913 545 l 2,23,24
 913 778 913 778 835.5 877.5 c 128,-1,25
 758 977 758 977 588 977 c 0,26,27
 442 977 442 977 364.5 863.5 c 128,-1,28
 287 750 287 750 287 543 c 0,29,30
 287 333 287 333 364 226 c 128,-1,31
 441 119 441 119 590 119 c 0,19,20
EndSplineSet
EndChar

StartChar: e
Encoding: 101 101 72
Width: 1149
GlyphClass: 2
Flags: W
LayerCount: 2
Fore
SplineSet
639 -20 m 0,0,1
 396 -20 396 -20 255.5 128 c 128,-1,2
 115 276 115 276 115 539 c 0,3,4
 115 804 115 804 245.5 960 c 128,-1,5
 376 1116 376 1116 596 1116 c 0,6,7
 802 1116 802 1116 922 980.5 c 128,-1,8
 1042 845 1042 845 1042 623 c 2,9,-1
 1042 518 l 1,10,-1
 287 518 l 1,11,12
 292 325 292 325 384.5 225 c 128,-1,13
 477 125 477 125 645 125 c 0,14,15
 822 125 822 125 995 199 c 1,16,-1
 995 51 l 1,17,18
 907 13 907 13 828.5 -3.5 c 128,-1,19
 750 -20 750 -20 639 -20 c 0,0,1
594 977 m 0,20,21
 462 977 462 977 383.5 891 c 128,-1,22
 305 805 305 805 291 653 c 1,23,-1
 864 653 l 1,24,25
 864 810 864 810 794 893.5 c 128,-1,26
 724 977 724 977 594 977 c 0,20,21
EndSplineSet
EndChar

StartChar: f
Encoding: 102 102 73
Width: 694
GlyphClass: 2
Flags: W
LayerCount: 2
Fore
SplineSet
670 967 m 1,0,-1
 391 967 l 1,1,-1
 391 0 l 1,2,-1
 225 0 l 1,3,-1
 225 967 l 1,4,-1
 29 967 l 1,5,-1
 29 1042 l 1,6,-1
 225 1102 l 1,7,-1
 225 1163 l 2,8,9
 225 1567 225 1567 578 1567 c 0,10,11
 665 1567 665 1567 782 1532 c 1,12,-1
 739 1399 l 1,13,14
 643 1430 643 1430 575 1430 c 0,15,16
 481 1430 481 1430 436 1367.5 c 128,-1,17
 391 1305 391 1305 391 1167 c 2,18,-1
 391 1096 l 1,19,-1
 670 1096 l 1,20,-1
 670 967 l 1,0,-1
EndSplineSet
EndChar

StartChar: g
Encoding: 103 103 74
Width: 1122
GlyphClass: 2
Flags: W
LayerCount: 2
Fore
SplineSet
1073 1096 m 1,0,-1
 1073 991 l 1,1,-1
 870 967 l 1,2,3
 898 932 898 932 920 875.5 c 128,-1,4
 942 819 942 819 942 748 c 0,5,6
 942 587 942 587 832 491 c 128,-1,7
 722 395 722 395 530 395 c 0,8,9
 481 395 481 395 438 403 c 1,10,11
 332 347 332 347 332 262 c 0,12,13
 332 217 332 217 369 195.5 c 128,-1,14
 406 174 406 174 496 174 c 2,15,-1
 690 174 l 2,16,17
 868 174 868 174 963.5 99 c 128,-1,18
 1059 24 1059 24 1059 -119 c 0,19,20
 1059 -301 1059 -301 913 -396.5 c 128,-1,21
 767 -492 767 -492 487 -492 c 0,22,23
 272 -492 272 -492 155.5 -412 c 128,-1,24
 39 -332 39 -332 39 -186 c 0,25,26
 39 -86 39 -86 103 -13 c 128,-1,27
 167 60 167 60 283 86 c 1,28,29
 241 105 241 105 212.5 145 c 128,-1,30
 184 185 184 185 184 238 c 0,31,32
 184 298 184 298 216 343 c 128,-1,33
 248 388 248 388 317 430 c 1,34,35
 232 465 232 465 178.5 549 c 128,-1,36
 125 633 125 633 125 741 c 0,37,38
 125 921 125 921 233 1018.5 c 128,-1,39
 341 1116 341 1116 539 1116 c 0,40,41
 625 1116 625 1116 694 1096 c 1,42,-1
 1073 1096 l 1,0,-1
199 -184 m 0,43,44
 199 -273 199 -273 274 -319 c 128,-1,45
 349 -365 349 -365 489 -365 c 0,46,47
 698 -365 698 -365 798.5 -302.5 c 128,-1,48
 899 -240 899 -240 899 -133 c 0,49,50
 899 -44 899 -44 844 -9.5 c 128,-1,51
 789 25 789 25 637 25 c 2,52,-1
 438 25 l 2,53,54
 325 25 325 25 262 -29 c 128,-1,55
 199 -83 199 -83 199 -184 c 0,43,44
289 745 m 0,56,57
 289 630 289 630 354 571 c 128,-1,58
 419 512 419 512 535 512 c 0,59,60
 778 512 778 512 778 748 c 0,61,62
 778 995 778 995 532 995 c 0,63,64
 415 995 415 995 352 932 c 128,-1,65
 289 869 289 869 289 745 c 0,56,57
EndSplineSet
Substitution2: "'ss02' Stilgruppe 2 in Latin lookup 0 subtable" g.alt
EndChar

StartChar: h
Encoding: 104 104 75
Width: 1257
GlyphClass: 2
Flags: W
LayerCount: 2
Fore
SplineSet
926 0 m 1,0,-1
 926 709 l 2,1,2
 926 843 926 843 865 909 c 128,-1,3
 804 975 804 975 674 975 c 0,4,5
 501 975 501 975 421.5 881 c 128,-1,6
 342 787 342 787 342 573 c 2,7,-1
 342 0 l 1,8,-1
 176 0 l 1,9,-1
 176 1556 l 1,10,-1
 342 1556 l 1,11,-1
 342 1085 l 2,12,13
 342 1000 342 1000 334 944 c 1,14,-1
 344 944 l 1,15,16
 393 1023 393 1023 483.5 1068.5 c 128,-1,17
 574 1114 574 1114 690 1114 c 0,18,19
 891 1114 891 1114 991.5 1018.5 c 128,-1,20
 1092 923 1092 923 1092 715 c 2,21,-1
 1092 0 l 1,22,-1
 926 0 l 1,0,-1
EndSplineSet
EndChar

StartChar: i
Encoding: 105 105 76
Width: 518
GlyphClass: 2
Flags: W
LayerCount: 2
Fore
SplineSet
342 0 m 1,0,-1
 176 0 l 1,1,-1
 176 1096 l 1,2,-1
 342 1096 l 1,3,-1
 342 0 l 1,0,-1
162 1393 m 0,4,5
 162 1450 162 1450 190 1476.5 c 128,-1,6
 218 1503 218 1503 260 1503 c 0,7,8
 300 1503 300 1503 329 1476 c 128,-1,9
 358 1449 358 1449 358 1393 c 256,10,11
 358 1337 358 1337 329 1309.5 c 128,-1,12
 300 1282 300 1282 260 1282 c 0,13,14
 218 1282 218 1282 190 1309.5 c 128,-1,15
 162 1337 162 1337 162 1393 c 0,4,5
EndSplineSet
EndChar

StartChar: j
Encoding: 106 106 77
Width: 518
GlyphClass: 2
Flags: W
LayerCount: 2
Fore
SplineSet
43 -492 m 0,0,1
 -52 -492 -52 -492 -111 -467 c 1,2,-1
 -111 -332 l 1,3,4
 -42 -352 -42 -352 25 -352 c 0,5,6
 103 -352 103 -352 139.5 -309.5 c 128,-1,7
 176 -267 176 -267 176 -180 c 2,8,-1
 176 1096 l 1,9,-1
 342 1096 l 1,10,-1
 342 -168 l 2,11,12
 342 -492 342 -492 43 -492 c 0,0,1
162 1393 m 0,13,14
 162 1450 162 1450 190 1476.5 c 128,-1,15
 218 1503 218 1503 260 1503 c 0,16,17
 300 1503 300 1503 329 1476 c 128,-1,18
 358 1449 358 1449 358 1393 c 256,19,20
 358 1337 358 1337 329 1309.5 c 128,-1,21
 300 1282 300 1282 260 1282 c 0,22,23
 218 1282 218 1282 190 1309.5 c 128,-1,24
 162 1337 162 1337 162 1393 c 0,13,14
EndSplineSet
EndChar

StartChar: k
Encoding: 107 107 78
Width: 1075
GlyphClass: 2
Flags: W
LayerCount: 2
Fore
SplineSet
340 561 m 1,0,1
 383 622 383 622 471 721 c 1,2,-1
 825 1096 l 1,3,-1
 1022 1096 l 1,4,-1
 578 629 l 1,5,-1
 1053 0 l 1,6,-1
 852 0 l 1,7,-1
 465 518 l 1,8,-1
 340 410 l 1,9,-1
 340 0 l 1,10,-1
 176 0 l 1,11,-1
 176 1556 l 1,12,-1
 340 1556 l 1,13,-1
 340 731 l 2,14,15
 340 676 340 676 332 561 c 1,16,-1
 340 561 l 1,0,1
EndSplineSet
EndChar

StartChar: l
Encoding: 108 108 79
Width: 518
GlyphClass: 2
Flags: W
LayerCount: 2
Fore
SplineSet
342 0 m 1,0,-1
 176 0 l 1,1,-1
 176 1556 l 1,2,-1
 342 1556 l 1,3,-1
 342 0 l 1,0,-1
EndSplineSet
EndChar

StartChar: m
Encoding: 109 109 80
Width: 1905
GlyphClass: 2
Flags: W
LayerCount: 2
Fore
SplineSet
1573 0 m 1,0,-1
 1573 713 l 2,1,2
 1573 844 1573 844 1517 909.5 c 128,-1,3
 1461 975 1461 975 1343 975 c 0,4,5
 1188 975 1188 975 1114 886 c 128,-1,6
 1040 797 1040 797 1040 612 c 2,7,-1
 1040 0 l 1,8,-1
 874 0 l 1,9,-1
 874 713 l 2,10,11
 874 844 874 844 818 909.5 c 128,-1,12
 762 975 762 975 643 975 c 0,13,14
 487 975 487 975 414.5 881.5 c 128,-1,15
 342 788 342 788 342 575 c 2,16,-1
 342 0 l 1,17,-1
 176 0 l 1,18,-1
 176 1096 l 1,19,-1
 311 1096 l 1,20,-1
 338 946 l 1,21,-1
 346 946 l 1,22,23
 393 1026 393 1026 478.5 1071 c 128,-1,24
 564 1116 564 1116 670 1116 c 0,25,26
 927 1116 927 1116 1006 930 c 1,27,-1
 1014 930 l 1,28,29
 1063 1016 1063 1016 1156 1066 c 128,-1,30
 1249 1116 1249 1116 1368 1116 c 0,31,32
 1554 1116 1554 1116 1646.5 1020.5 c 128,-1,33
 1739 925 1739 925 1739 715 c 2,34,-1
 1739 0 l 1,35,-1
 1573 0 l 1,0,-1
EndSplineSet
EndChar

StartChar: n
Encoding: 110 110 81
Width: 1257
GlyphClass: 2
Flags: W
LayerCount: 2
Fore
SplineSet
926 0 m 1,0,-1
 926 709 l 2,1,2
 926 843 926 843 865 909 c 128,-1,3
 804 975 804 975 674 975 c 0,4,5
 502 975 502 975 422 882 c 128,-1,6
 342 789 342 789 342 575 c 2,7,-1
 342 0 l 1,8,-1
 176 0 l 1,9,-1
 176 1096 l 1,10,-1
 311 1096 l 1,11,-1
 338 946 l 1,12,-1
 346 946 l 1,13,14
 397 1027 397 1027 489 1071.5 c 128,-1,15
 581 1116 581 1116 694 1116 c 0,16,17
 892 1116 892 1116 992 1020.5 c 128,-1,18
 1092 925 1092 925 1092 715 c 2,19,-1
 1092 0 l 1,20,-1
 926 0 l 1,0,-1
EndSplineSet
EndChar

StartChar: o
Encoding: 111 111 82
Width: 1237
GlyphClass: 2
Flags: W
LayerCount: 2
Fore
SplineSet
1122 549 m 0,0,1
 1122 281 1122 281 987 130.5 c 128,-1,2
 852 -20 852 -20 614 -20 c 0,3,4
 467 -20 467 -20 353 49 c 128,-1,5
 239 118 239 118 177 247 c 128,-1,6
 115 376 115 376 115 549 c 0,7,8
 115 817 115 817 249 966.5 c 128,-1,9
 383 1116 383 1116 621 1116 c 0,10,11
 851 1116 851 1116 986.5 963 c 128,-1,12
 1122 810 1122 810 1122 549 c 0,0,1
287 549 m 0,13,14
 287 339 287 339 371 229 c 128,-1,15
 455 119 455 119 618 119 c 256,16,17
 781 119 781 119 865.5 228.5 c 128,-1,18
 950 338 950 338 950 549 c 0,19,20
 950 758 950 758 865.5 866.5 c 128,-1,21
 781 975 781 975 616 975 c 0,22,23
 453 975 453 975 370 868 c 128,-1,24
 287 761 287 761 287 549 c 0,13,14
EndSplineSet
EndChar

StartChar: p
Encoding: 112 112 83
Width: 1255
GlyphClass: 2
Flags: W
LayerCount: 2
Fore
SplineSet
686 -20 m 0,0,1
 579 -20 579 -20 490.5 19.5 c 128,-1,2
 402 59 402 59 342 141 c 1,3,-1
 330 141 l 1,4,5
 342 45 342 45 342 -41 c 2,6,-1
 342 -492 l 1,7,-1
 176 -492 l 1,8,-1
 176 1096 l 1,9,-1
 311 1096 l 1,10,-1
 334 946 l 1,11,-1
 342 946 l 1,12,13
 406 1036 406 1036 491 1076 c 128,-1,14
 576 1116 576 1116 686 1116 c 0,15,16
 904 1116 904 1116 1022.5 967 c 128,-1,17
 1141 818 1141 818 1141 549 c 0,18,19
 1141 279 1141 279 1020.5 129.5 c 128,-1,20
 900 -20 900 -20 686 -20 c 0,0,1
662 975 m 0,21,22
 494 975 494 975 419 882 c 128,-1,23
 344 789 344 789 342 586 c 1,24,-1
 342 549 l 2,25,26
 342 318 342 318 419 218.5 c 128,-1,27
 496 119 496 119 666 119 c 0,28,29
 808 119 808 119 888.5 234 c 128,-1,30
 969 349 969 349 969 551 c 0,31,32
 969 756 969 756 888.5 865.5 c 128,-1,33
 808 975 808 975 662 975 c 0,21,22
EndSplineSet
EndChar

StartChar: q
Encoding: 113 113 84
Width: 1255
GlyphClass: 2
Flags: W
LayerCount: 2
Fore
SplineSet
590 119 m 0,0,1
 756 119 756 119 832 208 c 128,-1,2
 908 297 908 297 913 508 c 1,3,-1
 913 545 l 2,4,5
 913 775 913 775 835 876 c 128,-1,6
 757 977 757 977 588 977 c 0,7,8
 442 977 442 977 364.5 863.5 c 128,-1,9
 287 750 287 750 287 543 c 256,10,11
 287 336 287 336 363.5 227.5 c 128,-1,12
 440 119 440 119 590 119 c 0,0,1
565 -20 m 0,13,14
 353 -20 353 -20 234 129 c 128,-1,15
 115 278 115 278 115 545 c 0,16,17
 115 814 115 814 235 965 c 128,-1,18
 355 1116 355 1116 569 1116 c 0,19,20
 794 1116 794 1116 915 946 c 1,21,-1
 924 946 l 1,22,-1
 948 1096 l 1,23,-1
 1079 1096 l 1,24,-1
 1079 -492 l 1,25,-1
 913 -492 l 1,26,-1
 913 -23 l 2,27,28
 913 77 913 77 924 147 c 1,29,-1
 911 147 l 1,30,31
 796 -20 796 -20 565 -20 c 0,13,14
EndSplineSet
EndChar

StartChar: r
Encoding: 114 114 85
Width: 836
GlyphClass: 2
Flags: W
LayerCount: 2
Fore
SplineSet
676 1116 m 0,0,1
 749 1116 749 1116 807 1104 c 1,2,-1
 784 950 l 1,3,4
 716 965 716 965 664 965 c 0,5,6
 531 965 531 965 436.5 857 c 128,-1,7
 342 749 342 749 342 588 c 2,8,-1
 342 0 l 1,9,-1
 176 0 l 1,10,-1
 176 1096 l 1,11,-1
 313 1096 l 1,12,-1
 332 893 l 1,13,-1
 340 893 l 1,14,15
 401 1000 401 1000 487 1058 c 128,-1,16
 573 1116 573 1116 676 1116 c 0,0,1
EndSplineSet
EndChar

StartChar: s
Encoding: 115 115 86
Width: 977
GlyphClass: 2
Flags: W
LayerCount: 2
Fore
SplineSet
883 299 m 0,0,1
 883 146 883 146 769 63 c 128,-1,2
 655 -20 655 -20 449 -20 c 0,3,4
 231 -20 231 -20 109 49 c 1,5,-1
 109 203 l 1,6,7
 188 163 188 163 278.5 140 c 128,-1,8
 369 117 369 117 453 117 c 0,9,10
 583 117 583 117 653 158.5 c 128,-1,11
 723 200 723 200 723 285 c 0,12,13
 723 349 723 349 667.5 394.5 c 128,-1,14
 612 440 612 440 451 502 c 1,15,16
 298 559 298 559 233.5 601.5 c 128,-1,17
 169 644 169 644 137.5 698 c 128,-1,18
 106 752 106 752 106 827 c 0,19,20
 106 961 106 961 215 1038.5 c 128,-1,21
 324 1116 324 1116 514 1116 c 0,22,23
 691 1116 691 1116 860 1044 c 1,24,-1
 801 909 l 1,25,26
 636 977 636 977 502 977 c 0,27,28
 384 977 384 977 324 940 c 128,-1,29
 264 903 264 903 264 838 c 0,30,31
 264 794 264 794 286.5 763 c 128,-1,32
 309 732 309 732 359 704 c 128,-1,33
 409 676 409 676 551 623 c 1,34,35
 746 552 746 552 814.5 480 c 128,-1,36
 883 408 883 408 883 299 c 0,0,1
EndSplineSet
EndChar

StartChar: t
Encoding: 116 116 87
Width: 723
GlyphClass: 2
Flags: W
LayerCount: 2
Fore
SplineSet
530 117 m 0,0,1
 574 117 574 117 615 123.5 c 128,-1,2
 656 130 656 130 680 137 c 1,3,-1
 680 10 l 1,4,5
 653 -3 653 -3 600.5 -11.5 c 128,-1,6
 548 -20 548 -20 506 -20 c 0,7,8
 188 -20 188 -20 188 315 c 2,9,-1
 188 967 l 1,10,-1
 31 967 l 1,11,-1
 31 1047 l 1,12,-1
 188 1116 l 1,13,-1
 258 1350 l 1,14,-1
 354 1350 l 1,15,-1
 354 1096 l 1,16,-1
 672 1096 l 1,17,-1
 672 967 l 1,18,-1
 354 967 l 1,19,-1
 354 322 l 2,20,21
 354 223 354 223 401 170 c 128,-1,22
 448 117 448 117 530 117 c 0,0,1
EndSplineSet
EndChar

StartChar: u
Encoding: 117 117 88
Width: 1257
GlyphClass: 2
Flags: W
LayerCount: 2
Fore
SplineSet
332 1096 m 1,0,-1
 332 385 l 2,1,2
 332 251 332 251 393 185 c 128,-1,3
 454 119 454 119 584 119 c 0,4,5
 756 119 756 119 835.5 213 c 128,-1,6
 915 307 915 307 915 520 c 2,7,-1
 915 1096 l 1,8,-1
 1081 1096 l 1,9,-1
 1081 0 l 1,10,-1
 944 0 l 1,11,-1
 920 147 l 1,12,-1
 911 147 l 1,13,14
 860 66 860 66 769.5 23 c 128,-1,15
 679 -20 679 -20 563 -20 c 0,16,17
 363 -20 363 -20 263.5 75 c 128,-1,18
 164 170 164 170 164 379 c 2,19,-1
 164 1096 l 1,20,-1
 332 1096 l 1,0,-1
EndSplineSet
EndChar

StartChar: v
Encoding: 118 118 89
Width: 1026
GlyphClass: 2
Flags: W
LayerCount: 2
Fore
SplineSet
416 0 m 1,0,-1
 0 1096 l 1,1,-1
 178 1096 l 1,2,-1
 414 446 l 1,3,4
 494 218 494 218 508 150 c 1,5,-1
 516 150 l 1,6,7
 527 203 527 203 585.5 369.5 c 128,-1,8
 644 536 644 536 848 1096 c 1,9,-1
 1026 1096 l 1,10,-1
 610 0 l 1,11,-1
 416 0 l 1,0,-1
EndSplineSet
EndChar

StartChar: w
Encoding: 119 119 90
Width: 1593
GlyphClass: 2
Flags: W
LayerCount: 2
Fore
SplineSet
1071 0 m 1,0,-1
 870 643 l 2,1,2
 851 702 851 702 799 911 c 1,3,-1
 791 911 l 1,4,5
 751 736 751 736 721 641 c 2,6,-1
 514 0 l 1,7,-1
 322 0 l 1,8,-1
 23 1096 l 1,9,-1
 197 1096 l 1,10,11
 303 683 303 683 358.5 467 c 128,-1,12
 414 251 414 251 422 176 c 1,13,-1
 430 176 l 1,14,15
 441 233 441 233 465.5 323.5 c 128,-1,16
 490 414 490 414 508 467 c 1,17,-1
 709 1096 l 1,18,-1
 889 1096 l 1,19,-1
 1085 467 l 1,20,21
 1141 295 1141 295 1161 178 c 1,22,-1
 1169 178 l 1,23,24
 1173 214 1173 214 1190.5 289 c 128,-1,25
 1208 364 1208 364 1399 1096 c 1,26,-1
 1571 1096 l 1,27,-1
 1268 0 l 1,28,-1
 1071 0 l 1,0,-1
EndSplineSet
EndChar

StartChar: x
Encoding: 120 120 91
Width: 1073
GlyphClass: 2
Flags: W
LayerCount: 2
Fore
SplineSet
440 561 m 1,0,-1
 59 1096 l 1,1,-1
 248 1096 l 1,2,-1
 537 676 l 1,3,-1
 825 1096 l 1,4,-1
 1012 1096 l 1,5,-1
 631 561 l 1,6,-1
 1032 0 l 1,7,-1
 844 0 l 1,8,-1
 537 444 l 1,9,-1
 227 0 l 1,10,-1
 39 0 l 1,11,-1
 440 561 l 1,0,-1
EndSplineSet
EndChar

StartChar: y
Encoding: 121 121 92
Width: 1032
GlyphClass: 2
Flags: W
LayerCount: 2
Fore
SplineSet
2 1096 m 1,0,-1
 180 1096 l 1,1,-1
 420 471 l 1,2,3
 499 257 499 257 518 162 c 1,4,-1
 526 162 l 1,5,6
 539 213 539 213 580.5 336.5 c 128,-1,7
 622 460 622 460 852 1096 c 1,8,-1
 1030 1096 l 1,9,-1
 559 -152 l 2,10,11
 489 -337 489 -337 395.5 -414.5 c 128,-1,12
 302 -492 302 -492 166 -492 c 0,13,14
 90 -492 90 -492 16 -475 c 1,15,-1
 16 -342 l 1,16,17
 71 -354 71 -354 139 -354 c 0,18,19
 310 -354 310 -354 383 -162 c 1,20,-1
 444 -6 l 1,21,-1
 2 1096 l 1,0,-1
EndSplineSet
EndChar

StartChar: z
Encoding: 122 122 93
Width: 958
GlyphClass: 2
Flags: W
LayerCount: 2
Fore
SplineSet
877 0 m 1,0,-1
 82 0 l 1,1,-1
 82 113 l 1,2,-1
 680 967 l 1,3,-1
 119 967 l 1,4,-1
 119 1096 l 1,5,-1
 862 1096 l 1,6,-1
 862 967 l 1,7,-1
 272 129 l 1,8,-1
 877 129 l 1,9,-1
 877 0 l 1,0,-1
EndSplineSet
EndChar

StartChar: braceleft
Encoding: 123 123 94
Width: 776
GlyphClass: 2
Flags: W
LayerCount: 2
Fore
SplineSet
475 12 m 2,0,1
 475 -90 475 -90 533.5 -136 c 128,-1,2
 592 -182 592 -182 705 -184 c 1,3,-1
 705 -324 l 1,4,5
 515 -322 515 -322 411 -237 c 128,-1,6
 307 -152 307 -152 307 2 c 2,7,-1
 307 305 l 2,8,9
 307 409 307 409 244 453.5 c 128,-1,10
 181 498 181 498 61 498 c 1,11,-1
 61 639 l 1,12,13
 191 641 191 641 249 687 c 128,-1,14
 307 733 307 733 307 829 c 2,15,-1
 307 1135 l 2,16,17
 307 1290 307 1290 415 1376 c 128,-1,18
 523 1462 523 1462 705 1462 c 1,19,-1
 705 1323 l 1,20,21
 475 1317 475 1317 475 1124 c 2,22,-1
 475 829 l 2,23,24
 475 614 475 614 252 575 c 1,25,-1
 252 563 l 1,26,27
 475 524 475 524 475 309 c 2,28,-1
 475 12 l 2,0,1
EndSplineSet
EndChar

StartChar: bar
Encoding: 124 124 95
Width: 1128
GlyphClass: 2
Flags: W
LayerCount: 2
Fore
SplineSet
494 1556 m 1,0,-1
 635 1556 l 1,1,-1
 635 -496 l 1,2,-1
 494 -496 l 1,3,-1
 494 1556 l 1,0,-1
EndSplineSet
EndChar

StartChar: braceright
Encoding: 125 125 96
Width: 776
GlyphClass: 2
Flags: W
LayerCount: 2
Fore
SplineSet
522 575 m 1,0,1
 299 614 299 614 299 829 c 2,2,-1
 299 1124 l 2,3,4
 299 1317 299 1317 72 1323 c 1,5,-1
 72 1462 l 1,6,7
 256 1462 256 1462 361.5 1375 c 128,-1,8
 467 1288 467 1288 467 1135 c 2,9,-1
 467 829 l 2,10,11
 467 732 467 732 526 686.5 c 128,-1,12
 585 641 585 641 715 639 c 1,13,-1
 715 498 l 1,14,15
 593 498 593 498 530 453.5 c 128,-1,16
 467 409 467 409 467 305 c 2,17,-1
 467 2 l 2,18,19
 467 -151 467 -151 364.5 -236.5 c 128,-1,20
 262 -322 262 -322 72 -324 c 1,21,-1
 72 -184 l 1,22,23
 183 -182 183 -182 241 -136 c 128,-1,24
 299 -90 299 -90 299 12 c 2,25,-1
 299 309 l 2,26,27
 299 423 299 423 354 483 c 128,-1,28
 409 543 409 543 522 563 c 1,29,-1
 522 575 l 1,0,1
EndSplineSet
EndChar

StartChar: asciitilde
Encoding: 126 126 97
Width: 1171
GlyphClass: 2
Flags: W
LayerCount: 2
Fore
SplineSet
338 713 m 0,0,1
 285 713 285 713 221.5 679.5 c 128,-1,2
 158 646 158 646 104 592 c 1,3,-1
 104 743 l 1,4,5
 204 852 204 852 348 852 c 0,6,7
 416 852 416 852 472.5 838 c 128,-1,8
 529 824 529 824 618 786 c 0,9,10
 684 758 684 758 733 744.5 c 128,-1,11
 782 731 782 731 829 731 c 0,12,13
 883 731 883 731 947 763 c 128,-1,14
 1011 795 1011 795 1065 852 c 1,15,-1
 1065 702 l 1,16,17
 963 592 963 592 821 592 c 0,18,19
 749 592 749 592 686 608.5 c 128,-1,20
 623 625 623 625 551 657 c 1,21,22
 476 689 476 689 431 701 c 128,-1,23
 386 713 386 713 338 713 c 0,0,1
EndSplineSet
EndChar

StartChar: exclamdown
Encoding: 161 161 99
Width: 547
GlyphClass: 2
Flags: W
LayerCount: 2
Fore
SplineSet
219 684 m 1,0,-1
 324 684 l 1,1,-1
 375 -373 l 1,2,-1
 168 -373 l 1,3,-1
 219 684 l 1,0,-1
393 983 m 0,4,5
 393 848 393 848 272 848 c 0,6,7
 212 848 212 848 182 883.5 c 128,-1,8
 152 919 152 919 152 983 c 0,9,10
 152 1046 152 1046 183.5 1082 c 128,-1,11
 215 1118 215 1118 272 1118 c 0,12,13
 323 1118 323 1118 358 1086 c 128,-1,14
 393 1054 393 1054 393 983 c 0,4,5
EndSplineSet
EndChar

StartChar: cent
Encoding: 162 162 100
Width: 1171
GlyphClass: 2
Flags: W
LayerCount: 2
Fore
SplineSet
971 240 m 1,0,1
 866 186 866 186 719 180 c 1,2,-1
 719 -20 l 1,3,-1
 586 -20 l 1,4,-1
 586 186 l 1,5,6
 383 218 383 218 286.5 354.5 c 128,-1,7
 190 491 190 491 190 741 c 0,8,9
 190 1249 190 1249 586 1311 c 1,10,-1
 586 1483 l 1,11,-1
 721 1483 l 1,12,-1
 721 1319 l 1,13,14
 796 1316 796 1316 867 1299.5 c 128,-1,15
 938 1283 938 1283 987 1260 c 1,16,-1
 938 1120 l 1,17,18
 805 1171 805 1171 696 1171 c 0,19,20
 524 1171 524 1171 443 1065.5 c 128,-1,21
 362 960 362 960 362 743 c 0,22,23
 362 531 362 531 441.5 429.5 c 128,-1,24
 521 328 521 328 688 328 c 0,25,26
 829 328 829 328 971 387 c 1,27,-1
 971 240 l 1,0,1
EndSplineSet
EndChar

StartChar: sterling
Encoding: 163 163 101
Width: 1171
GlyphClass: 2
Flags: W
LayerCount: 2
Fore
SplineSet
682 1481 m 256,0,1
 872 1481 872 1481 1042 1397 c 1,2,-1
 981 1264 l 1,3,4
 827 1341 827 1341 684 1341 c 0,5,6
 561 1341 561 1341 498.5 1279 c 128,-1,7
 436 1217 436 1217 436 1077 c 2,8,-1
 436 782 l 1,9,-1
 858 782 l 1,10,-1
 858 655 l 1,11,-1
 436 655 l 1,12,-1
 436 434 l 2,13,14
 436 334 436 334 403.5 266 c 128,-1,15
 371 198 371 198 297 154 c 1,16,-1
 1092 154 l 1,17,-1
 1092 0 l 1,18,-1
 63 0 l 1,19,-1
 63 141 l 1,20,21
 268 188 268 188 268 432 c 2,22,-1
 268 655 l 1,23,-1
 70 655 l 1,24,-1
 70 782 l 1,25,-1
 268 782 l 1,26,-1
 268 1098 l 2,27,28
 268 1276 268 1276 380 1378.5 c 128,-1,29
 492 1481 492 1481 682 1481 c 256,0,1
EndSplineSet
EndChar

StartChar: currency
Encoding: 164 164 102
Width: 1171
GlyphClass: 2
Flags: W
LayerCount: 2
Fore
SplineSet
184 723 m 0,0,1
 184 845 184 845 258 952 c 1,2,-1
 123 1092 l 1,3,-1
 217 1184 l 1,4,-1
 352 1051 l 1,5,6
 456 1124 456 1124 586 1124 c 0,7,8
 713 1124 713 1124 815 1051 c 1,9,-1
 952 1184 l 1,10,-1
 1047 1092 l 1,11,-1
 913 954 l 1,12,13
 987 841 987 841 987 723 c 0,14,15
 987 592 987 592 913 489 c 1,16,-1
 1044 354 l 1,17,-1
 952 262 l 1,18,-1
 815 395 l 1,19,20
 713 324 713 324 586 324 c 0,21,22
 452 324 452 324 352 397 c 1,23,-1
 217 264 l 1,24,-1
 125 356 l 1,25,-1
 258 492 l 1,26,27
 184 599 184 599 184 723 c 0,0,1
313 723 m 256,28,29
 313 611 313 611 391.5 531 c 128,-1,30
 470 451 470 451 586 451 c 256,31,32
 702 451 702 451 781 530.5 c 128,-1,33
 860 610 860 610 860 723 c 0,34,35
 860 837 860 837 780 918 c 128,-1,36
 700 999 700 999 586 999 c 0,37,38
 470 999 470 999 391.5 917 c 128,-1,39
 313 835 313 835 313 723 c 256,28,29
EndSplineSet
EndChar

StartChar: yen
Encoding: 165 165 103
Width: 1171
GlyphClass: 2
Flags: W
LayerCount: 2
Fore
SplineSet
584 735 m 1,0,-1
 963 1462 l 1,1,-1
 1137 1462 l 1,2,-1
 721 692 l 1,3,-1
 983 692 l 1,4,-1
 983 565 l 1,5,-1
 666 565 l 1,6,-1
 666 395 l 1,7,-1
 983 395 l 1,8,-1
 983 268 l 1,9,-1
 666 268 l 1,10,-1
 666 0 l 1,11,-1
 502 0 l 1,12,-1
 502 268 l 1,13,-1
 186 268 l 1,14,-1
 186 395 l 1,15,-1
 502 395 l 1,16,-1
 502 565 l 1,17,-1
 186 565 l 1,18,-1
 186 692 l 1,19,-1
 442 692 l 1,20,-1
 31 1462 l 1,21,-1
 209 1462 l 1,22,-1
 584 735 l 1,0,-1
EndSplineSet
EndChar

StartChar: brokenbar
Encoding: 166 166 104
Width: 1128
GlyphClass: 2
Flags: W
LayerCount: 2
Fore
SplineSet
494 1556 m 1,0,-1
 635 1556 l 1,1,-1
 635 780 l 1,2,-1
 494 780 l 1,3,-1
 494 1556 l 1,0,-1
494 281 m 1,4,-1
 635 281 l 1,5,-1
 635 -496 l 1,6,-1
 494 -496 l 1,7,-1
 494 281 l 1,4,-1
EndSplineSet
EndChar

StartChar: section
Encoding: 167 167 105
Width: 1057
GlyphClass: 2
Flags: W
LayerCount: 2
Fore
SplineSet
139 809 m 0,0,1
 139 895 139 895 182 963.5 c 128,-1,2
 225 1032 225 1032 303 1069 c 1,3,4
 229 1109 229 1109 187 1164.5 c 128,-1,5
 145 1220 145 1220 145 1305 c 0,6,7
 145 1426 145 1426 248.5 1495.5 c 128,-1,8
 352 1565 352 1565 549 1565 c 0,9,10
 643 1565 643 1565 722.5 1550.5 c 128,-1,11
 802 1536 802 1536 899 1497 c 1,12,-1
 846 1366 l 1,13,14
 748 1405 748 1405 680.5 1418.5 c 128,-1,15
 613 1432 613 1432 537 1432 c 0,16,17
 421 1432 421 1432 363 1402.5 c 128,-1,18
 305 1373 305 1373 305 1309 c 0,19,20
 305 1249 305 1249 366.5 1207 c 128,-1,21
 428 1165 428 1165 582 1110 c 1,22,23
 768 1042 768 1042 843 966.5 c 128,-1,24
 918 891 918 891 918 784 c 0,25,26
 918 694 918 694 877 623.5 c 128,-1,27
 836 553 836 553 762 512 c 1,28,29
 915 431 915 431 915 285 c 0,30,31
 915 145 915 145 798 68.5 c 128,-1,32
 681 -8 681 -8 469 -8 c 0,33,34
 251 -8 251 -8 123 57 c 1,35,-1
 123 205 l 1,36,37
 201 168 201 168 298 145.5 c 128,-1,38
 395 123 395 123 477 123 c 0,39,40
 611 123 611 123 681.5 161 c 128,-1,41
 752 199 752 199 752 270 c 0,42,43
 752 316 752 316 728 345 c 128,-1,44
 704 374 704 374 650 403 c 128,-1,45
 596 432 596 432 481 475 c 0,46,47
 339 527 339 527 272 572 c 128,-1,48
 205 617 205 617 172 674 c 128,-1,49
 139 731 139 731 139 809 c 0,0,1
285 829 m 0,50,51
 285 752 285 752 351 699.5 c 128,-1,52
 417 647 417 647 584 586 c 1,53,-1
 633 567 l 1,54,55
 770 647 770 647 770 758 c 0,56,57
 770 841 770 841 696.5 897 c 128,-1,58
 623 953 623 953 438 1010 c 1,59,60
 370 991 370 991 327.5 941 c 128,-1,61
 285 891 285 891 285 829 c 0,50,51
EndSplineSet
EndChar

StartChar: dieresis
Encoding: 168 168 106
Width: 1182
GlyphClass: 2
Flags: W
LayerCount: 2
Fore
SplineSet
309 1393 m 0,0,1
 309 1445 309 1445 335.5 1468 c 128,-1,2
 362 1491 362 1491 399 1491 c 0,3,4
 437 1491 437 1491 464.5 1468 c 128,-1,5
 492 1445 492 1445 492 1393 c 0,6,7
 492 1343 492 1343 464.5 1318.5 c 128,-1,8
 437 1294 437 1294 399 1294 c 0,9,10
 362 1294 362 1294 335.5 1318.5 c 128,-1,11
 309 1343 309 1343 309 1393 c 0,0,1
690 1393 m 0,12,13
 690 1445 690 1445 716.5 1468 c 128,-1,14
 743 1491 743 1491 780 1491 c 256,15,16
 817 1491 817 1491 844.5 1468 c 128,-1,17
 872 1445 872 1445 872 1393 c 0,18,19
 872 1343 872 1343 844.5 1318.5 c 128,-1,20
 817 1294 817 1294 780 1294 c 256,21,22
 743 1294 743 1294 716.5 1318.5 c 128,-1,23
 690 1343 690 1343 690 1393 c 0,12,13
EndSplineSet
EndChar

StartChar: copyright
Encoding: 169 169 107
Width: 1704
GlyphClass: 2
Flags: W
LayerCount: 2
Fore
SplineSet
893 1059 m 0,0,1
 768 1059 768 1059 700.5 972 c 128,-1,2
 633 885 633 885 633 731 c 0,3,4
 633 563 633 563 696.5 482 c 128,-1,5
 760 401 760 401 891 401 c 0,6,7
 977 401 977 401 1102 446 c 1,8,-1
 1102 322 l 1,9,10
 1054 302 1054 302 1003.5 288 c 128,-1,11
 953 274 953 274 883 274 c 0,12,13
 689 274 689 274 585 394.5 c 128,-1,14
 481 515 481 515 481 731 c 0,15,16
 481 940 481 940 591.5 1063 c 128,-1,17
 702 1186 702 1186 893 1186 c 0,18,19
 1021 1186 1021 1186 1139 1126 c 1,20,-1
 1081 1008 l 1,21,22
 973 1059 973 1059 893 1059 c 0,0,1
100 731 m 0,23,24
 100 931 100 931 200 1106 c 128,-1,25
 300 1281 300 1281 475 1382 c 128,-1,26
 650 1483 650 1483 852 1483 c 0,27,28
 1052 1483 1052 1483 1227 1383 c 128,-1,29
 1402 1283 1402 1283 1503 1108 c 128,-1,30
 1604 933 1604 933 1604 731 c 0,31,32
 1604 534 1604 534 1507 361 c 128,-1,33
 1410 188 1410 188 1235 84 c 128,-1,34
 1060 -20 1060 -20 852 -20 c 0,35,36
 645 -20 645 -20 470 83.5 c 128,-1,37
 295 187 295 187 197.5 360 c 128,-1,38
 100 533 100 533 100 731 c 0,23,24
205 731 m 0,39,40
 205 558 205 558 292 407.5 c 128,-1,41
 379 257 379 257 529.5 170.5 c 128,-1,42
 680 84 680 84 852 84 c 0,43,44
 1026 84 1026 84 1175 171 c 128,-1,45
 1324 258 1324 258 1411.5 406.5 c 128,-1,46
 1499 555 1499 555 1499 731 c 0,47,48
 1499 905 1499 905 1412 1054 c 128,-1,49
 1325 1203 1325 1203 1176.5 1290.5 c 128,-1,50
 1028 1378 1028 1378 852 1378 c 0,51,52
 678 1378 678 1378 529 1291 c 128,-1,53
 380 1204 380 1204 292.5 1055.5 c 128,-1,54
 205 907 205 907 205 731 c 0,39,40
EndSplineSet
EndChar

StartChar: ordfeminine
Encoding: 170 170 108
Width: 725
GlyphClass: 2
Flags: W
LayerCount: 2
Fore
SplineSet
532 801 m 1,0,-1
 508 885 l 1,1,2
 416 788 416 788 276 788 c 0,3,4
 181 788 181 788 125.5 837.5 c 128,-1,5
 70 887 70 887 70 989 c 256,6,7
 70 1091 70 1091 147 1143.5 c 128,-1,8
 224 1196 224 1196 389 1202 c 2,9,-1
 506 1206 l 1,10,-1
 506 1245 l 2,11,12
 506 1378 506 1378 358 1378 c 0,13,14
 258 1378 258 1378 154 1327 c 1,15,-1
 111 1423 l 1,16,17
 225 1479 225 1479 358 1479 c 0,18,19
 488 1479 488 1479 556.5 1426.5 c 128,-1,20
 625 1374 625 1374 625 1253 c 2,21,-1
 625 801 l 1,22,-1
 532 801 l 1,0,-1
193 989 m 0,23,24
 193 889 193 889 305 889 c 0,25,26
 506 889 506 889 506 1069 c 2,27,-1
 506 1118 l 1,28,-1
 408 1114 l 2,29,30
 296 1110 296 1110 244.5 1081.5 c 128,-1,31
 193 1053 193 1053 193 989 c 0,23,24
EndSplineSet
EndChar

StartChar: guillemotleft
Encoding: 171 171 109
Width: 1018
GlyphClass: 2
Flags: W
LayerCount: 2
Fore
SplineSet
82 551 m 1,0,-1
 424 958 l 1,1,-1
 543 889 l 1,2,-1
 254 539 l 1,3,-1
 543 188 l 1,4,-1
 424 117 l 1,5,-1
 82 524 l 1,6,-1
 82 551 l 1,0,-1
477 551 m 1,7,-1
 821 958 l 1,8,-1
 938 889 l 1,9,-1
 651 539 l 1,10,-1
 938 188 l 1,11,-1
 821 117 l 1,12,-1
 477 524 l 1,13,-1
 477 551 l 1,7,-1
EndSplineSet
EndChar

StartChar: logicalnot
Encoding: 172 172 110
Width: 1171
GlyphClass: 2
Flags: W
LayerCount: 2
Fore
SplineSet
1065 791 m 1,0,-1
 1065 264 l 1,1,-1
 928 264 l 1,2,-1
 928 653 l 1,3,-1
 104 653 l 1,4,-1
 104 791 l 1,5,-1
 1065 791 l 1,0,-1
EndSplineSet
EndChar

StartChar: registered
Encoding: 174 174 112
Width: 1704
GlyphClass: 2
Flags: W
LayerCount: 2
Fore
SplineSet
723 762 m 1,0,-1
 831 762 l 2,1,2
 911 762 911 762 959.5 803.5 c 128,-1,3
 1008 845 1008 845 1008 909 c 0,4,5
 1008 984 1008 984 965 1016.5 c 128,-1,6
 922 1049 922 1049 829 1049 c 2,7,-1
 723 1049 l 1,8,-1
 723 762 l 1,0,-1
1157 913 m 0,9,10
 1157 833 1157 833 1114.5 771.5 c 128,-1,11
 1072 710 1072 710 995 680 c 1,12,-1
 1233 285 l 1,13,-1
 1065 285 l 1,14,-1
 858 639 l 1,15,-1
 723 639 l 1,16,-1
 723 285 l 1,17,-1
 575 285 l 1,18,-1
 575 1176 l 1,19,-1
 836 1176 l 2,20,21
 1002 1176 1002 1176 1079.5 1111 c 128,-1,22
 1157 1046 1157 1046 1157 913 c 0,9,10
100 731 m 0,23,24
 100 931 100 931 200 1106 c 128,-1,25
 300 1281 300 1281 475 1382 c 128,-1,26
 650 1483 650 1483 852 1483 c 0,27,28
 1052 1483 1052 1483 1227 1383 c 128,-1,29
 1402 1283 1402 1283 1503 1108 c 128,-1,30
 1604 933 1604 933 1604 731 c 0,31,32
 1604 534 1604 534 1507 361 c 128,-1,33
 1410 188 1410 188 1235 84 c 128,-1,34
 1060 -20 1060 -20 852 -20 c 0,35,36
 645 -20 645 -20 470 83.5 c 128,-1,37
 295 187 295 187 197.5 360 c 128,-1,38
 100 533 100 533 100 731 c 0,23,24
205 731 m 0,39,40
 205 558 205 558 292 407.5 c 128,-1,41
 379 257 379 257 529.5 170.5 c 128,-1,42
 680 84 680 84 852 84 c 0,43,44
 1026 84 1026 84 1175 171 c 128,-1,45
 1324 258 1324 258 1411.5 406.5 c 128,-1,46
 1499 555 1499 555 1499 731 c 0,47,48
 1499 905 1499 905 1412 1054 c 128,-1,49
 1325 1203 1325 1203 1176.5 1290.5 c 128,-1,50
 1028 1378 1028 1378 852 1378 c 0,51,52
 678 1378 678 1378 529 1291 c 128,-1,53
 380 1204 380 1204 292.5 1055.5 c 128,-1,54
 205 907 205 907 205 731 c 0,39,40
EndSplineSet
EndChar

StartChar: overscore
Encoding: 175 175 113
Width: 1024
GlyphClass: 2
Flags: W
LayerCount: 2
Fore
SplineSet
1030 1556 m 1,0,-1
 -6 1556 l 1,1,-1
 -6 1683 l 1,2,-1
 1030 1683 l 1,3,-1
 1030 1556 l 1,0,-1
EndSplineSet
EndChar

StartChar: degree
Encoding: 176 176 114
Width: 877
GlyphClass: 2
Flags: W
LayerCount: 2
Fore
SplineSet
127 1171 m 0,0,1
 127 1301 127 1301 217.5 1392 c 128,-1,2
 308 1483 308 1483 438 1483 c 256,3,4
 568 1483 568 1483 659 1392.5 c 128,-1,5
 750 1302 750 1302 750 1171 c 0,6,7
 750 1087 750 1087 709 1015.5 c 128,-1,8
 668 944 668 944 595 902 c 128,-1,9
 522 860 522 860 438 860 c 0,10,11
 308 860 308 860 217.5 950 c 128,-1,12
 127 1040 127 1040 127 1171 c 0,0,1
242 1171 m 0,13,14
 242 1089 242 1089 300.5 1032 c 128,-1,15
 359 975 359 975 440 975 c 0,16,17
 520 975 520 975 577.5 1031.5 c 128,-1,18
 635 1088 635 1088 635 1171 c 0,19,20
 635 1255 635 1255 578.5 1311.5 c 128,-1,21
 522 1368 522 1368 440 1368 c 0,22,23
 357 1368 357 1368 299.5 1311 c 128,-1,24
 242 1254 242 1254 242 1171 c 0,13,14
EndSplineSet
EndChar

StartChar: twosuperior
Encoding: 178 178 116
Width: 711
GlyphClass: 2
Flags: W
LayerCount: 2
Fore
SplineSet
653 586 m 1,0,-1
 49 586 l 1,1,-1
 49 690 l 1,2,-1
 285 920 l 2,3,4
 374 1006 374 1006 415 1054.5 c 128,-1,5
 456 1103 456 1103 472.5 1141 c 128,-1,6
 489 1179 489 1179 489 1233 c 0,7,8
 489 1301 489 1301 449 1335.5 c 128,-1,9
 409 1370 409 1370 346 1370 c 0,10,11
 294 1370 294 1370 245 1351 c 128,-1,12
 196 1332 196 1332 127 1282 c 1,13,-1
 61 1370 l 1,14,15
 192 1481 192 1481 344 1481 c 0,16,17
 476 1481 476 1481 549.5 1416 c 128,-1,18
 623 1351 623 1351 623 1239 c 0,19,20
 623 1159 623 1159 578.5 1083.5 c 128,-1,21
 534 1008 534 1008 387 870 c 1,22,-1
 213 705 l 1,23,-1
 653 705 l 1,24,-1
 653 586 l 1,0,-1
EndSplineSet
EndChar

StartChar: threesuperior
Encoding: 179 179 117
Width: 711
GlyphClass: 2
Flags: W
LayerCount: 2
Fore
SplineSet
627 1255 m 0,0,1
 627 1175 627 1175 586 1123.5 c 128,-1,2
 545 1072 545 1072 477 1049 c 1,3,4
 653 1002 653 1002 653 840 c 0,5,6
 653 712 653 712 561 640.5 c 128,-1,7
 469 569 469 569 301 569 c 0,8,9
 149 569 149 569 33 625 c 1,10,-1
 33 748 l 1,11,12
 180 680 180 680 303 680 c 0,13,14
 514 680 514 680 514 842 c 0,15,16
 514 987 514 987 283 987 c 2,17,-1
 166 987 l 1,18,-1
 166 1094 l 1,19,-1
 285 1094 l 2,20,21
 388 1094 388 1094 437.5 1133.5 c 128,-1,22
 487 1173 487 1173 487 1241 c 0,23,24
 487 1302 487 1302 447 1336 c 128,-1,25
 407 1370 407 1370 340 1370 c 0,26,27
 274 1370 274 1370 218 1348.5 c 128,-1,28
 162 1327 162 1327 106 1292 c 1,29,-1
 37 1382 l 1,30,31
 100 1427 100 1427 170 1454 c 128,-1,32
 240 1481 240 1481 334 1481 c 0,33,34
 470 1481 470 1481 548.5 1421.5 c 128,-1,35
 627 1362 627 1362 627 1255 c 0,0,1
EndSplineSet
EndChar

StartChar: acute
Encoding: 180 180 118
Width: 1182
GlyphClass: 2
Flags: W
LayerCount: 2
Fore
SplineSet
393 1266 m 1,0,1
 441 1328 441 1328 496.5 1416 c 128,-1,2
 552 1504 552 1504 584 1569 c 1,3,-1
 786 1569 l 1,4,-1
 786 1548 l 1,5,6
 742 1483 742 1483 655 1388 c 128,-1,7
 568 1293 568 1293 504 1241 c 1,8,-1
 393 1241 l 1,9,-1
 393 1266 l 1,0,1
EndSplineSet
EndChar

StartChar: mu
Encoding: 181 181 119
Width: 1268
GlyphClass: 2
Flags: W
LayerCount: 2
Fore
SplineSet
342 381 m 2,0,1
 342 119 342 119 596 119 c 0,2,3
 767 119 767 119 846.5 213.5 c 128,-1,4
 926 308 926 308 926 520 c 2,5,-1
 926 1096 l 1,6,-1
 1092 1096 l 1,7,-1
 1092 0 l 1,8,-1
 956 0 l 1,9,-1
 930 147 l 1,10,-1
 920 147 l 1,11,12
 809 -20 809 -20 580 -20 c 0,13,14
 430 -20 430 -20 342 72 c 1,15,-1
 332 72 l 1,16,17
 342 -12 342 -12 342 -172 c 2,18,-1
 342 -492 l 1,19,-1
 176 -492 l 1,20,-1
 176 1096 l 1,21,-1
 342 1096 l 1,22,-1
 342 381 l 2,0,1
EndSplineSet
EndChar

StartChar: paragraph
Encoding: 182 182 120
Width: 1341
GlyphClass: 2
Flags: W
LayerCount: 2
Fore
SplineSet
1120 -260 m 1,0,-1
 1006 -260 l 1,1,-1
 1006 1452 l 1,2,-1
 793 1452 l 1,3,-1
 793 -260 l 1,4,-1
 678 -260 l 1,5,-1
 678 559 l 1,6,7
 616 541 616 541 532 541 c 0,8,9
 316 541 316 541 214.5 666 c 128,-1,10
 113 791 113 791 113 1042 c 0,11,12
 113 1302 113 1302 222 1429 c 128,-1,13
 331 1556 331 1556 563 1556 c 2,14,-1
 1120 1556 l 1,15,-1
 1120 -260 l 1,0,-1
EndSplineSet
EndChar

StartChar: periodcentered
Encoding: 183 183 121
Width: 545
GlyphClass: 2
Flags: W
LayerCount: 2
Fore
SplineSet
152 723 m 0,0,1
 152 789 152 789 183 823.5 c 128,-1,2
 214 858 214 858 270 858 c 0,3,4
 328 858 328 858 360.5 823.5 c 128,-1,5
 393 789 393 789 393 723 c 0,6,7
 393 658 393 658 360 623 c 128,-1,8
 327 588 327 588 270 588 c 0,9,10
 219 588 219 588 185.5 619.5 c 128,-1,11
 152 651 152 651 152 723 c 0,0,1
EndSplineSet
EndChar

StartChar: cedilla
Encoding: 184 184 122
Width: 465
GlyphClass: 2
Flags: W
LayerCount: 2
Fore
SplineSet
436 -289 m 0,0,1
 436 -386 436 -386 359.5 -439 c 128,-1,2
 283 -492 283 -492 133 -492 c 0,3,4
 82 -492 82 -492 37 -483 c 1,5,-1
 37 -377 l 1,6,7
 82 -385 82 -385 141 -385 c 0,8,9
 220 -385 220 -385 260.5 -365 c 128,-1,10
 301 -345 301 -345 301 -291 c 0,11,12
 301 -248 301 -248 261.5 -221.5 c 128,-1,13
 222 -195 222 -195 113 -178 c 1,14,-1
 201 0 l 1,15,-1
 311 0 l 1,16,-1
 256 -115 l 1,17,18
 436 -154 436 -154 436 -289 c 0,0,1
EndSplineSet
EndChar

StartChar: onesuperior
Encoding: 185 185 123
Width: 711
GlyphClass: 2
Flags: W
LayerCount: 2
Fore
SplineSet
338 1462 m 1,0,-1
 481 1462 l 1,1,-1
 481 586 l 1,2,-1
 348 586 l 1,3,-1
 348 1165 l 2,4,5
 348 1256 348 1256 354 1346 c 1,6,7
 332 1324 332 1324 305 1301.5 c 128,-1,8
 278 1279 278 1279 143 1184 c 1,9,-1
 76 1280 l 1,10,-1
 338 1462 l 1,0,-1
EndSplineSet
EndChar

StartChar: ordmasculine
Encoding: 186 186 124
Width: 768
GlyphClass: 2
Flags: W
LayerCount: 2
Fore
SplineSet
702 1135 m 0,0,1
 702 971 702 971 616.5 879.5 c 128,-1,2
 531 788 531 788 381 788 c 0,3,4
 235 788 235 788 150.5 881 c 128,-1,5
 66 974 66 974 66 1135 c 0,6,7
 66 1298 66 1298 150 1388.5 c 128,-1,8
 234 1479 234 1479 385 1479 c 0,9,10
 537 1479 537 1479 619.5 1388 c 128,-1,11
 702 1297 702 1297 702 1135 c 0,0,1
188 1135 m 0,12,13
 188 1013 188 1013 233.5 952 c 128,-1,14
 279 891 279 891 383 891 c 0,15,16
 488 891 488 891 534 952 c 128,-1,17
 580 1013 580 1013 580 1135 c 0,18,19
 580 1258 580 1258 534 1317 c 128,-1,20
 488 1376 488 1376 383 1376 c 0,21,22
 280 1376 280 1376 234 1317 c 128,-1,23
 188 1258 188 1258 188 1135 c 0,12,13
EndSplineSet
EndChar

StartChar: guillemotright
Encoding: 187 187 125
Width: 1018
GlyphClass: 2
Flags: W
LayerCount: 2
Fore
SplineSet
936 524 m 1,0,-1
 592 117 l 1,1,-1
 475 188 l 1,2,-1
 762 539 l 1,3,-1
 475 889 l 1,4,-1
 592 958 l 1,5,-1
 936 551 l 1,6,-1
 936 524 l 1,0,-1
541 524 m 1,7,-1
 197 117 l 1,8,-1
 80 188 l 1,9,-1
 367 539 l 1,10,-1
 80 889 l 1,11,-1
 197 958 l 1,12,-1
 541 551 l 1,13,-1
 541 524 l 1,7,-1
EndSplineSet
EndChar

StartChar: questiondown
Encoding: 191 191 129
Width: 879
GlyphClass: 2
Flags: W
LayerCount: 2
Fore
SplineSet
590 684 m 1,0,-1
 590 633 l 2,1,2
 590 511 590 511 552.5 437 c 128,-1,3
 515 363 515 363 418 279 c 0,4,5
 297 173 297 173 266.5 135.5 c 128,-1,6
 236 98 236 98 223.5 59.5 c 128,-1,7
 211 21 211 21 211 -35 c 0,8,9
 211 -135 211 -135 277 -191.5 c 128,-1,10
 343 -248 343 -248 465 -248 c 0,11,12
 545 -248 545 -248 620 -229 c 128,-1,13
 695 -210 695 -210 793 -162 c 1,14,-1
 852 -297 l 1,15,16
 655 -393 655 -393 457 -393 c 0,17,18
 267 -393 267 -393 159 -300 c 128,-1,19
 51 -207 51 -207 51 -37 c 0,20,21
 51 33 51 33 68.5 85.5 c 128,-1,22
 86 138 86 138 118 182.5 c 128,-1,23
 150 227 150 227 194.5 268 c 128,-1,24
 239 309 239 309 293 356 c 0,25,26
 394 444 394 444 426.5 502 c 128,-1,27
 459 560 459 560 459 653 c 2,28,-1
 459 684 l 1,29,-1
 590 684 l 1,0,-1
639 983 m 0,30,31
 639 848 639 848 518 848 c 0,32,33
 459 848 459 848 428 882.5 c 128,-1,34
 397 917 397 917 397 983 c 0,35,36
 397 1047 397 1047 430 1082.5 c 128,-1,37
 463 1118 463 1118 518 1118 c 0,38,39
 569 1118 569 1118 604 1086 c 128,-1,40
 639 1054 639 1054 639 983 c 0,30,31
EndSplineSet
EndChar

StartChar: AE
Encoding: 198 198 136
Width: 1788
GlyphClass: 2
Flags: W
LayerCount: 2
Fore
SplineSet
1665 0 m 1,0,-1
 915 0 l 1,1,-1
 915 465 l 1,2,-1
 401 465 l 1,3,-1
 174 0 l 1,4,-1
 -2 0 l 1,5,-1
 696 1462 l 1,6,-1
 1665 1462 l 1,7,-1
 1665 1311 l 1,8,-1
 1085 1311 l 1,9,-1
 1085 840 l 1,10,-1
 1626 840 l 1,11,-1
 1626 690 l 1,12,-1
 1085 690 l 1,13,-1
 1085 152 l 1,14,-1
 1665 152 l 1,15,-1
 1665 0 l 1,0,-1
469 618 m 1,16,-1
 915 618 l 1,17,-1
 915 1311 l 1,18,-1
 797 1311 l 1,19,-1
 469 618 l 1,16,-1
EndSplineSet
EndChar

StartChar: Eth
Encoding: 208 208 146
Width: 1479
GlyphClass: 2
Flags: W
LayerCount: 2
Fore
SplineSet
1352 745 m 0,0,1
 1352 383 1352 383 1155.5 191.5 c 128,-1,2
 959 0 959 0 590 0 c 2,3,-1
 201 0 l 1,4,-1
 201 649 l 1,5,-1
 47 649 l 1,6,-1
 47 799 l 1,7,-1
 201 799 l 1,8,-1
 201 1462 l 1,9,-1
 635 1462 l 2,10,11
 972 1462 972 1462 1162 1274.5 c 128,-1,12
 1352 1087 1352 1087 1352 745 c 0,0,1
1171 739 m 0,13,14
 1171 1315 1171 1315 602 1315 c 2,15,-1
 371 1315 l 1,16,-1
 371 799 l 1,17,-1
 750 799 l 1,18,-1
 750 649 l 1,19,-1
 371 649 l 1,20,-1
 371 147 l 1,21,-1
 561 147 l 2,22,23
 1171 147 1171 147 1171 739 c 0,13,14
EndSplineSet
EndChar

StartChar: multiply
Encoding: 215 215 153
Width: 1171
GlyphClass: 2
Flags: W
LayerCount: 2
Fore
SplineSet
940 1176 m 1,0,-1
 1036 1077 l 1,1,-1
 684 723 l 1,2,-1
 1034 371 l 1,3,-1
 938 272 l 1,4,-1
 584 623 l 1,5,-1
 236 272 l 1,6,-1
 135 371 l 1,7,-1
 485 723 l 1,8,-1
 133 1075 l 1,9,-1
 233 1176 l 1,10,-1
 586 821 l 1,11,-1
 940 1176 l 1,0,-1
EndSplineSet
EndChar

StartChar: Oslash
Encoding: 216 216 154
Width: 1595
GlyphClass: 2
Flags: W
LayerCount: 2
Fore
SplineSet
1470 733 m 0,0,1
 1470 382 1470 382 1292.5 181 c 128,-1,2
 1115 -20 1115 -20 799 -20 c 0,3,4
 564 -20 564 -20 416 80 c 1,5,-1
 315 -61 l 1,6,-1
 195 18 l 1,7,-1
 303 172 l 1,8,9
 125 370 125 370 125 735 c 0,10,11
 125 1092 125 1092 301 1288.5 c 128,-1,12
 477 1485 477 1485 801 1485 c 0,13,14
 1010 1485 1010 1485 1167 1391 c 1,15,-1
 1264 1526 l 1,16,-1
 1384 1446 l 1,17,-1
 1278 1298 l 1,18,19
 1470 1096 1470 1096 1470 733 c 0,0,1
1290 733 m 0,20,21
 1290 1005 1290 1005 1180 1159 c 1,22,-1
 508 211 l 1,23,24
 623 129 623 129 799 129 c 0,25,26
 1042 129 1042 129 1166 282 c 128,-1,27
 1290 435 1290 435 1290 733 c 0,20,21
305 733 m 0,28,29
 305 471 305 471 406 317 c 1,30,-1
 1075 1260 l 1,31,32
 969 1333 969 1333 801 1333 c 0,33,34
 558 1333 558 1333 431.5 1179.5 c 128,-1,35
 305 1026 305 1026 305 733 c 0,28,29
EndSplineSet
EndChar

StartChar: Thorn
Encoding: 222 222 160
Width: 1251
GlyphClass: 2
Flags: W
LayerCount: 2
Fore
SplineSet
1145 784 m 0,0,1
 1145 557 1145 557 993.5 438 c 128,-1,2
 842 319 842 319 555 319 c 2,3,-1
 371 319 l 1,4,-1
 371 0 l 1,5,-1
 201 0 l 1,6,-1
 201 1462 l 1,7,-1
 371 1462 l 1,8,-1
 371 1206 l 1,9,-1
 586 1206 l 2,10,11
 867 1206 867 1206 1006 1102.5 c 128,-1,12
 1145 999 1145 999 1145 784 c 0,0,1
371 465 m 1,13,-1
 539 465 l 2,14,15
 765 465 765 465 866 536.5 c 128,-1,16
 967 608 967 608 967 772 c 0,17,18
 967 921 967 921 872 990 c 128,-1,19
 777 1059 777 1059 575 1059 c 2,20,-1
 371 1059 l 1,21,-1
 371 465 l 1,13,-1
EndSplineSet
EndChar

StartChar: germandbls
Encoding: 223 223 161
Width: 1274
GlyphClass: 2
Flags: W
LayerCount: 2
Fore
SplineSet
1049 1266 m 0,0,1
 1049 1131 1049 1131 906 1016 c 0,2,3
 818 946 818 946 790 912.5 c 128,-1,4
 762 879 762 879 762 846 c 0,5,6
 762 814 762 814 775.5 793 c 128,-1,7
 789 772 789 772 824.5 743.5 c 128,-1,8
 860 715 860 715 938 664 c 1,9,10
 1078 569 1078 569 1129 490.5 c 128,-1,11
 1180 412 1180 412 1180 311 c 0,12,13
 1180 151 1180 151 1083 65.5 c 128,-1,14
 986 -20 986 -20 807 -20 c 0,15,16
 619 -20 619 -20 512 49 c 1,17,-1
 512 203 l 1,18,19
 575 164 575 164 653 140.5 c 128,-1,20
 731 117 731 117 803 117 c 0,21,22
 1018 117 1018 117 1018 299 c 0,23,24
 1018 374 1018 374 976.5 427.5 c 128,-1,25
 935 481 935 481 825 551 c 0,26,27
 698 633 698 633 650 694.5 c 128,-1,28
 602 756 602 756 602 840 c 0,29,30
 602 903 602 903 636.5 956 c 128,-1,31
 671 1009 671 1009 742 1062 c 0,32,33
 817 1119 817 1119 849 1164 c 128,-1,34
 881 1209 881 1209 881 1262 c 0,35,36
 881 1342 881 1342 813 1384.5 c 128,-1,37
 745 1427 745 1427 618 1427 c 0,38,39
 342 1427 342 1427 342 1204 c 2,40,-1
 342 0 l 1,41,-1
 176 0 l 1,42,-1
 176 1202 l 2,43,44
 176 1380 176 1380 286 1473.5 c 128,-1,45
 396 1567 396 1567 618 1567 c 0,46,47
 824 1567 824 1567 936.5 1488.5 c 128,-1,48
 1049 1410 1049 1410 1049 1266 c 0,0,1
EndSplineSet
EndChar

StartChar: ae
Encoding: 230 230 168
Width: 1757
GlyphClass: 2
Flags: W
LayerCount: 2
Fore
SplineSet
94 303 m 0,0,1
 94 464 94 464 218 553.5 c 128,-1,2
 342 643 342 643 596 651 c 2,3,-1
 780 657 l 1,4,-1
 780 725 l 2,5,6
 780 854 780 854 722 915.5 c 128,-1,7
 664 977 664 977 545 977 c 0,8,9
 401 977 401 977 238 893 c 1,10,-1
 186 1020 l 1,11,12
 260 1061 260 1061 359.5 1087.5 c 128,-1,13
 459 1114 459 1114 557 1114 c 0,14,15
 687 1114 687 1114 769.5 1070.5 c 128,-1,16
 852 1027 852 1027 893 932 c 1,17,18
 946 1020 946 1020 1031.5 1068 c 128,-1,19
 1117 1116 1117 1116 1227 1116 c 0,20,21
 1419 1116 1419 1116 1535 982.5 c 128,-1,22
 1651 849 1651 849 1651 627 c 2,23,-1
 1651 520 l 1,24,-1
 950 520 l 1,25,26
 958 125 958 125 1272 125 c 0,27,28
 1363 125 1363 125 1441.5 142.5 c 128,-1,29
 1520 160 1520 160 1604 199 c 1,30,-1
 1604 51 l 1,31,32
 1518 13 1518 13 1443.5 -3.5 c 128,-1,33
 1369 -20 1369 -20 1268 -20 c 0,34,35
 979 -20 979 -20 854 213 c 1,36,37
 773 86 773 86 674.5 33 c 128,-1,38
 576 -20 576 -20 442 -20 c 0,39,40
 279 -20 279 -20 186.5 65 c 128,-1,41
 94 150 94 150 94 303 c 0,0,1
268 301 m 0,42,43
 268 206 268 206 321.5 161.5 c 128,-1,44
 375 117 375 117 463 117 c 0,45,46
 608 117 608 117 692 201.5 c 128,-1,47
 776 286 776 286 776 440 c 2,48,-1
 776 539 l 1,49,-1
 618 532 l 2,50,51
 432 524 432 524 350 469.5 c 128,-1,52
 268 415 268 415 268 301 c 0,42,43
1225 977 m 0,53,54
 1104 977 1104 977 1034.5 894 c 128,-1,55
 965 811 965 811 954 653 c 1,56,-1
 1473 653 l 1,57,58
 1473 809 1473 809 1409 893 c 128,-1,59
 1345 977 1345 977 1225 977 c 0,53,54
EndSplineSet
EndChar

StartChar: eth
Encoding: 240 240 178
Width: 1221
GlyphClass: 2
Flags: W
LayerCount: 2
Fore
SplineSet
1122 563 m 0,0,1
 1122 282 1122 282 991.5 131 c 128,-1,2
 861 -20 861 -20 614 -20 c 0,3,4
 392 -20 392 -20 252.5 114.5 c 128,-1,5
 113 249 113 249 113 475 c 0,6,7
 113 705 113 705 244.5 836 c 128,-1,8
 376 967 376 967 596 967 c 0,9,10
 822 967 822 967 922 846 c 1,11,-1
 930 850 l 1,12,13
 873 1064 873 1064 668 1255 c 1,14,-1
 397 1100 l 1,15,-1
 324 1208 l 1,16,-1
 557 1341 l 1,17,18
 465 1403 465 1403 371 1452 c 1,19,-1
 440 1569 l 1,20,21
 596 1496 596 1496 698 1421 c 1,22,-1
 936 1559 l 1,23,-1
 1012 1452 l 1,24,-1
 805 1333 l 1,25,26
 957 1190 957 1190 1039.5 991 c 128,-1,27
 1122 792 1122 792 1122 563 c 0,0,1
954 512 m 0,28,29
 954 659 954 659 864 744 c 128,-1,30
 774 829 774 829 618 829 c 0,31,32
 281 829 281 829 281 469 c 0,33,34
 281 302 281 302 368.5 210.5 c 128,-1,35
 456 119 456 119 618 119 c 0,36,37
 793 119 793 119 873.5 219.5 c 128,-1,38
 954 320 954 320 954 512 c 0,28,29
EndSplineSet
EndChar

StartChar: divide
Encoding: 247 247 185
Width: 1171
GlyphClass: 2
Flags: W
LayerCount: 2
Fore
SplineSet
104 653 m 1,0,-1
 104 791 l 1,1,-1
 1065 791 l 1,2,-1
 1065 653 l 1,3,-1
 104 653 l 1,0,-1
471 373 m 0,4,5
 471 433 471 433 500.5 463.5 c 128,-1,6
 530 494 530 494 584 494 c 0,7,8
 636 494 636 494 665 462.5 c 128,-1,9
 694 431 694 431 694 373 c 0,10,11
 694 316 694 316 664.5 284 c 128,-1,12
 635 252 635 252 584 252 c 0,13,14
 532 252 532 252 501.5 283.5 c 128,-1,15
 471 315 471 315 471 373 c 0,4,5
471 1071 m 0,16,17
 471 1131 471 1131 500.5 1161.5 c 128,-1,18
 530 1192 530 1192 584 1192 c 0,19,20
 636 1192 636 1192 665 1160.5 c 128,-1,21
 694 1129 694 1129 694 1071 c 0,22,23
 694 1014 694 1014 664.5 982 c 128,-1,24
 635 950 635 950 584 950 c 0,25,26
 532 950 532 950 501.5 981.5 c 128,-1,27
 471 1013 471 1013 471 1071 c 0,16,17
EndSplineSet
EndChar

StartChar: oslash
Encoding: 248 248 186
Width: 1237
GlyphClass: 2
Flags: W
LayerCount: 2
Fore
SplineSet
1122 549 m 0,0,1
 1122 281 1122 281 987 130.5 c 128,-1,2
 852 -20 852 -20 614 -20 c 0,3,4
 460 -20 460 -20 348 49 c 1,5,-1
 264 -68 l 1,6,-1
 150 10 l 1,7,-1
 244 141 l 1,8,9
 115 293 115 293 115 549 c 0,10,11
 115 817 115 817 249 966.5 c 128,-1,12
 383 1116 383 1116 621 1116 c 0,13,14
 775 1116 775 1116 891 1040 c 1,15,-1
 975 1159 l 1,16,-1
 1092 1083 l 1,17,-1
 995 950 l 1,18,19
 1122 798 1122 798 1122 549 c 0,0,1
287 549 m 0,20,21
 287 378 287 378 340 276 c 1,22,-1
 805 922 l 1,23,24
 730 975 730 975 616 975 c 0,25,26
 453 975 453 975 370 868 c 128,-1,27
 287 761 287 761 287 549 c 0,20,21
950 549 m 0,28,29
 950 713 950 713 899 813 c 1,30,-1
 434 170 l 1,31,32
 505 119 505 119 618 119 c 0,33,34
 781 119 781 119 865.5 228.5 c 128,-1,35
 950 338 950 338 950 549 c 0,28,29
EndSplineSet
EndChar

StartChar: thorn
Encoding: 254 254 192
Width: 1255
GlyphClass: 2
Flags: W
LayerCount: 2
Fore
SplineSet
344 948 m 1,0,1
 410 1037 410 1037 495 1076.5 c 128,-1,2
 580 1116 580 1116 686 1116 c 0,3,4
 901 1116 901 1116 1021 966 c 128,-1,5
 1141 816 1141 816 1141 549 c 0,6,7
 1141 281 1141 281 1020.5 130.5 c 128,-1,8
 900 -20 900 -20 686 -20 c 0,9,10
 464 -20 464 -20 342 141 c 1,11,-1
 330 141 l 1,12,-1
 334 107 l 1,13,14
 342 30 342 30 342 -33 c 2,15,-1
 342 -492 l 1,16,-1
 176 -492 l 1,17,-1
 176 1556 l 1,18,-1
 342 1556 l 1,19,-1
 342 1090 l 2,20,21
 342 1038 342 1038 336 948 c 1,22,-1
 344 948 l 1,0,1
664 975 m 0,23,24
 496 975 496 975 420 883 c 128,-1,25
 344 791 344 791 342 590 c 1,26,-1
 342 549 l 2,27,28
 342 318 342 318 419 218.5 c 128,-1,29
 496 119 496 119 666 119 c 0,30,31
 969 119 969 119 969 551 c 0,32,33
 969 766 969 766 895 870.5 c 128,-1,34
 821 975 821 975 664 975 c 0,23,24
EndSplineSet
EndChar

StartChar: dcroat
Encoding: 273 273 211
Width: 1255
GlyphClass: 2
Flags: W
LayerCount: 2
Fore
SplineSet
922 147 m 1,0,-1
 913 147 l 1,1,2
 798 -20 798 -20 569 -20 c 0,3,4
 354 -20 354 -20 234.5 127 c 128,-1,5
 115 274 115 274 115 545 c 256,6,7
 115 816 115 816 235 966 c 128,-1,8
 355 1116 355 1116 569 1116 c 0,9,10
 792 1116 792 1116 911 954 c 1,11,-1
 924 954 l 1,12,13
 913 1037 913 1037 913 1110 c 2,14,-1
 913 1243 l 1,15,-1
 465 1243 l 1,16,-1
 465 1372 l 1,17,-1
 913 1372 l 1,18,-1
 913 1556 l 1,19,-1
 1079 1556 l 1,20,-1
 1079 1372 l 1,21,-1
 1235 1372 l 1,22,-1
 1235 1243 l 1,23,-1
 1079 1243 l 1,24,-1
 1079 0 l 1,25,-1
 944 0 l 1,26,-1
 922 147 l 1,0,-1
590 119 m 0,27,28
 760 119 760 119 836.5 211.5 c 128,-1,29
 913 304 913 304 913 510 c 2,30,-1
 913 545 l 2,31,32
 913 778 913 778 835.5 877.5 c 128,-1,33
 758 977 758 977 588 977 c 0,34,35
 442 977 442 977 364.5 863.5 c 128,-1,36
 287 750 287 750 287 543 c 0,37,38
 287 333 287 333 364 226 c 128,-1,39
 441 119 441 119 590 119 c 0,27,28
EndSplineSet
EndChar

StartChar: Hbar
Encoding: 294 294 232
Width: 1511
GlyphClass: 2
Flags: W
LayerCount: 2
Fore
SplineSet
201 1214 m 1,0,-1
 201 1462 l 1,1,-1
 371 1462 l 1,2,-1
 371 1214 l 1,3,-1
 1141 1214 l 1,4,-1
 1141 1462 l 1,5,-1
 1311 1462 l 1,6,-1
 1311 1214 l 1,7,-1
 1511 1214 l 1,8,-1
 1511 1073 l 1,9,-1
 1311 1073 l 1,10,-1
 1311 0 l 1,11,-1
 1141 0 l 1,12,-1
 1141 688 l 1,13,-1
 371 688 l 1,14,-1
 371 0 l 1,15,-1
 201 0 l 1,16,-1
 201 1073 l 1,17,-1
 0 1073 l 1,18,-1
 0 1214 l 1,19,-1
 201 1214 l 1,0,-1
1141 840 m 1,20,-1
 1141 1073 l 1,21,-1
 371 1073 l 1,22,-1
 371 840 l 1,23,-1
 1141 840 l 1,20,-1
EndSplineSet
EndChar

StartChar: hbar
Encoding: 295 295 233
Width: 1257
GlyphClass: 2
Flags: W
LayerCount: 2
Fore
SplineSet
926 0 m 1,0,-1
 926 670 l 2,1,2
 926 804 926 804 865 870 c 128,-1,3
 804 936 804 936 674 936 c 0,4,5
 500 936 500 936 421 843 c 128,-1,6
 342 750 342 750 342 537 c 2,7,-1
 342 0 l 1,8,-1
 176 0 l 1,9,-1
 176 1243 l 1,10,-1
 20 1243 l 1,11,-1
 20 1370 l 1,12,-1
 176 1370 l 1,13,-1
 176 1556 l 1,14,-1
 342 1556 l 1,15,-1
 342 1370 l 1,16,-1
 791 1370 l 1,17,-1
 791 1243 l 1,18,-1
 342 1243 l 1,19,-1
 342 1047 l 2,20,21
 342 963 342 963 334 907 c 1,22,-1
 344 907 l 1,23,24
 393 986 393 986 483.5 1031.5 c 128,-1,25
 574 1077 574 1077 690 1077 c 0,26,27
 891 1077 891 1077 991.5 981.5 c 128,-1,28
 1092 886 1092 886 1092 676 c 2,29,-1
 1092 0 l 1,30,-1
 926 0 l 1,0,-1
EndSplineSet
EndChar

StartChar: dotlessi
Encoding: 305 305 243
Width: 518
GlyphClass: 2
Flags: W
LayerCount: 2
Fore
SplineSet
342 0 m 1,0,-1
 176 0 l 1,1,-1
 176 1096 l 1,2,-1
 342 1096 l 1,3,-1
 342 0 l 1,0,-1
EndSplineSet
EndChar

StartChar: kgreenlandic
Encoding: 312 312 250
Width: 1061
GlyphClass: 2
Flags: W
LayerCount: 2
Fore
SplineSet
815 1094 m 1,0,-1
 1022 1094 l 1,1,-1
 608 612 l 1,2,-1
 1051 0 l 1,3,-1
 850 0 l 1,4,-1
 489 504 l 1,5,-1
 354 391 l 1,6,-1
 354 0 l 1,7,-1
 176 0 l 1,8,-1
 176 1094 l 1,9,-1
 354 1094 l 1,10,-1
 354 811 l 2,11,12
 354 645 354 645 342 532 c 1,13,-1
 815 1094 l 1,0,-1
EndSplineSet
EndChar

StartChar: Lslash
Encoding: 321 321 259
Width: 1071
GlyphClass: 2
Flags: W
LayerCount: 2
Fore
SplineSet
201 0 m 1,0,-1
 201 508 l 1,1,-1
 96 449 l 1,2,-1
 29 563 l 1,3,-1
 201 664 l 1,4,-1
 201 1462 l 1,5,-1
 371 1462 l 1,6,-1
 371 764 l 1,7,-1
 668 938 l 1,8,-1
 735 817 l 1,9,-1
 371 606 l 1,10,-1
 371 154 l 1,11,-1
 1016 154 l 1,12,-1
 1016 0 l 1,13,-1
 201 0 l 1,0,-1
EndSplineSet
EndChar

StartChar: lslash
Encoding: 322 322 260
Width: 535
GlyphClass: 2
Flags: W
LayerCount: 2
Fore
SplineSet
342 864 m 1,0,-1
 479 958 l 1,1,-1
 551 846 l 1,2,-1
 342 705 l 1,3,-1
 342 0 l 1,4,-1
 176 0 l 1,5,-1
 176 596 l 1,6,-1
 66 524 l 1,7,-1
 -4 637 l 1,8,-1
 176 756 l 1,9,-1
 176 1556 l 1,10,-1
 342 1556 l 1,11,-1
 342 864 l 1,0,-1
EndSplineSet
EndChar

StartChar: Eng
Encoding: 330 330 268
Width: 1544
GlyphClass: 2
Flags: W
LayerCount: 2
Fore
SplineSet
969 -385 m 0,0,1
 871 -385 871 -385 817 -358 c 1,2,-1
 817 -213 l 1,3,4
 888 -233 888 -233 971 -233 c 0,5,6
 1076 -233 1076 -233 1129 -172 c 128,-1,7
 1182 -111 1182 -111 1182 0 c 1,8,-1
 350 1227 l 1,9,-1
 342 1227 l 1,10,11
 358 963 358 963 358 805 c 2,12,-1
 358 0 l 1,13,-1
 201 0 l 1,14,-1
 201 1462 l 1,15,-1
 393 1462 l 1,16,-1
 1190 260 l 1,17,-1
 1198 260 l 1,18,19
 1184 409 1184 409 1184 633 c 2,20,-1
 1184 1462 l 1,21,-1
 1343 1462 l 1,22,-1
 1343 14 l 2,23,24
 1343 -181 1343 -181 1246.5 -283 c 128,-1,25
 1150 -385 1150 -385 969 -385 c 0,0,1
EndSplineSet
EndChar

StartChar: eng
Encoding: 331 331 269
Width: 1257
GlyphClass: 2
Flags: W
LayerCount: 2
Fore
SplineSet
805 -492 m 0,0,1
 719 -492 719 -492 664 -467 c 1,2,-1
 664 -332 l 1,3,4
 724 -352 724 -352 786 -352 c 0,5,6
 926 -352 926 -352 926 -180 c 2,7,-1
 926 709 l 2,8,9
 926 843 926 843 865 909 c 128,-1,10
 804 975 804 975 674 975 c 0,11,12
 502 975 502 975 422 882 c 128,-1,13
 342 789 342 789 342 575 c 2,14,-1
 342 0 l 1,15,-1
 176 0 l 1,16,-1
 176 1096 l 1,17,-1
 311 1096 l 1,18,-1
 338 946 l 1,19,-1
 348 946 l 1,20,21
 400 1028 400 1028 490 1072 c 128,-1,22
 580 1116 580 1116 690 1116 c 0,23,24
 893 1116 893 1116 992.5 1020.5 c 128,-1,25
 1092 925 1092 925 1092 715 c 2,26,-1
 1092 -168 l 2,27,28
 1092 -322 1092 -322 1022 -407 c 128,-1,29
 952 -492 952 -492 805 -492 c 0,0,1
EndSplineSet
EndChar

StartChar: OE
Encoding: 338 338 276
Width: 1890
GlyphClass: 2
Flags: W
LayerCount: 2
Fore
SplineSet
1767 0 m 1,0,-1
 999 0 l 1,1,2
 897 -20 897 -20 805 -20 c 0,3,4
 478 -20 478 -20 301.5 176.5 c 128,-1,5
 125 373 125 373 125 735 c 0,6,7
 125 1095 125 1095 299 1290 c 128,-1,8
 473 1485 473 1485 793 1485 c 0,9,10
 895 1485 895 1485 985 1462 c 1,11,-1
 1767 1462 l 1,12,-1
 1767 1311 l 1,13,-1
 1178 1311 l 1,14,-1
 1178 840 l 1,15,-1
 1729 840 l 1,16,-1
 1729 690 l 1,17,-1
 1178 690 l 1,18,-1
 1178 152 l 1,19,-1
 1767 152 l 1,20,-1
 1767 0 l 1,0,-1
811 1333 m 0,21,22
 562 1333 562 1333 433.5 1180.5 c 128,-1,23
 305 1028 305 1028 305 733 c 0,24,25
 305 436 305 436 433.5 282.5 c 128,-1,26
 562 129 562 129 809 129 c 0,27,28
 921 129 921 129 1008 162 c 1,29,-1
 1008 1303 l 1,30,31
 921 1333 921 1333 811 1333 c 0,21,22
EndSplineSet
EndChar

StartChar: oe
Encoding: 339 339 277
Width: 1929
GlyphClass: 2
Flags: W
LayerCount: 2
Fore
SplineSet
1430 -20 m 0,0,1
 1137 -20 1137 -20 1012 215 c 1,2,3
 950 99 950 99 845.5 39.5 c 128,-1,4
 741 -20 741 -20 604 -20 c 0,5,6
 381 -20 381 -20 247 132.5 c 128,-1,7
 113 285 113 285 113 549 c 0,8,9
 113 814 113 814 244 964 c 128,-1,10
 375 1114 375 1114 610 1114 c 0,11,12
 741 1114 741 1114 843.5 1054.5 c 128,-1,13
 946 995 946 995 1008 881 c 1,14,15
 1066 993 1066 993 1162 1053.5 c 128,-1,16
 1258 1114 1258 1114 1384 1114 c 0,17,18
 1585 1114 1585 1114 1704 981.5 c 128,-1,19
 1823 849 1823 849 1823 623 c 2,20,-1
 1823 518 l 1,21,-1
 1094 518 l 1,22,23
 1102 125 1102 125 1432 125 c 0,24,25
 1526 125 1526 125 1606.5 142.5 c 128,-1,26
 1687 160 1687 160 1774 199 c 1,27,-1
 1774 51 l 1,28,29
 1686 12 1686 12 1610 -4 c 128,-1,30
 1534 -20 1534 -20 1430 -20 c 0,0,1
287 549 m 0,31,32
 287 338 287 338 363 228.5 c 128,-1,33
 439 119 439 119 606 119 c 0,34,35
 769 119 769 119 845.5 225.5 c 128,-1,36
 922 332 922 332 922 541 c 0,37,38
 922 762 922 762 844.5 868.5 c 128,-1,39
 767 975 767 975 602 975 c 0,40,41
 436 975 436 975 361.5 867 c 128,-1,42
 287 759 287 759 287 549 c 0,31,32
1382 975 m 0,43,44
 1255 975 1255 975 1182.5 893 c 128,-1,45
 1110 811 1110 811 1098 653 c 1,46,-1
 1642 653 l 1,47,48
 1642 811 1642 811 1576 893 c 128,-1,49
 1510 975 1510 975 1382 975 c 0,43,44
EndSplineSet
EndChar

StartChar: Tbar
Encoding: 358 358 296
Width: 1133
GlyphClass: 2
Flags: W
LayerCount: 2
Fore
SplineSet
481 815 m 1,0,-1
 481 1311 l 1,1,-1
 18 1311 l 1,2,-1
 18 1462 l 1,3,-1
 1114 1462 l 1,4,-1
 1114 1311 l 1,5,-1
 651 1311 l 1,6,-1
 651 815 l 1,7,-1
 961 815 l 1,8,-1
 961 674 l 1,9,-1
 651 674 l 1,10,-1
 651 0 l 1,11,-1
 481 0 l 1,12,-1
 481 674 l 1,13,-1
 168 674 l 1,14,-1
 168 815 l 1,15,-1
 481 815 l 1,0,-1
EndSplineSet
EndChar

StartChar: tbar
Encoding: 359 359 297
Width: 723
GlyphClass: 2
Flags: W
LayerCount: 2
Fore
SplineSet
535 117 m 0,0,1
 620 117 620 117 680 137 c 1,2,-1
 680 10 l 1,3,4
 648 -4 648 -4 595 -12 c 128,-1,5
 542 -20 542 -20 500 -20 c 0,6,7
 188 -20 188 -20 188 328 c 2,8,-1
 188 582 l 1,9,-1
 47 582 l 1,10,-1
 47 711 l 1,11,-1
 188 711 l 1,12,-1
 188 967 l 1,13,-1
 31 967 l 1,14,-1
 31 1047 l 1,15,-1
 188 1116 l 1,16,-1
 258 1350 l 1,17,-1
 354 1350 l 1,18,-1
 354 1096 l 1,19,-1
 672 1096 l 1,20,-1
 672 967 l 1,21,-1
 354 967 l 1,22,-1
 354 711 l 1,23,-1
 655 711 l 1,24,-1
 655 582 l 1,25,-1
 354 582 l 1,26,-1
 354 338 l 2,27,28
 354 117 354 117 535 117 c 0,0,1
EndSplineSet
EndChar

StartChar: longs
Encoding: 383 383 321
Width: 655
GlyphClass: 2
Flags: W
LayerCount: 2
Fore
SplineSet
342 0 m 1,0,-1
 176 0 l 1,1,-1
 176 1180 l 2,2,3
 176 1567 176 1567 535 1567 c 0,4,5
 631 1567 631 1567 731 1530 c 1,6,-1
 688 1397 l 1,7,8
 601 1427 601 1427 528 1427 c 0,9,10
 431 1427 431 1427 386.5 1365.5 c 128,-1,11
 342 1304 342 1304 342 1182 c 2,12,-1
 342 0 l 1,0,-1
EndSplineSet
EndChar

StartChar: florin
Encoding: 402 402 322
Width: 1182
GlyphClass: 2
Flags: W
LayerCount: 2
Fore
SplineSet
328 -492 m 0,0,1
 259 -492 259 -492 195 -473 c 1,2,-1
 195 -334 l 1,3,4
 265 -352 265 -352 326 -352 c 0,5,6
 421 -352 421 -352 459.5 -301 c 128,-1,7
 498 -250 498 -250 498 -137 c 2,8,-1
 498 836 l 1,9,-1
 276 836 l 1,10,-1
 276 911 l 1,11,-1
 498 971 l 1,12,-1
 498 1110 l 2,13,14
 498 1305 498 1305 579 1394 c 128,-1,15
 660 1483 660 1483 842 1483 c 0,16,17
 927 1483 927 1483 1047 1440 c 1,18,-1
 1025 1376 l 1,19,-1
 1004 1311 l 1,20,21
 902 1343 902 1343 842 1343 c 0,22,23
 744 1343 744 1343 704 1290.5 c 128,-1,24
 664 1238 664 1238 664 1114 c 2,25,-1
 664 965 l 1,26,-1
 946 965 l 1,27,-1
 946 836 l 1,28,-1
 668 836 l 1,29,-1
 668 -133 l 2,30,31
 668 -317 668 -317 589 -404.5 c 128,-1,32
 510 -492 510 -492 328 -492 c 0,0,1
EndSplineSet
EndChar

StartChar: Aringacute
Encoding: 506 506 323
Width: 1300
GlyphClass: 2
Flags: W
LayerCount: 2
Fore
SplineSet
872 1430 m 0,0,1
 872 1297 872 1297 768 1241 c 1,2,-1
 1300 0 l 1,3,-1
 1126 0 l 1,4,-1
 950 401 l 1,5,-1
 340 401 l 1,6,-1
 174 0 l 1,7,-1
 0 0 l 1,8,-1
 532 1239 l 1,9,10
 426 1291 426 1291 426 1427 c 0,11,12
 426 1528 426 1528 487 1585 c 128,-1,13
 548 1642 548 1642 647 1642 c 0,14,15
 747 1642 747 1642 809.5 1583.5 c 128,-1,16
 872 1525 872 1525 872 1430 c 0,0,1
899 555 m 1,17,-1
 721 987 l 1,18,19
 696 1045 696 1045 649 1190 c 1,20,21
 635 1142 635 1142 611 1074.5 c 128,-1,22
 587 1007 587 1007 578 983 c 2,23,-1
 401 555 l 1,24,-1
 899 555 l 1,17,-1
553 1712 m 1,25,26
 602 1771 602 1771 653 1845.5 c 128,-1,27
 704 1920 704 1920 727 1962 c 1,28,-1
 930 1962 l 1,29,-1
 930 1946 l 1,30,31
 898 1900 898 1900 814 1819.5 c 128,-1,32
 730 1739 730 1739 664 1694 c 1,33,-1
 553 1694 l 1,34,-1
 553 1712 l 1,25,26
764 1427 m 0,35,36
 764 1484 764 1484 731 1514 c 128,-1,37
 698 1544 698 1544 647 1544 c 256,38,39
 596 1544 596 1544 563 1514 c 128,-1,40
 530 1484 530 1484 530 1427 c 0,41,42
 530 1372 530 1372 560 1341.5 c 128,-1,43
 590 1311 590 1311 647 1311 c 0,44,45
 700 1311 700 1311 732 1341.5 c 128,-1,46
 764 1372 764 1372 764 1427 c 0,35,36
EndSplineSet
EndChar

StartChar: aringacute
Encoding: 507 507 324
Width: 1139
GlyphClass: 2
Flags: W
LayerCount: 2
Fore
SplineSet
471 1753 m 1,0,-1
 471 1769 l 1,1,2
 517 1811 517 1811 570 1871 c 128,-1,3
 623 1931 623 1931 645 1962 c 1,4,-1
 905 1962 l 1,5,-1
 905 1950 l 1,6,7
 884 1926 884 1926 802 1873.5 c 128,-1,8
 720 1821 720 1821 592 1753 c 1,9,-1
 471 1753 l 1,0,-1
850 0 m 1,10,-1
 817 156 l 1,11,-1
 809 156 l 1,12,13
 727 53 727 53 645.5 16.5 c 128,-1,14
 564 -20 564 -20 442 -20 c 0,15,16
 279 -20 279 -20 186.5 64 c 128,-1,17
 94 148 94 148 94 303 c 0,18,19
 94 635 94 635 631 651 c 1,20,-1
 811 657 l 1,21,-1
 811 725 l 2,22,23
 811 855 811 855 751.5 916 c 128,-1,24
 692 977 692 977 559 977 c 0,25,26
 463 977 463 977 379.5 951 c 128,-1,27
 296 925 296 925 225 893 c 1,28,-1
 170 1020 l 1,29,30
 254 1063 254 1063 358 1088.5 c 128,-1,31
 462 1114 462 1114 563 1114 c 0,32,33
 772 1114 772 1114 872.5 1027 c 128,-1,34
 973 940 973 940 973 748 c 2,35,-1
 973 0 l 1,36,-1
 850 0 l 1,10,-1
475 117 m 0,37,38
 630 117 630 117 718.5 202 c 128,-1,39
 807 287 807 287 807 440 c 2,40,-1
 807 539 l 1,41,-1
 641 532 l 1,42,43
 443 525 443 525 355.5 470.5 c 128,-1,44
 268 416 268 416 268 301 c 0,45,46
 268 211 268 211 322.5 164 c 128,-1,47
 377 117 377 117 475 117 c 0,37,38
803 1458 m 0,48,49
 803 1360 803 1360 741.5 1300.5 c 128,-1,50
 680 1241 680 1241 578 1241 c 0,51,52
 477 1241 477 1241 416.5 1299 c 128,-1,53
 356 1357 356 1357 356 1456 c 0,54,55
 356 1554 356 1554 416.5 1611.5 c 128,-1,56
 477 1669 477 1669 578 1669 c 256,57,58
 679 1669 679 1669 741 1609.5 c 128,-1,59
 803 1550 803 1550 803 1458 c 0,48,49
694 1456 m 256,60,61
 694 1512 694 1512 661.5 1542.5 c 128,-1,62
 629 1573 629 1573 578 1573 c 256,63,64
 527 1573 527 1573 494 1542.5 c 128,-1,65
 461 1512 461 1512 461 1456 c 256,66,67
 461 1400 461 1400 491 1369.5 c 128,-1,68
 521 1339 521 1339 578 1339 c 0,69,70
 630 1339 630 1339 662 1369.5 c 128,-1,71
 694 1400 694 1400 694 1456 c 256,60,61
EndSplineSet
EndChar

StartChar: circumflex
Encoding: 710 710 331
Width: 1212
GlyphClass: 2
Flags: W
LayerCount: 2
Fore
SplineSet
268 1264 m 1,0,1
 395 1400 395 1400 446 1464 c 128,-1,2
 497 1528 497 1528 520 1569 c 1,3,-1
 686 1569 l 1,4,5
 708 1527 708 1527 762.5 1460.5 c 128,-1,6
 817 1394 817 1394 942 1264 c 1,7,-1
 942 1241 l 1,8,-1
 823 1241 l 1,9,10
 735 1296 735 1296 602 1427 c 1,11,12
 466 1293 466 1293 383 1241 c 1,13,-1
 268 1241 l 1,14,-1
 268 1264 l 1,0,1
EndSplineSet
EndChar

StartChar: caron
Encoding: 711 711 332
Width: 1212
GlyphClass: 2
Flags: W
LayerCount: 2
Fore
SplineSet
268 1569 m 1,0,-1
 383 1569 l 1,1,2
 497 1495 497 1495 602 1380 c 1,3,4
 732 1510 732 1510 823 1569 c 1,5,-1
 942 1569 l 1,6,-1
 942 1544 l 1,7,-1
 876 1476 l 2,8,9
 732 1328 732 1328 686 1241 c 1,10,-1
 520 1241 l 1,11,12
 497 1282 497 1282 446 1345 c 128,-1,13
 395 1408 395 1408 268 1544 c 1,14,-1
 268 1569 l 1,0,-1
EndSplineSet
EndChar

StartChar: macron
Encoding: 713 713 333
Width: 1202
GlyphClass: 2
Flags: W
LayerCount: 2
Fore
SplineSet
301 1378 m 1,0,-1
 901 1378 l 1,1,-1
 901 1241 l 1,2,-1
 301 1241 l 1,3,-1
 301 1378 l 1,0,-1
EndSplineSet
EndChar

StartChar: breve
Encoding: 728 728 334
Width: 1212
GlyphClass: 2
Flags: W
LayerCount: 2
Fore
SplineSet
598 1241 m 0,0,1
 458 1241 458 1241 380 1309.5 c 128,-1,2
 302 1378 302 1378 293 1509 c 1,3,-1
 397 1509 l 1,4,5
 403 1460 403 1460 423.5 1432 c 128,-1,6
 444 1404 444 1404 480.5 1391 c 128,-1,7
 517 1378 517 1378 602 1378 c 0,8,9
 703 1378 703 1378 751 1410 c 128,-1,10
 799 1442 799 1442 809 1509 c 1,11,-1
 913 1509 l 1,12,13
 903 1383 903 1383 819.5 1312 c 128,-1,14
 736 1241 736 1241 598 1241 c 0,0,1
EndSplineSet
EndChar

StartChar: dotaccent
Encoding: 729 729 335
Width: 518
GlyphClass: 2
Flags: W
LayerCount: 2
Fore
SplineSet
162 1393 m 0,0,1
 162 1450 162 1450 190 1476.5 c 128,-1,2
 218 1503 218 1503 260 1503 c 0,3,4
 300 1503 300 1503 329 1476 c 128,-1,5
 358 1449 358 1449 358 1393 c 256,6,7
 358 1337 358 1337 329 1309.5 c 128,-1,8
 300 1282 300 1282 260 1282 c 0,9,10
 218 1282 218 1282 190 1309.5 c 128,-1,11
 162 1337 162 1337 162 1393 c 0,0,1
EndSplineSet
EndChar

StartChar: ring
Encoding: 730 730 336
Width: 1182
GlyphClass: 2
Flags: W
LayerCount: 2
Fore
SplineSet
813 1458 m 0,0,1
 813 1360 813 1360 751.5 1300.5 c 128,-1,2
 690 1241 690 1241 588 1241 c 0,3,4
 487 1241 487 1241 427 1299.5 c 128,-1,5
 367 1358 367 1358 367 1456 c 256,6,7
 367 1554 367 1554 427.5 1611.5 c 128,-1,8
 488 1669 488 1669 588 1669 c 0,9,10
 689 1669 689 1669 751 1609.5 c 128,-1,11
 813 1550 813 1550 813 1458 c 0,0,1
705 1456 m 256,12,13
 705 1512 705 1512 672 1542.5 c 128,-1,14
 639 1573 639 1573 588 1573 c 256,15,16
 537 1573 537 1573 504 1542.5 c 128,-1,17
 471 1512 471 1512 471 1456 c 256,18,19
 471 1400 471 1400 501 1369.5 c 128,-1,20
 531 1339 531 1339 588 1339 c 0,21,22
 640 1339 640 1339 672.5 1369.5 c 128,-1,23
 705 1400 705 1400 705 1456 c 256,12,13
EndSplineSet
EndChar

StartChar: ogonek
Encoding: 731 731 337
Width: 403
GlyphClass: 2
Flags: W
LayerCount: 2
Fore
SplineSet
178 -238 m 0,0,1
 178 -332 178 -332 272 -332 c 0,2,3
 314 -332 314 -332 369 -319 c 1,4,-1
 369 -428 l 1,5,6
 304 -446 304 -446 244 -446 c 0,7,8
 37 -446 37 -446 37 -258 c 0,9,10
 37 -188 37 -188 80 -120.5 c 128,-1,11
 123 -53 123 -53 195 0 c 1,12,-1
 315 0 l 1,13,14
 247 -66 247 -66 212.5 -120.5 c 128,-1,15
 178 -175 178 -175 178 -238 c 0,0,1
EndSplineSet
EndChar

StartChar: tilde
Encoding: 732 732 338
Width: 1212
GlyphClass: 2
Flags: W
LayerCount: 2
Fore
SplineSet
788 1243 m 0,0,1
 745 1243 745 1243 704 1261.5 c 128,-1,2
 663 1280 663 1280 623.5 1302.5 c 128,-1,3
 584 1325 584 1325 547.5 1343.5 c 128,-1,4
 511 1362 511 1362 477 1362 c 0,5,6
 427 1362 427 1362 401.5 1332 c 128,-1,7
 376 1302 376 1302 362 1241 c 1,8,-1
 264 1241 l 1,9,10
 277 1362 277 1362 334.5 1430.5 c 128,-1,11
 392 1499 392 1499 483 1499 c 0,12,13
 529 1499 529 1499 572 1480.5 c 128,-1,14
 615 1462 615 1462 654 1439.5 c 128,-1,15
 693 1417 693 1417 729 1398.5 c 128,-1,16
 765 1380 765 1380 797 1380 c 0,17,18
 846 1380 846 1380 870 1409.5 c 128,-1,19
 894 1439 894 1439 909 1501 c 1,20,-1
 1008 1501 l 1,21,22
 995 1380 995 1380 938.5 1311.5 c 128,-1,23
 882 1243 882 1243 788 1243 c 0,0,1
EndSplineSet
EndChar

StartChar: hungarumlaut
Encoding: 733 733 339
Width: 1182
GlyphClass: 2
Flags: W
LayerCount: 2
Fore
SplineSet
231 1266 m 1,0,1
 267 1314 267 1314 322 1407 c 128,-1,2
 377 1500 377 1500 408 1569 c 1,3,-1
 594 1569 l 1,4,-1
 594 1548 l 1,5,6
 557 1485 557 1485 471.5 1387 c 128,-1,7
 386 1289 386 1289 328 1241 c 1,8,-1
 231 1241 l 1,9,-1
 231 1266 l 1,0,1
588 1266 m 1,10,11
 637 1334 637 1334 687.5 1422.5 c 128,-1,12
 738 1511 738 1511 764 1569 c 1,13,-1
 950 1569 l 1,14,-1
 950 1548 l 1,15,16
 913 1485 913 1485 827.5 1387 c 128,-1,17
 742 1289 742 1289 684 1241 c 1,18,-1
 588 1241 l 1,19,-1
 588 1266 l 1,10,11
EndSplineSet
EndChar

StartChar: tonos
Encoding: 900 900 340
Width: 1182
GlyphClass: 2
Flags: W
LayerCount: 2
Fore
SplineSet
508 1270 m 1,0,1
 535 1342 535 1342 561.5 1455.5 c 128,-1,2
 588 1569 588 1569 600 1651 c 1,3,-1
 784 1651 l 1,4,-1
 784 1628 l 1,5,6
 766 1554 766 1554 711.5 1435.5 c 128,-1,7
 657 1317 657 1317 608 1241 c 1,8,-1
 508 1241 l 1,9,-1
 508 1270 l 1,0,1
EndSplineSet
EndChar

StartChar: dieresistonos
Encoding: 901 901 341
Width: 1182
GlyphClass: 2
Flags: W
LayerCount: 2
Fore
SplineSet
512 1413 m 1,0,1
 577 1582 577 1582 608 1716 c 1,2,-1
 797 1716 l 1,3,-1
 797 1696 l 1,4,5
 764 1629 764 1629 703.5 1539.5 c 128,-1,6
 643 1450 643 1450 592 1389 c 1,7,-1
 512 1389 l 1,8,-1
 512 1413 l 1,0,1
283 1393 m 0,9,10
 283 1445 283 1445 309 1468 c 128,-1,11
 335 1491 335 1491 373 1491 c 0,12,13
 414 1491 414 1491 438.5 1465 c 128,-1,14
 463 1439 463 1439 463 1393 c 0,15,16
 463 1343 463 1343 435.5 1318.5 c 128,-1,17
 408 1294 408 1294 373 1294 c 0,18,19
 335 1294 335 1294 309 1318.5 c 128,-1,20
 283 1343 283 1343 283 1393 c 0,9,10
719 1393 m 0,21,22
 719 1445 719 1445 745 1468 c 128,-1,23
 771 1491 771 1491 809 1491 c 0,24,25
 850 1491 850 1491 874.5 1465 c 128,-1,26
 899 1439 899 1439 899 1393 c 0,27,28
 899 1343 899 1343 871.5 1318.5 c 128,-1,29
 844 1294 844 1294 809 1294 c 0,30,31
 771 1294 771 1294 745 1318.5 c 128,-1,32
 719 1343 719 1343 719 1393 c 0,21,22
EndSplineSet
EndChar

StartChar: Gamma
Encoding: 915 915 353
Width: 1065
GlyphClass: 2
Flags: W
LayerCount: 2
Fore
SplineSet
1016 1462 m 1,0,-1
 1016 1309 l 1,1,-1
 371 1309 l 1,2,-1
 371 0 l 1,3,-1
 201 0 l 1,4,-1
 201 1462 l 1,5,-1
 1016 1462 l 1,0,-1
EndSplineSet
EndChar

StartChar: Theta
Encoding: 920 920 358
Width: 1595
GlyphClass: 2
Flags: W
LayerCount: 2
Fore
SplineSet
483 819 m 1,0,-1
 1112 819 l 1,1,-1
 1112 670 l 1,2,-1
 483 670 l 1,3,-1
 483 819 l 1,0,-1
1470 733 m 0,4,5
 1470 382 1470 382 1292.5 181 c 128,-1,6
 1115 -20 1115 -20 799 -20 c 0,7,8
 476 -20 476 -20 300.5 177.5 c 128,-1,9
 125 375 125 375 125 735 c 0,10,11
 125 1092 125 1092 301 1288.5 c 128,-1,12
 477 1485 477 1485 801 1485 c 0,13,14
 1116 1485 1116 1485 1293 1285 c 128,-1,15
 1470 1085 1470 1085 1470 733 c 0,4,5
305 733 m 0,16,17
 305 437 305 437 430 283 c 128,-1,18
 555 129 555 129 799 129 c 0,19,20
 1042 129 1042 129 1166 281 c 128,-1,21
 1290 433 1290 433 1290 733 c 0,22,23
 1290 1031 1290 1031 1166.5 1182 c 128,-1,24
 1043 1333 1043 1333 801 1333 c 0,25,26
 556 1333 556 1333 430.5 1180 c 128,-1,27
 305 1027 305 1027 305 733 c 0,16,17
EndSplineSet
EndChar

StartChar: Lambda
Encoding: 923 923 361
Width: 1235
GlyphClass: 2
Flags: W
LayerCount: 2
Fore
SplineSet
1235 0 m 1,0,-1
 1053 0 l 1,1,-1
 723 928 l 1,2,3
 636 1180 636 1180 614 1270 c 1,4,5
 581 1131 581 1131 510 930 c 2,6,-1
 182 0 l 1,7,-1
 0 0 l 1,8,-1
 528 1462 l 1,9,-1
 705 1462 l 1,10,-1
 1235 0 l 1,0,-1
EndSplineSet
EndChar

StartChar: Xi
Encoding: 926 926 364
Width: 1133
GlyphClass: 2
Flags: W
LayerCount: 2
Fore
SplineSet
195 840 m 1,0,-1
 938 840 l 1,1,-1
 938 690 l 1,2,-1
 195 690 l 1,3,-1
 195 840 l 1,0,-1
113 1462 m 1,4,-1
 1020 1462 l 1,5,-1
 1020 1311 l 1,6,-1
 113 1311 l 1,7,-1
 113 1462 l 1,4,-1
1061 152 m 1,8,-1
 1061 0 l 1,9,-1
 72 0 l 1,10,-1
 72 152 l 1,11,-1
 1061 152 l 1,8,-1
EndSplineSet
EndChar

StartChar: Pi
Encoding: 928 928 366
Width: 1493
GlyphClass: 2
Flags: W
LayerCount: 2
Fore
SplineSet
1292 0 m 1,0,-1
 1122 0 l 1,1,-1
 1122 1311 l 1,2,-1
 371 1311 l 1,3,-1
 371 0 l 1,4,-1
 201 0 l 1,5,-1
 201 1462 l 1,6,-1
 1292 1462 l 1,7,-1
 1292 0 l 1,0,-1
EndSplineSet
EndChar

StartChar: Sigma
Encoding: 931 931 368
Width: 1161
GlyphClass: 2
Flags: W
LayerCount: 2
Fore
SplineSet
74 0 m 1,0,-1
 74 141 l 1,1,-1
 555 764 l 1,2,-1
 86 1319 l 1,3,-1
 86 1462 l 1,4,-1
 1057 1462 l 1,5,-1
 1057 1309 l 1,6,-1
 381 1309 l 1,7,-1
 285 1311 l 1,8,-1
 745 766 l 1,9,-1
 264 152 l 1,10,-1
 1116 152 l 1,11,-1
 1116 0 l 1,12,-1
 74 0 l 1,0,-1
EndSplineSet
EndChar

StartChar: Phi
Encoding: 934 934 371
Width: 1634
GlyphClass: 2
Flags: W
LayerCount: 2
Fore
SplineSet
731 1483 m 1,0,-1
 903 1483 l 1,1,-1
 903 1303 l 1,2,-1
 973 1303 l 2,3,4
 1144 1303 1144 1303 1269.5 1235 c 128,-1,5
 1395 1167 1395 1167 1461.5 1043 c 128,-1,6
 1528 919 1528 919 1528 760 c 0,7,8
 1528 594 1528 594 1453.5 464.5 c 128,-1,9
 1379 335 1379 335 1249.5 270 c 128,-1,10
 1120 205 1120 205 944 205 c 2,11,-1
 903 205 l 1,12,-1
 903 -20 l 1,13,-1
 731 -20 l 1,14,-1
 731 205 l 1,15,-1
 686 205 l 2,16,17
 510 205 510 205 381 271 c 128,-1,18
 252 337 252 337 179 467 c 128,-1,19
 106 597 106 597 106 758 c 0,20,21
 106 916 106 916 173.5 1040 c 128,-1,22
 241 1164 241 1164 367 1233.5 c 128,-1,23
 493 1303 493 1303 664 1303 c 2,24,-1
 731 1303 l 1,25,-1
 731 1483 l 1,0,-1
903 348 m 1,26,-1
 928 348 l 2,27,28
 1129 348 1129 348 1240.5 457.5 c 128,-1,29
 1352 567 1352 567 1352 762 c 0,30,31
 1352 947 1352 947 1249 1052 c 128,-1,32
 1146 1157 1146 1157 961 1157 c 2,33,-1
 903 1157 l 1,34,-1
 903 348 l 1,26,-1
731 1157 m 1,35,-1
 674 1157 l 2,36,37
 492 1157 492 1157 387.5 1051 c 128,-1,38
 283 945 283 945 283 762 c 0,39,40
 283 565 283 565 394 456.5 c 128,-1,41
 505 348 505 348 707 348 c 2,42,-1
 731 348 l 1,43,-1
 731 1157 l 1,35,-1
EndSplineSet
EndChar

StartChar: Psi
Encoding: 936 936 373
Width: 1630
GlyphClass: 2
Flags: W
LayerCount: 2
Fore
SplineSet
899 0 m 1,0,-1
 729 0 l 1,1,-1
 729 446 l 1,2,-1
 684 446 l 2,3,4
 508 446 508 446 380.5 507 c 128,-1,5
 253 568 253 568 181 691.5 c 128,-1,6
 109 815 109 815 109 979 c 2,7,-1
 109 1462 l 1,8,-1
 283 1462 l 1,9,-1
 283 983 l 2,10,11
 283 795 283 795 386.5 694.5 c 128,-1,12
 490 594 490 594 702 594 c 2,13,-1
 729 594 l 1,14,-1
 729 1462 l 1,15,-1
 899 1462 l 1,16,-1
 899 594 l 1,17,-1
 928 594 l 2,18,19
 1139 594 1139 594 1242.5 693 c 128,-1,20
 1346 792 1346 792 1346 979 c 2,21,-1
 1346 1462 l 1,22,-1
 1522 1462 l 1,23,-1
 1522 981 l 2,24,25
 1522 816 1522 816 1450 692.5 c 128,-1,26
 1378 569 1378 569 1248.5 507.5 c 128,-1,27
 1119 446 1119 446 944 446 c 2,28,-1
 899 446 l 1,29,-1
 899 0 l 1,0,-1
EndSplineSet
EndChar

StartChar: uni03A9
Encoding: 937 937 374
Width: 1602
GlyphClass: 2
Flags: W
LayerCount: 2
Fore
SplineSet
801 1333 m 0,0,1
 563 1333 563 1333 438 1204.5 c 128,-1,2
 313 1076 313 1076 313 823 c 0,3,4
 313 598 313 598 399.5 431.5 c 128,-1,5
 486 265 486 265 666 133 c 1,6,-1
 666 0 l 1,7,-1
 80 0 l 1,8,-1
 80 152 l 1,9,-1
 444 152 l 1,10,11
 293 270 293 270 213 445 c 128,-1,12
 133 620 133 620 133 823 c 0,13,14
 133 1133 133 1133 310 1309 c 128,-1,15
 487 1485 487 1485 801 1485 c 0,16,17
 1116 1485 1116 1485 1293 1311.5 c 128,-1,18
 1470 1138 1470 1138 1470 825 c 0,19,20
 1470 618 1470 618 1391 445 c 128,-1,21
 1312 272 1312 272 1161 152 c 1,22,-1
 1524 152 l 1,23,-1
 1524 0 l 1,24,-1
 938 0 l 1,25,-1
 938 133 l 1,26,27
 1121 267 1121 267 1205.5 434 c 128,-1,28
 1290 601 1290 601 1290 823 c 0,29,30
 1290 1075 1290 1075 1165.5 1204 c 128,-1,31
 1041 1333 1041 1333 801 1333 c 0,0,1
EndSplineSet
EndChar

StartChar: alpha
Encoding: 945 945 382
Width: 1251
GlyphClass: 2
Flags: W
LayerCount: 2
Fore
SplineSet
592 119 m 0,0,1
 761 119 761 119 836 216.5 c 128,-1,2
 911 314 911 314 911 532 c 2,3,-1
 911 547 l 2,4,5
 911 776 911 776 835 875.5 c 128,-1,6
 759 975 759 975 590 975 c 0,7,8
 287 975 287 975 287 543 c 0,9,10
 287 331 287 331 360.5 225 c 128,-1,11
 434 119 434 119 592 119 c 0,0,1
567 -20 m 0,12,13
 353 -20 353 -20 234 128.5 c 128,-1,14
 115 277 115 277 115 545 c 0,15,16
 115 819 115 819 237 967.5 c 128,-1,17
 359 1116 359 1116 584 1116 c 0,18,19
 705 1116 705 1116 785.5 1074 c 128,-1,20
 866 1032 866 1032 920 948 c 1,21,-1
 932 948 l 1,22,23
 956 1040 956 1040 997 1096 c 1,24,-1
 1126 1096 l 1,25,26
 1105 1030 1105 1030 1091 907 c 128,-1,27
 1077 784 1077 784 1077 668 c 2,28,-1
 1077 229 l 2,29,30
 1077 115 1077 115 1161 115 c 0,31,32
 1190 115 1190 115 1223 125 c 1,33,-1
 1223 6 l 1,34,35
 1177 -20 1177 -20 1112 -20 c 0,36,37
 1031 -20 1031 -20 986.5 20.5 c 128,-1,38
 942 61 942 61 924 147 c 1,39,-1
 911 147 l 1,40,41
 852 61 852 61 768.5 20.5 c 128,-1,42
 685 -20 685 -20 567 -20 c 0,12,13
EndSplineSet
EndChar

StartChar: beta
Encoding: 946 946 383
Width: 1286
GlyphClass: 2
Flags: W
LayerCount: 2
Fore
SplineSet
659 1567 m 0,0,1
 879 1567 879 1567 1003.5 1463 c 128,-1,2
 1128 1359 1128 1359 1128 1176 c 0,3,4
 1128 882 1128 882 815 831 c 1,5,-1
 815 823 l 1,6,7
 1192 781 1192 781 1192 414 c 0,8,9
 1192 205 1192 205 1060 92.5 c 128,-1,10
 928 -20 928 -20 690 -20 c 0,11,12
 581 -20 581 -20 501 -4.5 c 128,-1,13
 421 11 421 11 342 49 c 1,14,-1
 342 -492 l 1,15,-1
 176 -492 l 1,16,-1
 176 1096 l 2,17,18
 176 1321 176 1321 302.5 1444 c 128,-1,19
 429 1567 429 1567 659 1567 c 0,0,1
657 1427 m 0,20,21
 499 1427 499 1427 420.5 1341 c 128,-1,22
 342 1255 342 1255 342 1090 c 2,23,-1
 342 203 l 1,24,25
 435 154 435 154 515.5 135.5 c 128,-1,26
 596 117 596 117 682 117 c 0,27,28
 853 117 853 117 939.5 192 c 128,-1,29
 1026 267 1026 267 1026 424 c 256,30,31
 1026 581 1026 581 931 663 c 128,-1,32
 836 745 836 745 659 745 c 2,33,-1
 547 745 l 1,34,-1
 547 887 l 1,35,-1
 639 887 l 2,36,37
 794 887 794 887 875 960.5 c 128,-1,38
 956 1034 956 1034 956 1171 c 0,39,40
 956 1294 956 1294 878 1360.5 c 128,-1,41
 800 1427 800 1427 657 1427 c 0,20,21
EndSplineSet
EndChar

StartChar: gamma
Encoding: 947 947 384
Width: 1049
GlyphClass: 2
Flags: W
LayerCount: 2
Fore
SplineSet
532 -492 m 1,0,-1
 352 -492 l 1,1,2
 352 -396 352 -396 384 -249 c 128,-1,3
 416 -102 416 -102 459 12 c 1,4,-1
 10 1096 l 1,5,-1
 182 1096 l 1,6,-1
 422 512 l 1,7,8
 516 277 516 277 535 174 c 1,9,-1
 543 174 l 1,10,11
 548 204 548 204 568.5 275 c 128,-1,12
 589 346 589 346 610.5 410.5 c 128,-1,13
 632 475 632 475 866 1096 c 1,14,-1
 1038 1096 l 1,15,-1
 633 27 l 2,16,17
 585 -97 585 -97 558.5 -243 c 128,-1,18
 532 -389 532 -389 532 -492 c 1,0,-1
EndSplineSet
EndChar

StartChar: delta
Encoding: 948 948 385
Width: 1188
GlyphClass: 2
Flags: W
LayerCount: 2
Fore
SplineSet
545 936 m 1,0,1
 405 1014 405 1014 347 1093.5 c 128,-1,2
 289 1173 289 1173 289 1272 c 0,3,4
 289 1402 289 1402 386 1478 c 128,-1,5
 483 1554 483 1554 647 1554 c 0,6,7
 750 1554 750 1554 844.5 1531.5 c 128,-1,8
 939 1509 939 1509 1065 1446 c 1,9,-1
 993 1311 l 1,10,11
 881 1373 881 1373 801.5 1395 c 128,-1,12
 722 1417 722 1417 641 1417 c 0,13,14
 556 1417 556 1417 507.5 1377.5 c 128,-1,15
 459 1338 459 1338 459 1272 c 0,16,17
 459 1201 459 1201 512.5 1145.5 c 128,-1,18
 566 1090 566 1090 733 999 c 0,19,20
 943 884 943 884 1031.5 763.5 c 128,-1,21
 1120 643 1120 643 1120 479 c 0,22,23
 1120 244 1120 244 984 112 c 128,-1,24
 848 -20 848 -20 612 -20 c 0,25,26
 385 -20 385 -20 249 104 c 128,-1,27
 113 228 113 228 113 438 c 0,28,29
 113 615 113 615 226 745.5 c 128,-1,30
 339 876 339 876 545 936 c 1,0,1
948 479 m 0,31,32
 948 607 948 607 886.5 698.5 c 128,-1,33
 825 790 825 790 684 864 c 1,34,35
 478 811 478 811 382.5 702.5 c 128,-1,36
 287 594 287 594 287 434 c 0,37,38
 287 290 287 290 376 204.5 c 128,-1,39
 465 119 465 119 612 119 c 0,40,41
 774 119 774 119 861 212 c 128,-1,42
 948 305 948 305 948 479 c 0,31,32
EndSplineSet
EndChar

StartChar: epsilon
Encoding: 949 949 386
Width: 973
GlyphClass: 2
Flags: W
LayerCount: 2
Fore
SplineSet
715 641 m 1,0,-1
 715 500 l 1,1,-1
 567 500 l 2,2,3
 256 500 256 500 256 305 c 0,4,5
 256 215 256 215 329.5 166 c 128,-1,6
 403 117 403 117 549 117 c 0,7,8
 633 117 633 117 716 136.5 c 128,-1,9
 799 156 799 156 899 203 c 1,10,-1
 899 55 l 1,11,12
 762 -20 762 -20 541 -20 c 0,13,14
 331 -20 331 -20 210.5 64.5 c 128,-1,15
 90 149 90 149 90 297 c 0,16,17
 90 395 90 395 145 460.5 c 128,-1,18
 200 526 200 526 330 567 c 1,19,-1
 330 578 l 1,20,21
 232 606 232 606 178.5 669.5 c 128,-1,22
 125 733 125 733 125 825 c 0,23,24
 125 958 125 958 237 1037 c 128,-1,25
 349 1116 349 1116 541 1116 c 0,26,27
 638 1116 638 1116 720.5 1099.5 c 128,-1,28
 803 1083 803 1083 903 1038 c 1,29,-1
 840 905 l 1,30,31
 746 947 746 947 681 961 c 128,-1,32
 616 975 616 975 537 975 c 0,33,34
 287 975 287 975 287 813 c 0,35,36
 287 641 287 641 604 641 c 2,37,-1
 715 641 l 1,0,-1
EndSplineSet
EndChar

StartChar: zeta
Encoding: 950 950 387
Width: 989
GlyphClass: 2
Flags: W
LayerCount: 2
Fore
SplineSet
176 1415 m 1,0,-1
 176 1556 l 1,1,-1
 928 1556 l 1,2,-1
 928 1427 l 1,3,4
 713 1247 713 1247 569 1085.5 c 128,-1,5
 425 924 425 924 356 779.5 c 128,-1,6
 287 635 287 635 287 469 c 0,7,8
 287 371 287 371 316.5 312 c 128,-1,9
 346 253 346 253 408.5 216.5 c 128,-1,10
 471 180 471 180 643 143 c 1,11,12
 792 112 792 112 860 57.5 c 128,-1,13
 928 3 928 3 928 -88 c 0,14,15
 928 -237 928 -237 801 -401 c 1,16,-1
 635 -401 l 1,17,18
 760 -240 760 -240 760 -133 c 0,19,20
 760 -77 760 -77 704.5 -46.5 c 128,-1,21
 649 -16 649 -16 506 10 c 0,22,23
 303 46 303 46 209 155.5 c 128,-1,24
 115 265 115 265 115 459 c 0,25,26
 115 573 115 573 144.5 677 c 128,-1,27
 174 781 174 781 230 878.5 c 128,-1,28
 286 976 286 976 386.5 1090.5 c 128,-1,29
 487 1205 487 1205 729 1423 c 1,30,31
 689 1415 689 1415 418 1415 c 2,32,-1
 176 1415 l 1,0,-1
EndSplineSet
EndChar

StartChar: eta
Encoding: 951 951 388
Width: 1257
GlyphClass: 2
Flags: W
LayerCount: 2
Fore
SplineSet
926 -492 m 1,0,-1
 926 709 l 2,1,2
 926 843 926 843 865 909 c 128,-1,3
 804 975 804 975 674 975 c 0,4,5
 502 975 502 975 422 882 c 128,-1,6
 342 789 342 789 342 575 c 2,7,-1
 342 0 l 1,8,-1
 176 0 l 1,9,-1
 176 1096 l 1,10,-1
 311 1096 l 1,11,-1
 338 946 l 1,12,-1
 346 946 l 1,13,14
 397 1027 397 1027 489 1071.5 c 128,-1,15
 581 1116 581 1116 694 1116 c 0,16,17
 892 1116 892 1116 992 1020.5 c 128,-1,18
 1092 925 1092 925 1092 715 c 2,19,-1
 1092 -492 l 1,20,-1
 926 -492 l 1,0,-1
EndSplineSet
EndChar

StartChar: theta
Encoding: 952 952 389
Width: 1212
GlyphClass: 2
Flags: W
LayerCount: 2
Fore
SplineSet
1098 780 m 0,0,1
 1098 374 1098 374 976 177 c 128,-1,2
 854 -20 854 -20 604 -20 c 0,3,4
 364 -20 364 -20 239.5 181.5 c 128,-1,5
 115 383 115 383 115 780 c 0,6,7
 115 1187 115 1187 237.5 1383 c 128,-1,8
 360 1579 360 1579 604 1579 c 256,9,10
 848 1579 848 1579 973 1376.5 c 128,-1,11
 1098 1174 1098 1174 1098 780 c 0,0,1
604 119 m 0,12,13
 768 119 768 119 846 271.5 c 128,-1,14
 924 424 924 424 930 731 c 1,15,-1
 283 731 l 1,16,17
 287 427 287 427 362 273 c 128,-1,18
 437 119 437 119 604 119 c 0,12,13
604 1440 m 256,19,20
 443 1440 443 1440 368 1296.5 c 128,-1,21
 293 1153 293 1153 283 872 c 1,22,-1
 928 872 l 1,23,24
 917 1153 917 1153 841 1296.5 c 128,-1,25
 765 1440 765 1440 604 1440 c 256,19,20
EndSplineSet
EndChar

StartChar: iota
Encoding: 953 953 390
Width: 694
GlyphClass: 2
Flags: W
LayerCount: 2
Fore
SplineSet
334 1096 m 1,0,-1
 334 322 l 2,1,2
 334 218 334 218 370.5 167.5 c 128,-1,3
 407 117 407 117 494 117 c 0,4,5
 531 117 531 117 581.5 123.5 c 128,-1,6
 632 130 632 130 659 137 c 1,7,-1
 659 10 l 1,8,9
 628 -3 628 -3 575.5 -11.5 c 128,-1,10
 523 -20 523 -20 473 -20 c 0,11,12
 313 -20 313 -20 240.5 64 c 128,-1,13
 168 148 168 148 168 317 c 2,14,-1
 168 1096 l 1,15,-1
 334 1096 l 1,0,-1
EndSplineSet
EndChar

StartChar: lambda
Encoding: 955 955 392
Width: 1094
GlyphClass: 2
Flags: W
LayerCount: 2
Fore
SplineSet
-14 0 m 1,0,-1
 459 1079 l 1,1,-1
 401 1241 l 2,2,3
 371 1326 371 1326 346 1361 c 128,-1,4
 321 1396 321 1396 287.5 1414 c 128,-1,5
 254 1432 254 1432 205 1432 c 0,6,7
 147 1432 147 1432 90 1419 c 1,8,-1
 90 1552 l 1,9,10
 158 1569 158 1569 221 1569 c 0,11,12
 312 1569 312 1569 372.5 1539 c 128,-1,13
 433 1509 433 1509 477 1444 c 128,-1,14
 521 1379 521 1379 575 1227 c 2,15,-1
 938 215 l 1,16,17
 957 166 957 166 978 140.5 c 128,-1,18
 999 115 999 115 1034 115 c 0,19,20
 1061 115 1061 115 1094 125 c 1,21,-1
 1094 4 l 1,22,23
 1046 -20 1046 -20 985 -20 c 0,24,25
 911 -20 911 -20 869.5 18 c 128,-1,26
 828 56 828 56 799 139 c 2,27,-1
 643 575 l 1,28,29
 559 815 559 815 537 911 c 1,30,-1
 528 911 l 1,31,32
 500 795 500 795 412 586 c 1,33,-1
 158 0 l 1,34,-1
 -14 0 l 1,0,-1
EndSplineSet
EndChar

StartChar: nu
Encoding: 957 957 394
Width: 1110
GlyphClass: 2
Flags: W
LayerCount: 2
Fore
SplineSet
0 1096 m 1,0,-1
 172 1096 l 1,1,-1
 391 506 l 1,2,3
 417 439 417 439 458.5 320 c 128,-1,4
 500 201 500 201 516 139 c 1,5,-1
 524 139 l 1,6,7
 701 314 701 314 780.5 536.5 c 128,-1,8
 860 759 860 759 860 1096 c 1,9,-1
 1026 1096 l 1,10,11
 1026 733 1026 733 922.5 479 c 128,-1,12
 819 225 819 225 594 0 c 1,13,-1
 408 0 l 1,14,-1
 0 1096 l 1,0,-1
EndSplineSet
EndChar

StartChar: xi
Encoding: 958 958 395
Width: 973
GlyphClass: 2
Flags: W
LayerCount: 2
Fore
SplineSet
854 754 m 1,0,-1
 676 754 l 2,1,2
 500 754 500 754 393.5 665 c 128,-1,3
 287 576 287 576 287 434 c 0,4,5
 287 354 287 354 312 305 c 128,-1,6
 337 256 337 256 384.5 225.5 c 128,-1,7
 432 195 432 195 499.5 177 c 128,-1,8
 567 159 567 159 651 141 c 0,9,10
 793 112 793 112 860.5 57 c 128,-1,11
 928 2 928 2 928 -88 c 0,12,13
 928 -153 928 -153 901 -227.5 c 128,-1,14
 874 -302 874 -302 807 -401 c 1,15,-1
 651 -401 l 1,16,17
 704 -330 704 -330 737 -256.5 c 128,-1,18
 770 -183 770 -183 770 -131 c 0,19,20
 770 -76 770 -76 712.5 -45.5 c 128,-1,21
 655 -15 655 -15 512 10 c 0,22,23
 312 44 312 44 212.5 144 c 128,-1,24
 113 244 113 244 113 420 c 0,25,26
 113 560 113 560 192 665 c 128,-1,27
 271 770 271 770 399 809 c 1,28,-1
 399 821 l 1,29,30
 182 885 182 885 182 1102 c 0,31,32
 182 1219 182 1219 251.5 1298 c 128,-1,33
 321 1377 321 1377 487 1427 c 1,34,35
 359 1415 359 1415 244 1415 c 2,36,-1
 176 1415 l 1,37,-1
 176 1556 l 1,38,-1
 874 1556 l 1,39,-1
 874 1425 l 1,40,-1
 823 1425 l 2,41,42
 693 1425 693 1425 581 1385 c 128,-1,43
 469 1345 469 1345 405.5 1273 c 128,-1,44
 342 1201 342 1201 342 1106 c 0,45,46
 342 991 342 991 425.5 937 c 128,-1,47
 509 883 509 883 684 883 c 2,48,-1
 854 883 l 1,49,-1
 854 754 l 1,0,-1
EndSplineSet
EndChar

StartChar: pi
Encoding: 960 960 397
Width: 1331
GlyphClass: 2
Flags: W
LayerCount: 2
Fore
SplineSet
1149 117 m 0,0,1
 1187 117 1187 117 1235 135 c 1,2,-1
 1235 4 l 1,3,4
 1192 -20 1192 -20 1108 -20 c 0,5,6
 889 -20 889 -20 889 233 c 2,7,-1
 889 954 l 1,8,-1
 412 954 l 1,9,-1
 412 0 l 1,10,-1
 246 0 l 1,11,-1
 246 954 l 1,12,-1
 25 954 l 1,13,-1
 25 1028 l 1,14,-1
 168 1096 l 1,15,-1
 1268 1096 l 1,16,-1
 1268 954 l 1,17,-1
 1055 954 l 1,18,-1
 1055 246 l 2,19,20
 1055 172 1055 172 1080.5 144.5 c 128,-1,21
 1106 117 1106 117 1149 117 c 0,0,1
EndSplineSet
EndChar

StartChar: rho
Encoding: 961 961 398
Width: 1237
GlyphClass: 2
Flags: W
LayerCount: 2
Fore
SplineSet
1122 549 m 0,0,1
 1122 278 1122 278 994 129 c 128,-1,2
 866 -20 866 -20 633 -20 c 0,3,4
 454 -20 454 -20 334 74 c 1,5,-1
 326 74 l 1,6,7
 334 13 334 13 334 -199 c 2,8,-1
 334 -492 l 1,9,-1
 166 -492 l 1,10,-1
 166 563 l 2,11,12
 166 829 166 829 291.5 972.5 c 128,-1,13
 417 1116 417 1116 651 1116 c 0,14,15
 870 1116 870 1116 996 964.5 c 128,-1,16
 1122 813 1122 813 1122 549 c 0,0,1
643 975 m 0,17,18
 485 975 485 975 409.5 871.5 c 128,-1,19
 334 768 334 768 334 559 c 2,20,-1
 334 221 l 1,21,22
 456 119 456 119 639 119 c 0,23,24
 798 119 798 119 874 223 c 128,-1,25
 950 327 950 327 950 549 c 0,26,27
 950 763 950 763 878 869 c 128,-1,28
 806 975 806 975 643 975 c 0,17,18
EndSplineSet
EndChar

StartChar: sigma1
Encoding: 962 962 399
Width: 987
GlyphClass: 2
Flags: W
LayerCount: 2
Fore
SplineSet
287 522 m 0,0,1
 287 387 287 387 316.5 321 c 128,-1,2
 346 255 346 255 417.5 215 c 128,-1,3
 489 175 489 175 649 141 c 0,4,5
 797 109 797 109 862.5 55.5 c 128,-1,6
 928 2 928 2 928 -88 c 0,7,8
 928 -154 928 -154 901 -230 c 128,-1,9
 874 -306 874 -306 807 -401 c 1,10,-1
 651 -401 l 1,11,12
 705 -331 705 -331 738.5 -257 c 128,-1,13
 772 -183 772 -183 772 -133 c 0,14,15
 772 -93 772 -93 746.5 -69.5 c 128,-1,16
 721 -46 721 -46 666 -27 c 128,-1,17
 611 -8 611 -8 514 10 c 0,18,19
 310 47 310 47 212.5 174 c 128,-1,20
 115 301 115 301 115 520 c 0,21,22
 115 806 115 806 253 961 c 128,-1,23
 391 1116 391 1116 639 1116 c 0,24,25
 718 1116 718 1116 797 1099.5 c 128,-1,26
 876 1083 876 1083 930 1059 c 1,27,-1
 877 918 l 1,28,29
 747 969 747 969 633 969 c 0,30,31
 457 969 457 969 372 860 c 128,-1,32
 287 751 287 751 287 522 c 0,0,1
EndSplineSet
EndChar

StartChar: sigma
Encoding: 963 963 400
Width: 1255
GlyphClass: 2
Flags: W
LayerCount: 2
Fore
SplineSet
1120 508 m 0,0,1
 1120 351 1120 351 1058.5 230.5 c 128,-1,2
 997 110 997 110 882.5 45 c 128,-1,3
 768 -20 768 -20 614 -20 c 0,4,5
 379 -20 379 -20 247 124 c 128,-1,6
 115 268 115 268 115 522 c 0,7,8
 115 1096 115 1096 707 1096 c 2,9,-1
 1206 1096 l 1,10,-1
 1206 954 l 1,11,-1
 942 954 l 1,12,13
 1120 787 1120 787 1120 508 c 0,0,1
287 522 m 0,14,15
 287 328 287 328 372 223.5 c 128,-1,16
 457 119 457 119 618 119 c 0,17,18
 777 119 777 119 862.5 217.5 c 128,-1,19
 948 316 948 316 948 498 c 0,20,21
 948 768 948 768 774 954 c 1,22,-1
 709 954 l 2,23,24
 487 954 487 954 387 850 c 128,-1,25
 287 746 287 746 287 522 c 0,14,15
EndSplineSet
EndChar

StartChar: tau
Encoding: 964 964 401
Width: 969
GlyphClass: 2
Flags: W
LayerCount: 2
Fore
SplineSet
915 1096 m 1,0,-1
 915 954 l 1,1,-1
 483 954 l 1,2,-1
 483 336 l 2,3,4
 483 113 483 113 688 113 c 0,5,6
 735 113 735 113 784 119.5 c 128,-1,7
 833 126 833 126 860 133 c 1,8,-1
 860 8 l 1,9,10
 825 -7 825 -7 769.5 -16 c 128,-1,11
 714 -25 714 -25 666 -25 c 0,12,13
 485 -25 485 -25 400 60 c 128,-1,14
 315 145 315 145 315 315 c 2,15,-1
 315 954 l 1,16,-1
 18 954 l 1,17,-1
 18 1028 l 1,18,-1
 166 1096 l 1,19,-1
 915 1096 l 1,0,-1
EndSplineSet
EndChar

StartChar: upsilon
Encoding: 965 965 402
Width: 1247
GlyphClass: 2
Flags: W
LayerCount: 2
Fore
SplineSet
627 -20 m 0,0,1
 396 -20 396 -20 280 105 c 128,-1,2
 164 230 164 230 164 496 c 2,3,-1
 164 1096 l 1,4,-1
 330 1096 l 1,5,-1
 330 504 l 2,6,7
 330 312 330 312 409 214.5 c 128,-1,8
 488 117 488 117 641 117 c 0,9,10
 808 117 808 117 888.5 236 c 128,-1,11
 969 355 969 355 969 606 c 0,12,13
 969 736 969 736 955 848 c 128,-1,14
 941 960 941 960 907 1096 c 1,15,-1
 1073 1096 l 1,16,17
 1109 952 1109 952 1123 845 c 128,-1,18
 1137 738 1137 738 1137 598 c 0,19,20
 1137 280 1137 280 1008 130 c 128,-1,21
 879 -20 879 -20 627 -20 c 0,0,1
EndSplineSet
EndChar

StartChar: phi
Encoding: 966 966 403
Width: 1470
GlyphClass: 2
Flags: W
LayerCount: 2
Fore
SplineSet
643 -492 m 1,0,-1
 643 -18 l 1,1,2
 383 -7 383 -7 249 138.5 c 128,-1,3
 115 284 115 284 115 555 c 0,4,5
 115 851 115 851 322 1104 c 1,6,-1
 453 1014 l 1,7,8
 364 897 364 897 323.5 785 c 128,-1,9
 283 673 283 673 283 549 c 0,10,11
 283 154 283 154 643 119 c 1,12,-1
 643 739 l 2,13,14
 643 926 643 926 726 1021 c 128,-1,15
 809 1116 809 1116 958 1116 c 0,16,17
 1138 1116 1138 1116 1247 969.5 c 128,-1,18
 1356 823 1356 823 1356 573 c 0,19,20
 1356 395 1356 395 1288 264.5 c 128,-1,21
 1220 134 1220 134 1096 62 c 128,-1,22
 972 -10 972 -10 807 -18 c 1,23,-1
 807 -492 l 1,24,-1
 643 -492 l 1,0,-1
1184 571 m 0,25,26
 1184 756 1184 756 1122 865.5 c 128,-1,27
 1060 975 1060 975 958 975 c 0,28,29
 885 975 885 975 846 915 c 128,-1,30
 807 855 807 855 807 741 c 2,31,-1
 807 119 l 1,32,33
 986 135 986 135 1085 253 c 128,-1,34
 1184 371 1184 371 1184 571 c 0,25,26
EndSplineSet
EndChar

StartChar: chi
Encoding: 967 967 404
Width: 1118
GlyphClass: 2
Flags: W
LayerCount: 2
Fore
SplineSet
178 1102 m 0,0,1
 232 1102 232 1102 271 1080.5 c 128,-1,2
 310 1059 310 1059 341 1013.5 c 128,-1,3
 372 968 372 968 416 856 c 2,4,-1
 561 487 l 1,5,-1
 879 1096 l 1,6,-1
 1059 1096 l 1,7,-1
 631 324 l 1,8,-1
 821 -160 l 2,9,10
 869 -282 869 -282 910 -319 c 128,-1,11
 951 -356 951 -356 1014 -356 c 0,12,13
 1059 -356 1059 -356 1104 -348 c 1,14,-1
 1104 -477 l 1,15,16
 1044 -492 1044 -492 985 -492 c 0,17,18
 870 -492 870 -492 799.5 -433 c 128,-1,19
 729 -374 729 -374 670 -215 c 1,20,-1
 520 172 l 1,21,-1
 158 -492 l 1,22,-1
 -20 -492 l 1,23,-1
 444 344 l 1,24,-1
 272 788 l 2,25,26
 234 887 234 887 199 927 c 128,-1,27
 164 967 164 967 121 967 c 0,28,29
 84 967 84 967 57 956 c 1,30,-1
 57 1085 l 1,31,32
 106 1102 106 1102 178 1102 c 0,0,1
EndSplineSet
EndChar

StartChar: psi
Encoding: 968 968 405
Width: 1542
GlyphClass: 2
Flags: W
LayerCount: 2
Fore
SplineSet
858 1554 m 1,0,-1
 858 123 l 1,1,2
 1046 138 1046 138 1147.5 253.5 c 128,-1,3
 1249 369 1249 369 1249 573 c 0,4,5
 1249 693 1249 693 1236 810.5 c 128,-1,6
 1223 928 1223 928 1186 1096 c 1,7,-1
 1352 1096 l 1,8,9
 1415 824 1415 824 1415 580 c 0,10,11
 1415 304 1415 304 1272.5 151 c 128,-1,12
 1130 -2 1130 -2 858 -18 c 1,13,-1
 858 -492 l 1,14,-1
 694 -492 l 1,15,-1
 694 -18 l 1,16,17
 430 -9 430 -9 297 136 c 128,-1,18
 164 281 164 281 164 553 c 2,19,-1
 164 1096 l 1,20,-1
 330 1096 l 1,21,-1
 330 547 l 2,22,23
 330 352 330 352 420 243 c 128,-1,24
 510 134 510 134 694 121 c 1,25,-1
 694 1554 l 1,26,-1
 858 1554 l 1,0,-1
EndSplineSet
EndChar

StartChar: omega
Encoding: 969 969 406
Width: 1583
GlyphClass: 2
Flags: W
LayerCount: 2
Fore
SplineSet
500 -20 m 0,0,1
 318 -20 318 -20 216.5 128 c 128,-1,2
 115 276 115 276 115 530 c 0,3,4
 115 686 115 686 142.5 814.5 c 128,-1,5
 170 943 170 943 238 1096 c 1,6,-1
 410 1096 l 1,7,8
 342 940 342 940 313.5 812.5 c 128,-1,9
 285 685 285 685 285 528 c 0,10,11
 285 335 285 335 345 227 c 128,-1,12
 405 119 405 119 512 119 c 0,13,14
 606 119 606 119 658.5 190.5 c 128,-1,15
 711 262 711 262 711 387 c 2,16,-1
 711 698 l 1,17,-1
 872 698 l 1,18,-1
 872 387 l 2,19,20
 872 259 872 259 925 189 c 128,-1,21
 978 119 978 119 1071 119 c 0,22,23
 1178 119 1178 119 1238 227 c 128,-1,24
 1298 335 1298 335 1298 528 c 0,25,26
 1298 679 1298 679 1270.5 809 c 128,-1,27
 1243 939 1243 939 1174 1096 c 1,28,-1
 1346 1096 l 1,29,30
 1411 950 1411 950 1439.5 818.5 c 128,-1,31
 1468 687 1468 687 1468 530 c 0,32,33
 1468 278 1468 278 1366.5 129 c 128,-1,34
 1265 -20 1265 -20 1083 -20 c 0,35,36
 863 -20 863 -20 795 162 c 1,37,-1
 786 162 l 1,38,39
 721 -20 721 -20 500 -20 c 0,0,1
EndSplineSet
EndChar

StartChar: afii10051
Encoding: 1026 1026 413
Width: 1503
GlyphClass: 2
Flags: W
LayerCount: 2
Fore
SplineSet
975 -20 m 0,0,1
 879 -20 879 -20 825 2 c 1,2,-1
 825 152 l 1,3,4
 880 133 880 133 971 133 c 0,5,6
 1072 133 1072 133 1124 195 c 128,-1,7
 1176 257 1176 257 1176 369 c 2,8,-1
 1176 500 l 2,9,10
 1176 628 1176 628 1110.5 684.5 c 128,-1,11
 1045 741 1045 741 905 741 c 2,12,-1
 524 741 l 1,13,-1
 524 0 l 1,14,-1
 354 0 l 1,15,-1
 354 1311 l 1,16,-1
 18 1311 l 1,17,-1
 18 1462 l 1,18,-1
 969 1462 l 1,19,-1
 969 1311 l 1,20,-1
 524 1311 l 1,21,-1
 524 893 l 1,22,-1
 920 893 l 2,23,24
 1125 893 1125 893 1235.5 797.5 c 128,-1,25
 1346 702 1346 702 1346 524 c 2,26,-1
 1346 381 l 2,27,28
 1346 191 1346 191 1248 85.5 c 128,-1,29
 1150 -20 1150 -20 975 -20 c 0,0,1
EndSplineSet
EndChar

StartChar: afii10053
Encoding: 1028 1028 415
Width: 1309
GlyphClass: 2
Flags: W
LayerCount: 2
Fore
SplineSet
834 1331 m 0,0,1
 608 1331 608 1331 473.5 1206 c 128,-1,2
 339 1081 339 1081 309 840 c 1,3,-1
 1032 840 l 1,4,-1
 1032 690 l 1,5,-1
 305 690 l 1,6,7
 315 416 315 416 448.5 273.5 c 128,-1,8
 582 131 582 131 831 131 c 0,9,10
 993 131 993 131 1194 186 c 1,11,-1
 1194 37 l 1,12,13
 1033 -20 1033 -20 807 -20 c 0,14,15
 475 -20 475 -20 300 174 c 128,-1,16
 125 368 125 368 125 733 c 0,17,18
 125 1084 125 1084 313.5 1284.5 c 128,-1,19
 502 1485 502 1485 836 1485 c 0,20,21
 1073 1485 1073 1485 1251 1397 c 1,22,-1
 1180 1249 l 1,23,24
 1011 1331 1011 1331 834 1331 c 0,0,1
EndSplineSet
EndChar

StartChar: afii10058
Encoding: 1033 1033 420
Width: 1903
GlyphClass: 2
Flags: W
LayerCount: 2
Fore
SplineSet
1827 426 m 0,0,1
 1827 220 1827 220 1689.5 110 c 128,-1,2
 1552 0 1552 0 1292 0 c 2,3,-1
 965 0 l 1,4,-1
 965 1311 l 1,5,-1
 600 1311 l 1,6,7
 543 871 543 871 501 610 c 128,-1,8
 459 349 459 349 419 223.5 c 128,-1,9
 379 98 379 98 309.5 37.5 c 128,-1,10
 240 -23 240 -23 133 -23 c 0,11,12
 64 -23 64 -23 0 2 c 1,13,-1
 0 145 l 1,14,15
 50 119 50 119 113 119 c 0,16,17
 161 119 161 119 193.5 150 c 128,-1,18
 226 181 226 181 247.5 232.5 c 128,-1,19
 269 284 269 284 296.5 409 c 128,-1,20
 324 534 324 534 358 757 c 128,-1,21
 392 980 392 980 457 1462 c 1,22,-1
 1135 1462 l 1,23,-1
 1135 838 l 1,24,-1
 1257 838 l 2,25,26
 1827 838 1827 838 1827 426 c 0,0,1
1135 147 m 1,27,-1
 1268 147 l 2,28,29
 1466 147 1466 147 1557.5 216.5 c 128,-1,30
 1649 286 1649 286 1649 426 c 0,31,32
 1649 564 1649 564 1553 626 c 128,-1,33
 1457 688 1457 688 1237 688 c 2,34,-1
 1135 688 l 1,35,-1
 1135 147 l 1,27,-1
EndSplineSet
EndChar

StartChar: afii10059
Encoding: 1034 1034 421
Width: 1952
GlyphClass: 2
Flags: W
LayerCount: 2
Fore
SplineSet
1876 426 m 0,0,1
 1876 220 1876 220 1740 110 c 128,-1,2
 1604 0 1604 0 1343 0 c 2,3,-1
 1014 0 l 1,4,-1
 1014 688 l 1,5,-1
 371 688 l 1,6,-1
 371 0 l 1,7,-1
 201 0 l 1,8,-1
 201 1462 l 1,9,-1
 371 1462 l 1,10,-1
 371 840 l 1,11,-1
 1014 840 l 1,12,-1
 1014 1462 l 1,13,-1
 1186 1462 l 1,14,-1
 1186 838 l 1,15,-1
 1307 838 l 2,16,17
 1876 838 1876 838 1876 426 c 0,0,1
1186 147 m 1,18,-1
 1319 147 l 2,19,20
 1515 147 1515 147 1607.5 216.5 c 128,-1,21
 1700 286 1700 286 1700 426 c 0,22,23
 1700 563 1700 563 1603.5 625.5 c 128,-1,24
 1507 688 1507 688 1288 688 c 2,25,-1
 1186 688 l 1,26,-1
 1186 147 l 1,18,-1
EndSplineSet
EndChar

StartChar: afii10060
Encoding: 1035 1035 422
Width: 1503
GlyphClass: 2
Flags: W
LayerCount: 2
Fore
SplineSet
524 893 m 1,0,-1
 924 893 l 2,1,2
 1129 893 1129 893 1237.5 799 c 128,-1,3
 1346 705 1346 705 1346 524 c 2,4,-1
 1346 0 l 1,5,-1
 1176 0 l 1,6,-1
 1176 502 l 2,7,8
 1176 628 1176 628 1113.5 684.5 c 128,-1,9
 1051 741 1051 741 911 741 c 2,10,-1
 524 741 l 1,11,-1
 524 0 l 1,12,-1
 354 0 l 1,13,-1
 354 1311 l 1,14,-1
 18 1311 l 1,15,-1
 18 1462 l 1,16,-1
 1032 1462 l 1,17,-1
 1032 1311 l 1,18,-1
 524 1311 l 1,19,-1
 524 893 l 1,0,-1
EndSplineSet
EndChar

StartChar: afii10145
Encoding: 1039 1039 425
Width: 1493
GlyphClass: 2
Flags: W
LayerCount: 2
Fore
SplineSet
1292 0 m 1,0,-1
 827 0 l 1,1,-1
 827 -381 l 1,2,-1
 651 -381 l 1,3,-1
 651 0 l 1,4,-1
 201 0 l 1,5,-1
 201 1462 l 1,6,-1
 371 1462 l 1,7,-1
 371 154 l 1,8,-1
 1122 154 l 1,9,-1
 1122 1462 l 1,10,-1
 1292 1462 l 1,11,-1
 1292 0 l 1,0,-1
EndSplineSet
EndChar

StartChar: afii10018
Encoding: 1041 1041 427
Width: 1255
GlyphClass: 2
Flags: W
LayerCount: 2
Fore
SplineSet
1149 426 m 0,0,1
 1149 208 1149 208 1019.5 104 c 128,-1,2
 890 0 890 0 629 0 c 2,3,-1
 201 0 l 1,4,-1
 201 1462 l 1,5,-1
 1063 1462 l 1,6,-1
 1063 1311 l 1,7,-1
 371 1311 l 1,8,-1
 371 838 l 1,9,-1
 598 838 l 2,10,11
 791 838 791 838 912 793.5 c 128,-1,12
 1033 749 1033 749 1091 662 c 128,-1,13
 1149 575 1149 575 1149 426 c 0,0,1
371 147 m 1,14,-1
 610 147 l 2,15,16
 800 147 800 147 886.5 212 c 128,-1,17
 973 277 973 277 973 426 c 0,18,19
 973 568 973 568 885 628 c 128,-1,20
 797 688 797 688 578 688 c 2,21,-1
 371 688 l 1,22,-1
 371 147 l 1,14,-1
EndSplineSet
EndChar

StartChar: afii10021
Encoding: 1044 1044 430
Width: 1399
GlyphClass: 2
Flags: W
LayerCount: 2
Fore
SplineSet
1354 -381 m 1,0,-1
 1192 -381 l 1,1,-1
 1192 0 l 1,2,-1
 176 0 l 1,3,-1
 176 -381 l 1,4,-1
 14 -381 l 1,5,-1
 14 154 l 1,6,-1
 127 154 l 1,7,8
 281 413 281 413 390.5 784 c 128,-1,9
 500 1155 500 1155 512 1462 c 1,10,-1
 1169 1462 l 1,11,-1
 1169 154 l 1,12,-1
 1354 154 l 1,13,-1
 1354 -381 l 1,0,-1
999 154 m 1,14,-1
 999 1309 l 1,15,-1
 666 1309 l 1,16,17
 648 1067 648 1067 545 727.5 c 128,-1,18
 442 388 442 388 305 154 c 1,19,-1
 999 154 l 1,14,-1
EndSplineSet
EndChar

StartChar: afii10024
Encoding: 1046 1046 432
Width: 1729
GlyphClass: 2
Flags: W
LayerCount: 2
Fore
SplineSet
598 752 m 1,0,-1
 23 1462 l 1,1,-1
 213 1462 l 1,2,-1
 782 754 l 1,3,-1
 782 1462 l 1,4,-1
 946 1462 l 1,5,-1
 946 754 l 1,6,-1
 1516 1462 l 1,7,-1
 1706 1462 l 1,8,-1
 1130 754 l 1,9,-1
 1724 0 l 1,10,-1
 1528 0 l 1,11,-1
 946 741 l 1,12,-1
 946 0 l 1,13,-1
 782 0 l 1,14,-1
 782 741 l 1,15,-1
 201 0 l 1,16,-1
 2 0 l 1,17,-1
 598 752 l 1,0,-1
EndSplineSet
EndChar

StartChar: afii10025
Encoding: 1047 1047 433
Width: 1190
GlyphClass: 2
Flags: W
LayerCount: 2
Fore
SplineSet
1049 1120 m 0,0,1
 1049 976 1049 976 957.5 886 c 128,-1,2
 866 796 866 796 705 772 c 1,3,-1
 705 764 l 1,4,5
 888 739 888 739 982.5 649 c 128,-1,6
 1077 559 1077 559 1077 414 c 0,7,8
 1077 209 1077 209 924 94.5 c 128,-1,9
 771 -20 771 -20 492 -20 c 0,10,11
 237 -20 237 -20 74 59 c 1,12,-1
 74 217 l 1,13,14
 170 171 170 171 281.5 146 c 128,-1,15
 393 121 393 121 496 121 c 0,16,17
 694 121 694 121 795.5 196 c 128,-1,18
 897 271 897 271 897 412 c 0,19,20
 897 546 897 546 784.5 615 c 128,-1,21
 672 684 672 684 449 684 c 2,22,-1
 231 684 l 1,23,-1
 231 827 l 1,24,-1
 440 827 l 2,25,26
 645 827 645 827 757.5 900.5 c 128,-1,27
 870 974 870 974 870 1106 c 0,28,29
 870 1213 870 1213 789 1277 c 128,-1,30
 708 1341 708 1341 571 1341 c 0,31,32
 461 1341 461 1341 372 1316 c 128,-1,33
 283 1291 283 1291 166 1217 c 1,34,-1
 82 1331 l 1,35,36
 183 1406 183 1406 308.5 1444.5 c 128,-1,37
 434 1483 434 1483 569 1483 c 0,38,39
 794 1483 794 1483 921.5 1384.5 c 128,-1,40
 1049 1286 1049 1286 1049 1120 c 0,0,1
EndSplineSet
EndChar

StartChar: afii10026
Encoding: 1048 1048 434
Width: 1561
GlyphClass: 2
Flags: W
LayerCount: 2
Fore
SplineSet
203 1462 m 1,0,-1
 362 1462 l 1,1,-1
 362 649 l 2,2,3
 362 424 362 424 348 242 c 1,4,-1
 356 242 l 1,5,-1
 1176 1462 l 1,6,-1
 1362 1462 l 1,7,-1
 1362 0 l 1,8,-1
 1202 0 l 1,9,-1
 1202 805 l 2,10,11
 1202 1006 1202 1006 1219 1227 c 1,12,-1
 1210 1227 l 1,13,-1
 389 0 l 1,14,-1
 203 0 l 1,15,-1
 203 1462 l 1,0,-1
EndSplineSet
EndChar

StartChar: afii10028
Encoding: 1050 1050 436
Width: 1253
GlyphClass: 2
Flags: W
LayerCount: 2
Fore
SplineSet
1253 0 m 1,0,-1
 1047 0 l 1,1,-1
 371 741 l 1,2,-1
 371 0 l 1,3,-1
 201 0 l 1,4,-1
 201 1462 l 1,5,-1
 371 1462 l 1,6,-1
 371 754 l 1,7,-1
 1030 1462 l 1,8,-1
 1225 1462 l 1,9,-1
 578 752 l 1,10,-1
 1253 0 l 1,0,-1
EndSplineSet
EndChar

StartChar: afii10029
Encoding: 1051 1051 437
Width: 1442
GlyphClass: 2
Flags: W
LayerCount: 2
Fore
SplineSet
1241 0 m 1,0,-1
 1071 0 l 1,1,-1
 1071 1311 l 1,2,-1
 596 1311 l 1,3,-1
 565 1071 l 2,4,5
 504 592 504 592 457.5 370.5 c 128,-1,6
 411 149 411 149 335 62 c 128,-1,7
 259 -25 259 -25 133 -23 c 1,8,9
 59 -23 59 -23 0 2 c 1,10,-1
 0 145 l 1,11,12
 54 119 54 119 113 119 c 0,13,14
 166 119 166 119 205.5 162.5 c 128,-1,15
 245 206 245 206 275.5 313.5 c 128,-1,16
 306 421 306 421 352.5 721.5 c 128,-1,17
 399 1022 399 1022 455 1462 c 1,18,-1
 1241 1462 l 1,19,-1
 1241 0 l 1,0,-1
EndSplineSet
EndChar

StartChar: afii10037
Encoding: 1059 1059 445
Width: 1272
GlyphClass: 2
Flags: W
LayerCount: 2
Fore
SplineSet
293 -20 m 0,0,1
 182 -20 182 -20 98 10 c 1,2,-1
 98 176 l 1,3,4
 191 133 191 133 287 133 c 0,5,6
 397 133 397 133 463.5 183.5 c 128,-1,7
 530 234 530 234 596 373 c 1,8,-1
 27 1462 l 1,9,-1
 215 1462 l 1,10,-1
 647 631 l 2,11,12
 672 582 672 582 686 535 c 1,13,-1
 694 535 l 1,14,15
 722 619 722 619 733 641 c 1,16,-1
 1092 1462 l 1,17,-1
 1272 1462 l 1,18,-1
 805 416 l 2,19,20
 721 229 721 229 653.5 144 c 128,-1,21
 586 59 586 59 501.5 19.5 c 128,-1,22
 417 -20 417 -20 293 -20 c 0,0,1
EndSplineSet
EndChar

StartChar: afii10040
Encoding: 1062 1062 448
Width: 1509
GlyphClass: 2
Flags: W
LayerCount: 2
Fore
SplineSet
1292 154 m 1,0,-1
 1464 154 l 1,1,-1
 1464 -381 l 1,2,-1
 1303 -381 l 1,3,-1
 1303 0 l 1,4,-1
 201 0 l 1,5,-1
 201 1462 l 1,6,-1
 371 1462 l 1,7,-1
 371 154 l 1,8,-1
 1122 154 l 1,9,-1
 1122 1462 l 1,10,-1
 1292 1462 l 1,11,-1
 1292 154 l 1,0,-1
EndSplineSet
EndChar

StartChar: afii10041
Encoding: 1063 1063 449
Width: 1423
GlyphClass: 2
Flags: W
LayerCount: 2
Fore
SplineSet
1223 0 m 1,0,-1
 1053 0 l 1,1,-1
 1053 604 l 1,2,3
 904 551 904 551 805 531.5 c 128,-1,4
 706 512 706 512 600 512 c 0,5,6
 393 512 393 512 281.5 607 c 128,-1,7
 170 702 170 702 170 881 c 2,8,-1
 170 1462 l 1,9,-1
 340 1462 l 1,10,-1
 340 901 l 2,11,12
 340 780 340 780 403.5 722 c 128,-1,13
 467 664 467 664 610 664 c 0,14,15
 707 664 707 664 795.5 678.5 c 128,-1,16
 884 693 884 693 1053 748 c 1,17,-1
 1053 1462 l 1,18,-1
 1223 1462 l 1,19,-1
 1223 0 l 1,0,-1
EndSplineSet
EndChar

StartChar: afii10042
Encoding: 1064 1064 450
Width: 2114
GlyphClass: 2
Flags: W
LayerCount: 2
Fore
SplineSet
1913 0 m 1,0,-1
 201 0 l 1,1,-1
 201 1462 l 1,2,-1
 371 1462 l 1,3,-1
 371 154 l 1,4,-1
 971 154 l 1,5,-1
 971 1462 l 1,6,-1
 1141 1462 l 1,7,-1
 1141 154 l 1,8,-1
 1741 154 l 1,9,-1
 1741 1462 l 1,10,-1
 1913 1462 l 1,11,-1
 1913 0 l 1,0,-1
EndSplineSet
EndChar

StartChar: afii10043
Encoding: 1065 1065 451
Width: 2116
GlyphClass: 2
Flags: W
LayerCount: 2
Fore
SplineSet
201 0 m 1,0,-1
 201 1462 l 1,1,-1
 371 1462 l 1,2,-1
 371 154 l 1,3,-1
 954 154 l 1,4,-1
 954 1462 l 1,5,-1
 1126 1462 l 1,6,-1
 1126 154 l 1,7,-1
 1710 154 l 1,8,-1
 1710 1462 l 1,9,-1
 1880 1462 l 1,10,-1
 1880 154 l 1,11,-1
 2052 154 l 1,12,-1
 2052 -381 l 1,13,-1
 1890 -381 l 1,14,-1
 1890 0 l 1,15,-1
 201 0 l 1,0,-1
EndSplineSet
EndChar

StartChar: afii10044
Encoding: 1066 1066 452
Width: 1409
GlyphClass: 2
Flags: W
LayerCount: 2
Fore
SplineSet
1303 426 m 0,0,1
 1303 220 1303 220 1173.5 110 c 128,-1,2
 1044 0 1044 0 795 0 c 2,3,-1
 354 0 l 1,4,-1
 354 1311 l 1,5,-1
 18 1311 l 1,6,-1
 18 1462 l 1,7,-1
 524 1462 l 1,8,-1
 524 838 l 1,9,-1
 768 838 l 2,10,11
 1029 838 1029 838 1166 735.5 c 128,-1,12
 1303 633 1303 633 1303 426 c 0,0,1
524 147 m 1,13,-1
 776 147 l 2,14,15
 957 147 957 147 1041.5 216.5 c 128,-1,16
 1126 286 1126 286 1126 426 c 0,17,18
 1126 562 1126 562 1038.5 625 c 128,-1,19
 951 688 951 688 748 688 c 2,20,-1
 524 688 l 1,21,-1
 524 147 l 1,13,-1
EndSplineSet
EndChar

StartChar: afii10045
Encoding: 1067 1067 453
Width: 1747
GlyphClass: 2
Flags: W
LayerCount: 2
Fore
SplineSet
201 0 m 1,0,-1
 201 1462 l 1,1,-1
 371 1462 l 1,2,-1
 371 838 l 1,3,-1
 610 838 l 2,4,5
 871 838 871 838 1008 735.5 c 128,-1,6
 1145 633 1145 633 1145 426 c 0,7,8
 1145 220 1145 220 1015.5 110 c 128,-1,9
 886 0 886 0 637 0 c 2,10,-1
 201 0 l 1,0,-1
371 145 m 1,11,-1
 618 145 l 2,12,13
 799 145 799 145 884 215.5 c 128,-1,14
 969 286 969 286 969 426 c 0,15,16
 969 563 969 563 879.5 624.5 c 128,-1,17
 790 686 790 686 590 686 c 2,18,-1
 371 686 l 1,19,-1
 371 145 l 1,11,-1
1546 0 m 1,20,-1
 1376 0 l 1,21,-1
 1376 1462 l 1,22,-1
 1546 1462 l 1,23,-1
 1546 0 l 1,20,-1
EndSplineSet
EndChar

StartChar: afii10046
Encoding: 1068 1068 454
Width: 1317
GlyphClass: 2
Flags: W
LayerCount: 2
Fore
SplineSet
1210 426 m 0,0,1
 1210 223 1210 223 1074.5 111.5 c 128,-1,2
 939 0 939 0 688 0 c 2,3,-1
 201 0 l 1,4,-1
 201 1462 l 1,5,-1
 371 1462 l 1,6,-1
 371 838 l 1,7,-1
 662 838 l 2,8,9
 929 838 929 838 1069.5 732.5 c 128,-1,10
 1210 627 1210 627 1210 426 c 0,0,1
371 147 m 1,11,-1
 670 147 l 2,12,13
 1034 147 1034 147 1034 426 c 0,14,15
 1034 561 1034 561 940.5 624.5 c 128,-1,16
 847 688 847 688 641 688 c 2,17,-1
 371 688 l 1,18,-1
 371 147 l 1,11,-1
EndSplineSet
EndChar

StartChar: afii10047
Encoding: 1069 1069 455
Width: 1290
GlyphClass: 2
Flags: W
LayerCount: 2
Fore
SplineSet
467 1331 m 0,0,1
 295 1331 295 1331 133 1255 c 1,2,-1
 61 1399 l 1,3,4
 233 1483 233 1483 469 1483 c 0,5,6
 686 1483 686 1483 842.5 1395 c 128,-1,7
 999 1307 999 1307 1080 1144 c 128,-1,8
 1161 981 1161 981 1161 760 c 0,9,10
 1161 384 1161 384 979 182 c 128,-1,11
 797 -20 797 -20 455 -20 c 0,12,13
 228 -20 228 -20 72 37 c 1,14,-1
 72 186 l 1,15,16
 155 165 155 165 241 148 c 128,-1,17
 327 131 327 131 426 131 c 0,18,19
 697 131 697 131 835 275.5 c 128,-1,20
 973 420 973 420 981 692 c 1,21,-1
 262 692 l 1,22,-1
 262 844 l 1,23,-1
 979 844 l 1,24,25
 957 1073 957 1073 821.5 1202 c 128,-1,26
 686 1331 686 1331 467 1331 c 0,0,1
EndSplineSet
EndChar

StartChar: afii10048
Encoding: 1070 1070 456
Width: 2150
GlyphClass: 2
Flags: W
LayerCount: 2
Fore
SplineSet
2023 733 m 0,0,1
 2023 379 2023 379 1852.5 179.5 c 128,-1,2
 1682 -20 1682 -20 1378 -20 c 0,3,4
 1077 -20 1077 -20 906.5 163.5 c 128,-1,5
 736 347 736 347 725 688 c 1,6,-1
 371 688 l 1,7,-1
 371 0 l 1,8,-1
 201 0 l 1,9,-1
 201 1462 l 1,10,-1
 371 1462 l 1,11,-1
 371 840 l 1,12,-1
 727 840 l 1,13,14
 750 1151 750 1151 918.5 1318 c 128,-1,15
 1087 1485 1087 1485 1374 1485 c 0,16,17
 1681 1485 1681 1485 1852 1284.5 c 128,-1,18
 2023 1084 2023 1084 2023 733 c 0,0,1
903 733 m 0,19,20
 903 437 903 437 1022 283 c 128,-1,21
 1141 129 1141 129 1372 129 c 0,22,23
 1606 129 1606 129 1724.5 282 c 128,-1,24
 1843 435 1843 435 1843 733 c 256,25,26
 1843 1031 1843 1031 1725.5 1182 c 128,-1,27
 1608 1333 1608 1333 1376 1333 c 0,28,29
 1143 1333 1143 1333 1023 1180.5 c 128,-1,30
 903 1028 903 1028 903 733 c 0,19,20
EndSplineSet
EndChar

StartChar: afii10049
Encoding: 1071 1071 457
Width: 1303
GlyphClass: 2
Flags: W
LayerCount: 2
Fore
SplineSet
635 610 m 1,0,-1
 252 0 l 1,1,-1
 51 0 l 1,2,-1
 461 639 l 1,3,4
 300 690 300 690 227 793.5 c 128,-1,5
 154 897 154 897 154 1055 c 0,6,7
 154 1251 154 1251 289.5 1356.5 c 128,-1,8
 425 1462 425 1462 700 1462 c 2,9,-1
 1102 1462 l 1,10,-1
 1102 0 l 1,11,-1
 932 0 l 1,12,-1
 932 610 l 1,13,-1
 635 610 l 1,0,-1
932 1315 m 1,14,-1
 705 1315 l 2,15,16
 522 1315 522 1315 427 1252 c 128,-1,17
 332 1189 332 1189 332 1047 c 0,18,19
 332 756 332 756 711 756 c 2,20,-1
 932 756 l 1,21,-1
 932 1315 l 1,14,-1
EndSplineSet
EndChar

StartChar: afii10066
Encoding: 1073 1073 459
Width: 1221
GlyphClass: 2
Flags: W
LayerCount: 2
Fore
SplineSet
119 657 m 0,0,1
 119 1017 119 1017 225 1218.5 c 128,-1,2
 331 1420 331 1420 561 1470 c 0,3,4
 847 1531 847 1531 1065 1569 c 1,5,-1
 1096 1423 l 1,6,7
 749 1365 749 1365 600 1331 c 0,8,9
 455 1298 455 1298 382.5 1175 c 128,-1,10
 310 1052 310 1052 303 840 c 1,11,-1
 315 840 l 1,12,13
 377 924 377 924 475 972 c 128,-1,14
 573 1020 573 1020 680 1020 c 0,15,16
 882 1020 882 1020 995 889 c 128,-1,17
 1108 758 1108 758 1108 526 c 0,18,19
 1108 269 1108 269 977 124.5 c 128,-1,20
 846 -20 846 -20 612 -20 c 0,21,22
 381 -20 381 -20 250 157 c 128,-1,23
 119 334 119 334 119 657 c 0,0,1
627 119 m 0,24,25
 932 119 932 119 932 508 c 0,26,27
 932 879 932 879 655 879 c 0,28,29
 579 879 579 879 508.5 847.5 c 128,-1,30
 438 816 438 816 379.5 764 c 128,-1,31
 321 712 321 712 289 657 c 1,32,33
 289 394 289 394 372 256.5 c 128,-1,34
 455 119 455 119 627 119 c 0,24,25
EndSplineSet
EndChar

StartChar: afii10067
Encoding: 1074 1074 460
Width: 1165
GlyphClass: 2
Flags: W
LayerCount: 2
Fore
SplineSet
1065 821 m 0,0,1
 1065 714 1065 714 1003.5 658.5 c 128,-1,2
 942 603 942 603 831 584 c 1,3,-1
 831 575 l 1,4,5
 971 556 971 556 1035.5 493 c 128,-1,6
 1100 430 1100 430 1100 319 c 0,7,8
 1100 166 1100 166 987.5 83 c 128,-1,9
 875 0 875 0 659 0 c 2,10,-1
 176 0 l 1,11,-1
 176 1096 l 1,12,-1
 657 1096 l 2,13,14
 1065 1096 1065 1096 1065 821 c 0,0,1
934 330 m 0,15,16
 934 419 934 419 866.5 459.5 c 128,-1,17
 799 500 799 500 643 500 c 2,18,-1
 342 500 l 1,19,-1
 342 139 l 1,20,-1
 647 139 l 2,21,22
 934 139 934 139 934 330 c 0,15,16
903 805 m 0,23,24
 903 885 903 885 841.5 918.5 c 128,-1,25
 780 952 780 952 655 952 c 2,26,-1
 342 952 l 1,27,-1
 342 643 l 1,28,-1
 623 643 l 2,29,30
 777 643 777 643 840 681 c 128,-1,31
 903 719 903 719 903 805 c 0,23,24
EndSplineSet
EndChar

StartChar: afii10068
Encoding: 1075 1075 461
Width: 877
GlyphClass: 2
Flags: W
LayerCount: 2
Fore
SplineSet
836 954 m 1,0,-1
 342 954 l 1,1,-1
 342 0 l 1,2,-1
 176 0 l 1,3,-1
 176 1096 l 1,4,-1
 836 1096 l 1,5,-1
 836 954 l 1,0,-1
EndSplineSet
EndChar

StartChar: afii10069
Encoding: 1076 1076 462
Width: 1171
GlyphClass: 2
Flags: W
LayerCount: 2
Fore
SplineSet
1128 -379 m 1,0,-1
 967 -379 l 1,1,-1
 967 0 l 1,2,-1
 201 0 l 1,3,-1
 201 -379 l 1,4,-1
 41 -379 l 1,5,-1
 41 143 l 1,6,-1
 127 143 l 1,7,8
 261 325 261 325 337 570 c 128,-1,9
 413 815 413 815 416 1096 c 1,10,-1
 971 1096 l 1,11,-1
 971 143 l 1,12,-1
 1128 143 l 1,13,-1
 1128 -379 l 1,0,-1
811 143 m 1,14,-1
 811 965 l 1,15,-1
 565 965 l 1,16,17
 552 743 552 743 479.5 515.5 c 128,-1,18
 407 288 407 288 299 143 c 1,19,-1
 811 143 l 1,14,-1
EndSplineSet
EndChar

StartChar: afii10072
Encoding: 1078 1078 464
Width: 1507
GlyphClass: 2
Flags: W
LayerCount: 2
Fore
SplineSet
676 1094 m 1,0,-1
 829 1094 l 1,1,-1
 829 563 l 1,2,-1
 1282 1094 l 1,3,-1
 1464 1094 l 1,4,-1
 1006 563 l 1,5,-1
 1503 0 l 1,6,-1
 1311 0 l 1,7,-1
 829 555 l 1,8,-1
 829 0 l 1,9,-1
 676 0 l 1,10,-1
 676 555 l 1,11,-1
 195 0 l 1,12,-1
 4 0 l 1,13,-1
 500 563 l 1,14,-1
 43 1094 l 1,15,-1
 225 1094 l 1,16,-1
 676 563 l 1,17,-1
 676 1094 l 1,0,-1
EndSplineSet
EndChar

StartChar: afii10073
Encoding: 1079 1079 465
Width: 989
GlyphClass: 2
Flags: W
LayerCount: 2
Fore
SplineSet
385 641 m 2,0,1
 696 641 696 641 696 813 c 0,2,3
 696 975 696 975 444 975 c 0,4,5
 367 975 367 975 304 961 c 128,-1,6
 241 947 241 947 139 905 c 1,7,-1
 80 1040 l 1,8,9
 250 1116 250 1116 451 1116 c 0,10,11
 640 1116 640 1116 749 1038.5 c 128,-1,12
 858 961 858 961 858 827 c 0,13,14
 858 643 858 643 653 586 c 1,15,-1
 653 578 l 1,16,17
 779 541 779 541 837 472.5 c 128,-1,18
 895 404 895 404 895 301 c 0,19,20
 895 149 895 149 772.5 64.5 c 128,-1,21
 650 -20 650 -20 434 -20 c 0,22,23
 197 -20 197 -20 68 51 c 1,24,-1
 68 203 l 1,25,26
 251 117 251 117 438 117 c 0,27,28
 582 117 582 117 655.5 166.5 c 128,-1,29
 729 216 729 216 729 309 c 0,30,31
 729 500 729 500 418 500 c 2,32,-1
 266 500 l 1,33,-1
 266 641 l 1,34,-1
 385 641 l 2,0,1
EndSplineSet
EndChar

StartChar: afii10074
Encoding: 1080 1080 466
Width: 1298
GlyphClass: 2
Flags: W
LayerCount: 2
Fore
SplineSet
332 1096 m 1,0,-1
 332 401 l 1,1,-1
 325 219 l 1,2,-1
 322 162 l 1,3,-1
 915 1096 l 1,4,-1
 1122 1096 l 1,5,-1
 1122 0 l 1,6,-1
 967 0 l 1,7,-1
 967 670 l 1,8,-1
 970 802 l 1,9,-1
 975 932 l 1,10,-1
 383 0 l 1,11,-1
 176 0 l 1,12,-1
 176 1096 l 1,13,-1
 332 1096 l 1,0,-1
EndSplineSet
EndChar

StartChar: afii10076
Encoding: 1082 1082 468
Width: 1063
GlyphClass: 2
Flags: W
LayerCount: 2
Fore
SplineSet
815 1096 m 1,0,-1
 997 1096 l 1,1,-1
 524 567 l 1,2,-1
 1036 0 l 1,3,-1
 842 0 l 1,4,-1
 342 555 l 1,5,-1
 342 0 l 1,6,-1
 176 0 l 1,7,-1
 176 1096 l 1,8,-1
 342 1096 l 1,9,-1
 342 563 l 1,10,-1
 815 1096 l 1,0,-1
EndSplineSet
EndChar

StartChar: afii10077
Encoding: 1083 1083 469
Width: 1169
GlyphClass: 2
Flags: W
LayerCount: 2
Fore
SplineSet
993 0 m 1,0,-1
 825 0 l 1,1,-1
 825 954 l 1,2,-1
 496 954 l 1,3,4
 469 598 469 598 421 389 c 128,-1,5
 373 180 373 180 296.5 83 c 128,-1,6
 220 -14 220 -14 102 -14 c 0,7,8
 48 -14 48 -14 16 -2 c 1,9,-1
 16 121 l 1,10,11
 38 115 38 115 66 115 c 0,12,13
 181 115 181 115 249 358 c 128,-1,14
 317 601 317 601 352 1096 c 1,15,-1
 993 1096 l 1,16,-1
 993 0 l 1,0,-1
EndSplineSet
EndChar

StartChar: afii10078
Encoding: 1084 1084 470
Width: 1505
GlyphClass: 2
Flags: W
LayerCount: 2
Fore
SplineSet
745 160 m 1,0,-1
 776 253 l 1,1,-1
 819 371 l 1,2,-1
 1116 1094 l 1,3,-1
 1327 1094 l 1,4,-1
 1327 0 l 1,5,-1
 1180 0 l 1,6,-1
 1180 905 l 1,7,-1
 1160 847 l 1,8,-1
 1102 694 l 1,9,-1
 819 0 l 1,10,-1
 680 0 l 1,11,-1
 397 696 l 1,12,13
 344 830 344 830 324 905 c 1,14,-1
 324 0 l 1,15,-1
 176 0 l 1,16,-1
 176 1094 l 1,17,-1
 379 1094 l 1,18,-1
 666 399 l 1,19,20
 709 289 709 289 745 160 c 1,0,-1
EndSplineSet
EndChar

StartChar: afii10079
Encoding: 1085 1085 471
Width: 1298
GlyphClass: 2
Flags: W
LayerCount: 2
Fore
SplineSet
342 1096 m 1,0,-1
 342 637 l 1,1,-1
 956 637 l 1,2,-1
 956 1096 l 1,3,-1
 1122 1096 l 1,4,-1
 1122 0 l 1,5,-1
 956 0 l 1,6,-1
 956 494 l 1,7,-1
 342 494 l 1,8,-1
 342 0 l 1,9,-1
 176 0 l 1,10,-1
 176 1096 l 1,11,-1
 342 1096 l 1,0,-1
EndSplineSet
EndChar

StartChar: afii10081
Encoding: 1087 1087 473
Width: 1272
GlyphClass: 2
Flags: W
LayerCount: 2
Fore
SplineSet
342 0 m 1,0,-1
 176 0 l 1,1,-1
 176 1096 l 1,2,-1
 1096 1096 l 1,3,-1
 1096 0 l 1,4,-1
 928 0 l 1,5,-1
 928 952 l 1,6,-1
 342 952 l 1,7,-1
 342 0 l 1,0,-1
EndSplineSet
EndChar

StartChar: afii10084
Encoding: 1090 1090 476
Width: 956
GlyphClass: 2
Flags: W
LayerCount: 2
Fore
SplineSet
915 954 m 1,0,-1
 559 954 l 1,1,-1
 559 0 l 1,2,-1
 393 0 l 1,3,-1
 393 954 l 1,4,-1
 41 954 l 1,5,-1
 41 1096 l 1,6,-1
 915 1096 l 1,7,-1
 915 954 l 1,0,-1
EndSplineSet
EndChar

StartChar: afii10086
Encoding: 1092 1092 478
Width: 1464
GlyphClass: 2
Flags: W
LayerCount: 2
Fore
SplineSet
1350 549 m 0,0,1
 1350 300 1350 300 1208.5 152.5 c 128,-1,2
 1067 5 1067 5 813 -16 c 1,3,-1
 813 -492 l 1,4,-1
 649 -492 l 1,5,-1
 649 -16 l 1,6,7
 401 3 401 3 257 154 c 128,-1,8
 113 305 113 305 113 549 c 0,9,10
 113 798 113 798 256.5 945 c 128,-1,11
 400 1092 400 1092 655 1112 c 1,12,-1
 655 1556 l 1,13,-1
 813 1556 l 1,14,-1
 813 1112 l 1,15,16
 1064 1089 1064 1089 1207 939 c 128,-1,17
 1350 789 1350 789 1350 549 c 0,0,1
287 549 m 0,18,19
 287 357 287 357 375 248 c 128,-1,20
 463 139 463 139 655 121 c 1,21,-1
 655 973 l 1,22,23
 470 956 470 956 378.5 852.5 c 128,-1,24
 287 749 287 749 287 549 c 0,18,19
1178 549 m 0,25,26
 1178 932 1178 932 813 971 c 1,27,-1
 813 121 l 1,28,29
 1003 140 1003 140 1090.5 249 c 128,-1,30
 1178 358 1178 358 1178 549 c 0,25,26
EndSplineSet
EndChar

StartChar: afii10088
Encoding: 1094 1094 480
Width: 1282
GlyphClass: 2
Flags: W
LayerCount: 2
Fore
SplineSet
1245 -379 m 1,0,-1
 1079 -379 l 1,1,-1
 1079 0 l 1,2,-1
 176 0 l 1,3,-1
 176 1096 l 1,4,-1
 342 1096 l 1,5,-1
 342 143 l 1,6,-1
 924 143 l 1,7,-1
 924 1096 l 1,8,-1
 1090 1096 l 1,9,-1
 1090 143 l 1,10,-1
 1245 143 l 1,11,-1
 1245 -379 l 1,0,-1
EndSplineSet
EndChar

StartChar: afii10089
Encoding: 1095 1095 481
Width: 1245
GlyphClass: 2
Flags: W
LayerCount: 2
Fore
SplineSet
322 1096 m 1,0,-1
 322 696 l 2,1,2
 322 504 322 504 541 504 c 0,3,4
 632 504 632 504 715 532 c 128,-1,5
 798 560 798 560 903 627 c 1,6,-1
 903 1096 l 1,7,-1
 1069 1096 l 1,8,-1
 1069 0 l 1,9,-1
 903 0 l 1,10,-1
 903 496 l 1,11,12
 798 424 798 424 708.5 394.5 c 128,-1,13
 619 365 619 365 506 365 c 0,14,15
 342 365 342 365 249 451 c 128,-1,16
 156 537 156 537 156 684 c 2,17,-1
 156 1096 l 1,18,-1
 322 1096 l 1,0,-1
EndSplineSet
EndChar

StartChar: afii10090
Encoding: 1096 1096 482
Width: 1823
GlyphClass: 2
Flags: W
LayerCount: 2
Fore
SplineSet
993 143 m 1,0,-1
 1479 143 l 1,1,-1
 1479 1096 l 1,2,-1
 1647 1096 l 1,3,-1
 1647 0 l 1,4,-1
 176 0 l 1,5,-1
 176 1096 l 1,6,-1
 342 1096 l 1,7,-1
 342 143 l 1,8,-1
 827 143 l 1,9,-1
 827 1096 l 1,10,-1
 993 1096 l 1,11,-1
 993 143 l 1,0,-1
EndSplineSet
EndChar

StartChar: afii10091
Encoding: 1097 1097 483
Width: 1837
GlyphClass: 2
Flags: W
LayerCount: 2
Fore
SplineSet
993 143 m 1,0,-1
 1479 143 l 1,1,-1
 1479 1094 l 1,2,-1
 1645 1094 l 1,3,-1
 1645 143 l 1,4,-1
 1802 143 l 1,5,-1
 1802 -377 l 1,6,-1
 1634 -377 l 1,7,-1
 1634 0 l 1,8,-1
 176 0 l 1,9,-1
 176 1094 l 1,10,-1
 342 1094 l 1,11,-1
 342 143 l 1,12,-1
 827 143 l 1,13,-1
 827 1094 l 1,14,-1
 993 1094 l 1,15,-1
 993 143 l 1,0,-1
EndSplineSet
EndChar

StartChar: afii10092
Encoding: 1098 1098 484
Width: 1423
GlyphClass: 2
Flags: W
LayerCount: 2
Fore
SplineSet
557 643 m 1,0,-1
 870 643 l 2,1,2
 1094 643 1094 643 1201.5 566 c 128,-1,3
 1309 489 1309 489 1309 334 c 0,4,5
 1309 168 1309 168 1197.5 84 c 128,-1,6
 1086 0 1086 0 866 0 c 2,7,-1
 391 0 l 1,8,-1
 391 954 l 1,9,-1
 41 954 l 1,10,-1
 41 1096 l 1,11,-1
 557 1096 l 1,12,-1
 557 643 l 1,0,-1
1145 324 m 0,13,14
 1145 417 1145 417 1083 458.5 c 128,-1,15
 1021 500 1021 500 864 500 c 2,16,-1
 557 500 l 1,17,-1
 557 139 l 1,18,-1
 870 139 l 2,19,20
 1145 139 1145 139 1145 324 c 0,13,14
EndSplineSet
EndChar

StartChar: afii10093
Encoding: 1099 1099 485
Width: 1577
GlyphClass: 2
Flags: W
LayerCount: 2
Fore
SplineSet
342 643 m 1,0,-1
 641 643 l 2,1,2
 850 643 850 643 950.5 565.5 c 128,-1,3
 1051 488 1051 488 1051 334 c 0,4,5
 1051 169 1051 169 944.5 84.5 c 128,-1,6
 838 0 838 0 631 0 c 2,7,-1
 176 0 l 1,8,-1
 176 1096 l 1,9,-1
 342 1096 l 1,10,-1
 342 643 l 1,0,-1
1401 0 m 1,11,-1
 1235 0 l 1,12,-1
 1235 1096 l 1,13,-1
 1401 1096 l 1,14,-1
 1401 0 l 1,11,-1
342 500 m 1,15,-1
 342 139 l 1,16,-1
 623 139 l 2,17,18
 887 139 887 139 887 324 c 0,19,20
 887 416 887 416 826 458 c 128,-1,21
 765 500 765 500 618 500 c 2,22,-1
 342 500 l 1,15,-1
EndSplineSet
EndChar

StartChar: afii10094
Encoding: 1100 1100 486
Width: 1212
GlyphClass: 2
Flags: W
LayerCount: 2
Fore
SplineSet
342 643 m 1,0,-1
 680 643 l 2,1,2
 1100 643 1100 643 1100 334 c 0,3,4
 1100 172 1100 172 990.5 86 c 128,-1,5
 881 0 881 0 670 0 c 2,6,-1
 176 0 l 1,7,-1
 176 1096 l 1,8,-1
 342 1096 l 1,9,-1
 342 643 l 1,0,-1
342 500 m 1,10,-1
 342 139 l 1,11,-1
 662 139 l 2,12,13
 794 139 794 139 864 185 c 128,-1,14
 934 231 934 231 934 324 c 0,15,16
 934 415 934 415 869.5 457.5 c 128,-1,17
 805 500 805 500 657 500 c 2,18,-1
 342 500 l 1,10,-1
EndSplineSet
EndChar

StartChar: afii10095
Encoding: 1101 1101 487
Width: 1008
GlyphClass: 2
Flags: W
LayerCount: 2
Fore
SplineSet
342 -20 m 0,0,1
 175 -20 175 -20 57 37 c 1,2,-1
 57 184 l 1,3,4
 117 161 117 161 187 143 c 128,-1,5
 257 125 257 125 348 125 c 0,6,7
 522 125 522 125 616.5 218 c 128,-1,8
 711 311 711 311 721 496 c 1,9,-1
 166 496 l 1,10,-1
 166 637 l 1,11,-1
 719 637 l 1,12,13
 703 809 703 809 618.5 889 c 128,-1,14
 534 969 534 969 373 969 c 0,15,16
 270 969 270 969 119 915 c 1,17,-1
 72 1055 l 1,18,19
 127 1081 127 1081 209 1098.5 c 128,-1,20
 291 1116 291 1116 371 1116 c 0,21,22
 627 1116 627 1116 760 969.5 c 128,-1,23
 893 823 893 823 893 547 c 0,24,25
 893 278 893 278 748.5 129 c 128,-1,26
 604 -20 604 -20 342 -20 c 0,0,1
EndSplineSet
EndChar

StartChar: afii10096
Encoding: 1102 1102 488
Width: 1702
GlyphClass: 2
Flags: W
LayerCount: 2
Fore
SplineSet
1587 549 m 0,0,1
 1587 280 1587 280 1458.5 130 c 128,-1,2
 1330 -20 1330 -20 1106 -20 c 0,3,4
 893 -20 893 -20 768 113.5 c 128,-1,5
 643 247 643 247 629 494 c 1,6,-1
 342 494 l 1,7,-1
 342 0 l 1,8,-1
 176 0 l 1,9,-1
 176 1096 l 1,10,-1
 342 1096 l 1,11,-1
 342 637 l 1,12,-1
 631 637 l 1,13,14
 651 865 651 865 777 990.5 c 128,-1,15
 903 1116 903 1116 1110 1116 c 0,16,17
 1330 1116 1330 1116 1458.5 963.5 c 128,-1,18
 1587 811 1587 811 1587 549 c 0,0,1
801 549 m 0,19,20
 801 338 801 338 874 228.5 c 128,-1,21
 947 119 947 119 1108 119 c 0,22,23
 1266 119 1266 119 1340.5 225.5 c 128,-1,24
 1415 332 1415 332 1415 549 c 0,25,26
 1415 759 1415 759 1342 867 c 128,-1,27
 1269 975 1269 975 1108 975 c 256,28,29
 947 975 947 975 874 867 c 128,-1,30
 801 759 801 759 801 549 c 0,19,20
EndSplineSet
EndChar

StartChar: afii10097
Encoding: 1103 1103 489
Width: 1137
GlyphClass: 2
Flags: W
LayerCount: 2
Fore
SplineSet
231 0 m 1,0,-1
 37 0 l 1,1,-1
 352 463 l 1,2,3
 225 491 225 491 157.5 571.5 c 128,-1,4
 90 652 90 652 90 774 c 0,5,6
 90 924 90 924 191 1010 c 128,-1,7
 292 1096 292 1096 473 1096 c 2,8,-1
 961 1096 l 1,9,-1
 961 0 l 1,10,-1
 795 0 l 1,11,-1
 795 438 l 1,12,-1
 518 438 l 1,13,-1
 231 0 l 1,0,-1
252 772 m 0,14,15
 252 582 252 582 528 582 c 2,16,-1
 795 582 l 1,17,-1
 795 952 l 1,18,-1
 494 952 l 2,19,20
 252 952 252 952 252 772 c 0,14,15
EndSplineSet
EndChar

StartChar: afii10099
Encoding: 1106 1106 491
Width: 1257
GlyphClass: 2
Flags: W
LayerCount: 2
Fore
SplineSet
815 -492 m 0,0,1
 736 -492 736 -492 684 -467 c 1,2,-1
 684 -330 l 1,3,4
 742 -350 742 -350 797 -350 c 0,5,6
 926 -350 926 -350 926 -180 c 2,7,-1
 926 670 l 2,8,9
 926 804 926 804 865 870 c 128,-1,10
 804 936 804 936 674 936 c 0,11,12
 501 936 501 936 422.5 842 c 128,-1,13
 344 748 344 748 344 537 c 2,14,-1
 344 0 l 1,15,-1
 176 0 l 1,16,-1
 176 1243 l 1,17,-1
 20 1243 l 1,18,-1
 20 1370 l 1,19,-1
 176 1370 l 1,20,-1
 176 1556 l 1,21,-1
 342 1556 l 1,22,-1
 342 1370 l 1,23,-1
 743 1370 l 1,24,-1
 743 1243 l 1,25,-1
 342 1243 l 1,26,-1
 342 1047 l 2,27,28
 342 963 342 963 334 907 c 1,29,-1
 344 907 l 1,30,31
 393 986 393 986 483.5 1031.5 c 128,-1,32
 574 1077 574 1077 690 1077 c 0,33,34
 891 1077 891 1077 991.5 981.5 c 128,-1,35
 1092 886 1092 886 1092 676 c 2,36,-1
 1092 -166 l 2,37,38
 1092 -322 1092 -322 1023.5 -407 c 128,-1,39
 955 -492 955 -492 815 -492 c 0,0,1
EndSplineSet
EndChar

StartChar: afii10101
Encoding: 1108 1108 493
Width: 1008
GlyphClass: 2
Flags: W
LayerCount: 2
Fore
SplineSet
633 -20 m 0,0,1
 385 -20 385 -20 250 125.5 c 128,-1,2
 115 271 115 271 115 543 c 0,3,4
 115 818 115 818 252.5 967 c 128,-1,5
 390 1116 390 1116 641 1116 c 0,6,7
 723 1116 723 1116 802 1100 c 128,-1,8
 881 1084 881 1084 938 1059 c 1,9,-1
 889 918 l 1,10,11
 746 969 746 969 637 969 c 0,12,13
 473 969 473 969 388 887.5 c 128,-1,14
 303 806 303 806 287 637 c 1,15,-1
 840 637 l 1,16,-1
 840 496 l 1,17,-1
 285 496 l 1,18,19
 294 306 294 306 379 215.5 c 128,-1,20
 464 125 464 125 631 125 c 0,21,22
 771 125 771 125 922 184 c 1,23,-1
 922 37 l 1,24,25
 806 -20 806 -20 633 -20 c 0,0,1
EndSplineSet
EndChar

StartChar: afii10106
Encoding: 1113 1113 498
Width: 1714
GlyphClass: 2
Flags: W
LayerCount: 2
Fore
SplineSet
944 643 m 1,0,-1
 1188 643 l 2,1,2
 1399 643 1399 643 1500.5 565.5 c 128,-1,3
 1602 488 1602 488 1602 334 c 0,4,5
 1602 0 1602 0 1165 0 c 2,6,-1
 754 0 l 1,7,-1
 754 954 l 1,8,-1
 496 954 l 1,9,10
 456 436 456 436 365.5 211 c 128,-1,11
 275 -14 275 -14 104 -14 c 0,12,13
 48 -14 48 -14 16 -2 c 1,14,-1
 16 121 l 1,15,16
 38 115 38 115 66 115 c 0,17,18
 181 115 181 115 249 358 c 128,-1,19
 317 601 317 601 352 1096 c 1,20,-1
 944 1096 l 1,21,-1
 944 643 l 1,0,-1
1436 324 m 0,22,23
 1436 415 1436 415 1373.5 457.5 c 128,-1,24
 1311 500 1311 500 1153 500 c 2,25,-1
 922 500 l 1,26,-1
 922 139 l 1,27,-1
 1159 139 l 2,28,29
 1436 139 1436 139 1436 324 c 0,22,23
EndSplineSet
EndChar

StartChar: afii10107
Encoding: 1114 1114 499
Width: 1815
GlyphClass: 2
Flags: W
LayerCount: 2
Fore
SplineSet
1024 1094 m 1,0,-1
 1024 641 l 1,1,-1
 1280 641 l 2,2,3
 1497 641 1497 641 1598.5 564.5 c 128,-1,4
 1700 488 1700 488 1700 334 c 0,5,6
 1700 0 1700 0 1266 0 c 2,7,-1
 850 0 l 1,8,-1
 850 494 l 1,9,-1
 348 494 l 1,10,-1
 348 0 l 1,11,-1
 176 0 l 1,12,-1
 176 1094 l 1,13,-1
 348 1094 l 1,14,-1
 348 637 l 1,15,-1
 854 637 l 1,16,-1
 854 1094 l 1,17,-1
 1024 1094 l 1,0,-1
1020 500 m 1,18,-1
 1020 139 l 1,19,-1
 1260 139 l 2,20,21
 1536 139 1536 139 1536 324 c 0,22,23
 1536 416 1536 416 1472 458 c 128,-1,24
 1408 500 1408 500 1255 500 c 2,25,-1
 1020 500 l 1,18,-1
EndSplineSet
EndChar

StartChar: afii10193
Encoding: 1119 1119 503
Width: 1272
GlyphClass: 2
Flags: W
LayerCount: 2
Fore
SplineSet
559 0 m 1,0,-1
 176 0 l 1,1,-1
 176 1094 l 1,2,-1
 342 1094 l 1,3,-1
 342 143 l 1,4,-1
 928 143 l 1,5,-1
 928 1094 l 1,6,-1
 1094 1094 l 1,7,-1
 1094 0 l 1,8,-1
 725 0 l 1,9,-1
 725 -377 l 1,10,-1
 559 -377 l 1,11,-1
 559 0 l 1,0,-1
EndSplineSet
EndChar

StartChar: afii10050
Encoding: 1168 1168 504
Width: 1079
GlyphClass: 2
Flags: W
LayerCount: 2
Fore
SplineSet
870 1462 m 1,0,-1
 870 1763 l 1,1,-1
 1032 1763 l 1,2,-1
 1032 1309 l 1,3,-1
 371 1309 l 1,4,-1
 371 0 l 1,5,-1
 201 0 l 1,6,-1
 201 1462 l 1,7,-1
 870 1462 l 1,0,-1
EndSplineSet
EndChar

StartChar: afii10098
Encoding: 1169 1169 505
Width: 877
GlyphClass: 2
Flags: W
LayerCount: 2
Fore
SplineSet
836 967 m 1,0,-1
 342 967 l 1,1,-1
 342 0 l 1,2,-1
 176 0 l 1,3,-1
 176 1096 l 1,4,-1
 670 1096 l 1,5,-1
 670 1417 l 1,6,-1
 836 1417 l 1,7,-1
 836 967 l 1,0,-1
EndSplineSet
EndChar

StartChar: endash
Encoding: 8211 8211 514
Width: 1024
GlyphClass: 2
Flags: W
LayerCount: 2
Fore
SplineSet
82 473 m 1,0,-1
 82 625 l 1,1,-1
 942 625 l 1,2,-1
 942 473 l 1,3,-1
 82 473 l 1,0,-1
EndSplineSet
EndChar

StartChar: emdash
Encoding: 8212 8212 515
Width: 2048
GlyphClass: 2
Flags: W
LayerCount: 2
Fore
SplineSet
82 473 m 1,0,-1
 82 625 l 1,1,-1
 1966 625 l 1,2,-1
 1966 473 l 1,3,-1
 82 473 l 1,0,-1
EndSplineSet
EndChar

StartChar: underscoredbl
Encoding: 8215 8215 517
Width: 842
GlyphClass: 2
Flags: W
LayerCount: 2
Fore
SplineSet
846 -463 m 1,0,-1
 -4 -463 l 1,1,-1
 -4 -324 l 1,2,-1
 846 -324 l 1,3,-1
 846 -463 l 1,0,-1
846 -184 m 1,4,-1
 -4 -184 l 1,5,-1
 -4 -45 l 1,6,-1
 846 -45 l 1,7,-1
 846 -184 l 1,4,-1
EndSplineSet
EndChar

StartChar: quoteleft
Encoding: 8216 8216 518
Width: 348
GlyphClass: 2
Flags: W
LayerCount: 2
Fore
SplineSet
37 961 m 1,0,-1
 25 983 l 1,1,2
 47 1073 47 1073 96 1207 c 128,-1,3
 145 1341 145 1341 201 1462 c 1,4,-1
 324 1462 l 1,5,6
 258 1208 258 1208 221 961 c 1,7,-1
 37 961 l 1,0,-1
EndSplineSet
EndChar

StartChar: quoteright
Encoding: 8217 8217 519
Width: 348
GlyphClass: 2
Flags: W
LayerCount: 2
Fore
SplineSet
309 1462 m 1,0,-1
 324 1440 l 1,1,2
 298 1340 298 1340 249 1207.5 c 128,-1,3
 200 1075 200 1075 147 961 c 1,4,-1
 25 961 l 1,5,6
 95 1246 95 1246 127 1462 c 1,7,-1
 309 1462 l 1,0,-1
EndSplineSet
EndChar

StartChar: quotereversed
Encoding: 8219 8219 521
Width: 348
GlyphClass: 2
Flags: W
LayerCount: 2
Fore
SplineSet
223 1462 m 1,0,1
 260 1211 260 1211 326 961 c 1,2,-1
 203 961 l 1,3,4
 158 1055 158 1055 103.5 1197 c 128,-1,5
 49 1339 49 1339 25 1440 c 1,6,-1
 39 1462 l 1,7,-1
 223 1462 l 1,0,1
EndSplineSet
EndChar

StartChar: quotedblleft
Encoding: 8220 8220 522
Width: 717
GlyphClass: 2
Flags: W
LayerCount: 2
Fore
SplineSet
406 961 m 1,0,-1
 391 983 l 1,1,2
 447 1198 447 1198 569 1462 c 1,3,-1
 692 1462 l 1,4,5
 662 1347 662 1347 632.5 1202.5 c 128,-1,6
 603 1058 603 1058 590 961 c 1,7,-1
 406 961 l 1,0,-1
37 961 m 1,8,-1
 25 983 l 1,9,10
 47 1073 47 1073 96 1207 c 128,-1,11
 145 1341 145 1341 201 1462 c 1,12,-1
 324 1462 l 1,13,14
 258 1208 258 1208 221 961 c 1,15,-1
 37 961 l 1,8,-1
EndSplineSet
EndChar

StartChar: quotedblright
Encoding: 8221 8221 523
Width: 717
GlyphClass: 2
Flags: W
LayerCount: 2
Fore
SplineSet
309 1462 m 1,0,-1
 324 1440 l 1,1,2
 298 1340 298 1340 249 1207.5 c 128,-1,3
 200 1075 200 1075 147 961 c 1,4,-1
 25 961 l 1,5,6
 95 1246 95 1246 127 1462 c 1,7,-1
 309 1462 l 1,0,-1
678 1462 m 1,8,-1
 692 1440 l 1,9,10
 668 1349 668 1349 620 1216 c 128,-1,11
 572 1083 572 1083 516 961 c 1,12,-1
 391 961 l 1,13,14
 417 1061 417 1061 450 1215 c 128,-1,15
 483 1369 483 1369 496 1462 c 1,16,-1
 678 1462 l 1,8,-1
EndSplineSet
EndChar

StartChar: dagger
Encoding: 8224 8224 525
Width: 1028
GlyphClass: 2
Flags: W
LayerCount: 2
Fore
SplineSet
905 999 m 1,0,-1
 553 1030 l 1,1,-1
 602 0 l 1,2,-1
 406 0 l 1,3,-1
 455 1030 l 1,4,-1
 123 999 l 1,5,-1
 123 1169 l 1,6,-1
 455 1139 l 1,7,-1
 406 1556 l 1,8,-1
 602 1556 l 1,9,-1
 553 1139 l 1,10,-1
 905 1169 l 1,11,-1
 905 999 l 1,0,-1
EndSplineSet
EndChar

StartChar: daggerdbl
Encoding: 8225 8225 526
Width: 1044
GlyphClass: 2
Flags: W
LayerCount: 2
Fore
SplineSet
569 487 m 1,0,-1
 922 518 l 1,1,-1
 922 350 l 1,2,-1
 569 379 l 1,3,-1
 618 0 l 1,4,-1
 420 0 l 1,5,-1
 469 379 l 1,6,-1
 123 350 l 1,7,-1
 123 518 l 1,8,-1
 469 487 l 1,9,-1
 426 786 l 1,10,-1
 469 1069 l 1,11,-1
 123 1038 l 1,12,-1
 123 1206 l 1,13,-1
 469 1176 l 1,14,-1
 420 1556 l 1,15,-1
 618 1556 l 1,16,-1
 569 1176 l 1,17,-1
 922 1206 l 1,18,-1
 922 1038 l 1,19,-1
 569 1069 l 1,20,-1
 612 786 l 1,21,-1
 569 487 l 1,0,-1
EndSplineSet
EndChar

StartChar: bullet
Encoding: 8226 8226 527
Width: 770
GlyphClass: 2
Flags: W
LayerCount: 2
Fore
SplineSet
164 748 m 0,0,1
 164 869 164 869 220.5 932 c 128,-1,2
 277 995 277 995 385 995 c 0,3,4
 490 995 490 995 548 933 c 128,-1,5
 606 871 606 871 606 748 c 0,6,7
 606 629 606 629 548.5 564.5 c 128,-1,8
 491 500 491 500 385 500 c 0,9,10
 278 500 278 500 221 565.5 c 128,-1,11
 164 631 164 631 164 748 c 0,0,1
EndSplineSet
EndChar

StartChar: perthousand
Encoding: 8240 8240 529
Width: 2462
GlyphClass: 2
Flags: W
LayerCount: 2
Fore
SplineSet
236 1026 m 256,0,1
 236 856 236 856 277.5 771 c 128,-1,2
 319 686 319 686 412 686 c 0,3,4
 592 686 592 686 592 1026 c 0,5,6
 592 1364 592 1364 412 1364 c 0,7,8
 319 1364 319 1364 277.5 1280 c 128,-1,9
 236 1196 236 1196 236 1026 c 256,0,1
729 1026 m 0,10,11
 729 796 729 796 648.5 680.5 c 128,-1,12
 568 565 568 565 412 565 c 0,13,14
 263 565 263 565 181.5 684 c 128,-1,15
 100 803 100 803 100 1026 c 0,16,17
 100 1483 100 1483 412 1483 c 0,18,19
 564 1483 564 1483 646.5 1363 c 128,-1,20
 729 1243 729 1243 729 1026 c 0,10,11
1346 1462 m 1,21,-1
 535 0 l 1,22,-1
 387 0 l 1,23,-1
 1198 1462 l 1,24,-1
 1346 1462 l 1,21,-1
1870 440 m 256,25,26
 1870 269 1870 269 1911.5 184.5 c 128,-1,27
 1953 100 1953 100 2046 100 c 0,28,29
 2137 100 2137 100 2181.5 183.5 c 128,-1,30
 2226 267 2226 267 2226 440 c 0,31,32
 2226 611 2226 611 2181.5 693.5 c 128,-1,33
 2137 776 2137 776 2046 776 c 0,34,35
 1953 776 1953 776 1911.5 693.5 c 128,-1,36
 1870 611 1870 611 1870 440 c 256,25,26
2363 440 m 0,37,38
 2363 210 2363 210 2282 95 c 128,-1,39
 2201 -20 2201 -20 2046 -20 c 0,40,41
 1898 -20 1898 -20 1816.5 99.5 c 128,-1,42
 1735 219 1735 219 1735 440 c 0,43,44
 1735 897 1735 897 2046 897 c 0,45,46
 2196 897 2196 897 2279.5 779 c 128,-1,47
 2363 661 2363 661 2363 440 c 0,37,38
1139 440 m 256,48,49
 1139 269 1139 269 1179.5 184.5 c 128,-1,50
 1220 100 1220 100 1313 100 c 0,51,52
 1404 100 1404 100 1448.5 183.5 c 128,-1,53
 1493 267 1493 267 1493 440 c 0,54,55
 1493 611 1493 611 1448.5 693.5 c 128,-1,56
 1404 776 1404 776 1313 776 c 0,57,58
 1220 776 1220 776 1179.5 693.5 c 128,-1,59
 1139 611 1139 611 1139 440 c 256,48,49
1630 440 m 0,60,61
 1630 210 1630 210 1549 95 c 128,-1,62
 1468 -20 1468 -20 1313 -20 c 0,63,64
 1164 -20 1164 -20 1082.5 99 c 128,-1,65
 1001 218 1001 218 1001 440 c 0,66,67
 1001 897 1001 897 1313 897 c 0,68,69
 1463 897 1463 897 1546.5 779 c 128,-1,70
 1630 661 1630 661 1630 440 c 0,60,61
EndSplineSet
EndChar

StartChar: guilsinglleft
Encoding: 8249 8249 532
Width: 623
GlyphClass: 2
Flags: W
LayerCount: 2
Fore
SplineSet
82 551 m 1,0,-1
 424 958 l 1,1,-1
 543 889 l 1,2,-1
 254 539 l 1,3,-1
 543 188 l 1,4,-1
 424 117 l 1,5,-1
 82 524 l 1,6,-1
 82 551 l 1,0,-1
EndSplineSet
EndChar

StartChar: guilsinglright
Encoding: 8250 8250 533
Width: 623
GlyphClass: 2
Flags: W
LayerCount: 2
Fore
SplineSet
541 524 m 1,0,-1
 197 117 l 1,1,-1
 80 188 l 1,2,-1
 367 539 l 1,3,-1
 80 889 l 1,4,-1
 197 958 l 1,5,-1
 541 551 l 1,6,-1
 541 524 l 1,0,-1
EndSplineSet
EndChar

StartChar: fraction
Encoding: 8260 8260 535
Width: 266
GlyphClass: 2
Flags: W
LayerCount: 2
Fore
SplineSet
655 1462 m 1,0,-1
 -248 0 l 1,1,-1
 -391 0 l 1,2,-1
 512 1462 l 1,3,-1
 655 1462 l 1,0,-1
EndSplineSet
EndChar

StartChar: nsuperior
Encoding: 8319 8319 536
Width: 807
GlyphClass: 2
Flags: W
LayerCount: 2
Fore
SplineSet
588 801 m 1,0,-1
 588 1221 l 2,1,2
 588 1305 588 1305 549 1340.5 c 128,-1,3
 510 1376 510 1376 430 1376 c 0,4,5
 316 1376 316 1376 270.5 1323.5 c 128,-1,6
 225 1271 225 1271 225 1149 c 2,7,-1
 225 801 l 1,8,-1
 109 801 l 1,9,-1
 109 1466 l 1,10,-1
 205 1466 l 1,11,-1
 219 1378 l 1,12,-1
 229 1378 l 1,13,14
 304 1479 304 1479 449 1479 c 0,15,16
 707 1479 707 1479 707 1229 c 2,17,-1
 707 801 l 1,18,-1
 588 801 l 1,0,-1
EndSplineSet
EndChar

StartChar: franc
Encoding: 8355 8355 537
Width: 1171
GlyphClass: 2
Flags: W
LayerCount: 2
Fore
SplineSet
440 395 m 1,0,-1
 748 395 l 1,1,-1
 748 266 l 1,2,-1
 440 266 l 1,3,-1
 440 0 l 1,4,-1
 274 0 l 1,5,-1
 274 266 l 1,6,-1
 98 266 l 1,7,-1
 98 395 l 1,8,-1
 274 395 l 1,9,-1
 274 1462 l 1,10,-1
 1059 1462 l 1,11,-1
 1059 1311 l 1,12,-1
 440 1311 l 1,13,-1
 440 776 l 1,14,-1
 1020 776 l 1,15,-1
 1020 625 l 1,16,-1
 440 625 l 1,17,-1
 440 395 l 1,0,-1
EndSplineSet
EndChar

StartChar: afii08941
Encoding: 8356 8356 538
Width: 1171
GlyphClass: 2
Flags: W
LayerCount: 2
Fore
SplineSet
688 1481 m 0,0,1
 889 1481 889 1481 1047 1401 c 1,2,-1
 987 1270 l 1,3,4
 835 1341 835 1341 688 1341 c 0,5,6
 566 1341 566 1341 503 1273.5 c 128,-1,7
 440 1206 440 1206 440 1077 c 2,8,-1
 440 891 l 1,9,-1
 860 891 l 1,10,-1
 860 762 l 1,11,-1
 440 762 l 1,12,-1
 440 596 l 1,13,-1
 860 596 l 1,14,-1
 860 467 l 1,15,-1
 440 467 l 1,16,-1
 440 434 l 2,17,18
 440 334 440 334 407.5 266 c 128,-1,19
 375 198 375 198 301 154 c 1,20,-1
 1096 154 l 1,21,-1
 1096 0 l 1,22,-1
 68 0 l 1,23,-1
 68 141 l 1,24,25
 274 189 274 189 274 432 c 2,26,-1
 274 467 l 1,27,-1
 74 467 l 1,28,-1
 74 596 l 1,29,-1
 274 596 l 1,30,-1
 274 762 l 1,31,-1
 74 762 l 1,32,-1
 74 891 l 1,33,-1
 274 891 l 1,34,-1
 274 1098 l 2,35,36
 274 1276 274 1276 386 1378.5 c 128,-1,37
 498 1481 498 1481 688 1481 c 0,0,1
EndSplineSet
EndChar

StartChar: peseta
Encoding: 8359 8359 539
Width: 1563
GlyphClass: 2
Flags: W
LayerCount: 2
Fore
SplineSet
1358 117 m 0,0,1
 1392 117 1392 117 1435 124 c 128,-1,2
 1478 131 1478 131 1489 135 c 1,3,-1
 1489 10 l 1,4,5
 1429 -20 1429 -20 1319 -20 c 0,6,7
 1210 -20 1210 -20 1145.5 48 c 128,-1,8
 1081 116 1081 116 1081 254 c 2,9,-1
 1081 717 l 1,10,-1
 924 717 l 1,11,-1
 924 797 l 1,12,-1
 1081 866 l 1,13,-1
 1143 1057 l 1,14,-1
 1241 1057 l 1,15,-1
 1241 846 l 1,16,-1
 1462 846 l 1,17,-1
 1462 717 l 1,18,-1
 1241 717 l 1,19,-1
 1241 276 l 2,20,21
 1241 199 1241 199 1267 158 c 128,-1,22
 1293 117 1293 117 1358 117 c 0,0,1
926 1036 m 0,23,24
 926 809 926 809 787.5 692 c 128,-1,25
 649 575 649 575 383 575 c 2,26,-1
 319 575 l 1,27,-1
 319 0 l 1,28,-1
 154 0 l 1,29,-1
 154 1462 l 1,30,-1
 416 1462 l 2,31,32
 672 1462 672 1462 799 1356.5 c 128,-1,33
 926 1251 926 1251 926 1036 c 0,23,24
319 721 m 1,34,-1
 371 721 l 2,35,36
 571 721 571 721 663.5 793.5 c 128,-1,37
 756 866 756 866 756 1028 c 0,38,39
 756 1173 756 1173 670 1244 c 128,-1,40
 584 1315 584 1315 401 1315 c 2,41,-1
 319 1315 l 1,42,-1
 319 721 l 1,34,-1
EndSplineSet
EndChar

StartChar: Euro
Encoding: 8364 8364 540
Width: 1208
GlyphClass: 2
Flags: W
LayerCount: 2
Fore
SplineSet
795 1333 m 0,0,1
 476 1333 476 1333 397 930 c 1,2,-1
 907 930 l 1,3,-1
 907 801 l 1,4,-1
 383 801 l 1,5,-1
 381 744 l 1,6,-1
 381 680 l 1,7,-1
 383 635 l 1,8,-1
 846 635 l 1,9,-1
 846 506 l 1,10,-1
 399 506 l 1,11,12
 436 326 436 326 537.5 227.5 c 128,-1,13
 639 129 639 129 809 129 c 0,14,15
 965 129 965 129 1118 195 c 1,16,-1
 1118 45 l 1,17,18
 972 -20 972 -20 801 -20 c 0,19,20
 564 -20 564 -20 419.5 114.5 c 128,-1,21
 275 249 275 249 229 506 c 1,22,-1
 63 506 l 1,23,-1
 63 635 l 1,24,-1
 215 635 l 1,25,-1
 213 677 l 1,26,-1
 213 721 l 1,27,-1
 215 801 l 1,28,-1
 63 801 l 1,29,-1
 63 930 l 1,30,-1
 227 930 l 1,31,32
 266 1191 266 1191 412 1337 c 128,-1,33
 558 1483 558 1483 795 1483 c 0,34,35
 996 1483 996 1483 1161 1386 c 1,36,-1
 1090 1247 l 1,37,38
 924 1333 924 1333 795 1333 c 0,0,1
EndSplineSet
EndChar

StartChar: afii61248
Encoding: 8453 8453 541
Width: 1688
GlyphClass: 2
Flags: W
LayerCount: 2
Fore
SplineSet
1311 1462 m 1,0,-1
 500 0 l 1,1,-1
 352 0 l 1,2,-1
 1163 1462 l 1,3,-1
 1311 1462 l 1,0,-1
1546 334 m 0,4,5
 1546 175 1546 175 1461.5 83.5 c 128,-1,6
 1377 -8 1377 -8 1229 -8 c 0,7,8
 1090 -8 1090 -8 1005 84.5 c 128,-1,9
 920 177 920 177 920 334 c 0,10,11
 920 492 920 492 1003.5 584 c 128,-1,12
 1087 676 1087 676 1235 676 c 0,13,14
 1376 676 1376 676 1461 583 c 128,-1,15
 1546 490 1546 490 1546 334 c 0,4,5
1055 334 m 0,16,17
 1055 96 1055 96 1233 96 c 0,18,19
 1409 96 1409 96 1409 334 c 0,20,21
 1409 569 1409 569 1233 569 c 0,22,23
 1055 569 1055 569 1055 334 c 0,16,17
489 788 m 0,24,25
 323 788 323 788 232 876.5 c 128,-1,26
 141 965 141 965 141 1126 c 0,27,28
 141 1294 141 1294 235 1383.5 c 128,-1,29
 329 1473 329 1473 500 1473 c 0,30,31
 604 1473 604 1473 692 1438 c 1,32,-1
 659 1335 l 1,33,34
 578 1366 578 1366 498 1366 c 0,35,36
 274 1366 274 1366 274 1128 c 0,37,38
 274 893 274 893 494 893 c 0,39,40
 592 893 592 893 682 926 c 1,41,-1
 682 825 l 1,42,43
 604 788 604 788 489 788 c 0,24,25
EndSplineSet
EndChar

StartChar: afii61289
Encoding: 8467 8467 542
Width: 1065
GlyphClass: 2
Flags: W
LayerCount: 2
Fore
SplineSet
637 111 m 0,0,1
 811 111 811 111 829 324 c 1,2,-1
 924 324 l 1,3,4
 916 158 916 158 839.5 69 c 128,-1,5
 763 -20 763 -20 621 -20 c 0,6,7
 471 -20 471 -20 391 70.5 c 128,-1,8
 311 161 311 161 311 330 c 2,9,-1
 311 573 l 1,10,11
 215 538 215 538 119 516 c 1,12,-1
 119 629 l 1,13,14
 197 650 197 650 311 688 c 1,15,-1
 311 1186 l 2,16,17
 311 1324 311 1324 386 1403.5 c 128,-1,18
 461 1483 461 1483 596 1483 c 0,19,20
 713 1483 713 1483 780.5 1402.5 c 128,-1,21
 848 1322 848 1322 848 1184 c 0,22,23
 848 999 848 999 745 847 c 128,-1,24
 642 695 642 695 467 621 c 1,25,-1
 467 338 l 2,26,27
 467 234 467 234 508 172.5 c 128,-1,28
 549 111 549 111 637 111 c 0,0,1
723 1178 m 0,29,30
 723 1372 723 1372 596 1372 c 0,31,32
 529 1372 529 1372 498 1329 c 128,-1,33
 467 1286 467 1286 467 1178 c 2,34,-1
 467 741 l 1,35,36
 723 878 723 878 723 1178 c 0,29,30
EndSplineSet
EndChar

StartChar: afii61352
Encoding: 8470 8470 543
Width: 2087
GlyphClass: 2
Flags: W
LayerCount: 2
Fore
SplineSet
1223 0 m 1,0,-1
 1036 0 l 1,1,-1
 344 1227 l 1,2,-1
 336 1227 l 1,3,4
 352 939 352 939 352 831 c 2,5,-1
 352 0 l 1,6,-1
 201 0 l 1,7,-1
 201 1462 l 1,8,-1
 395 1462 l 1,9,-1
 1077 240 l 1,10,-1
 1085 240 l 1,11,12
 1071 485 1071 485 1071 623 c 2,13,-1
 1071 1462 l 1,14,-1
 1223 1462 l 1,15,-1
 1223 0 l 1,0,-1
1987 621 m 0,16,17
 1987 458 1987 458 1906.5 366 c 128,-1,18
 1826 274 1826 274 1679 274 c 0,19,20
 1540 274 1540 274 1459 367.5 c 128,-1,21
 1378 461 1378 461 1378 621 c 0,22,23
 1378 784 1378 784 1458.5 874.5 c 128,-1,24
 1539 965 1539 965 1686 965 c 0,25,26
 1825 965 1825 965 1906 871.5 c 128,-1,27
 1987 778 1987 778 1987 621 c 0,16,17
1509 621 m 0,28,29
 1509 507 1509 507 1549.5 448 c 128,-1,30
 1590 389 1590 389 1683 389 c 0,31,32
 1774 389 1774 389 1813.5 447.5 c 128,-1,33
 1853 506 1853 506 1853 621 c 256,34,35
 1853 736 1853 736 1813.5 792 c 128,-1,36
 1774 848 1774 848 1683 848 c 0,37,38
 1591 848 1591 848 1550 792 c 128,-1,39
 1509 736 1509 736 1509 621 c 0,28,29
1423 0 m 1,40,-1
 1423 135 l 1,41,-1
 1935 135 l 1,42,-1
 1935 0 l 1,43,-1
 1423 0 l 1,40,-1
EndSplineSet
EndChar

StartChar: trademark
Encoding: 8482 8482 544
Width: 1589
GlyphClass: 2
Flags: W
LayerCount: 2
Fore
SplineSet
369 741 m 1,0,-1
 246 741 l 1,1,-1
 246 1356 l 1,2,-1
 37 1356 l 1,3,-1
 37 1462 l 1,4,-1
 580 1462 l 1,5,-1
 580 1356 l 1,6,-1
 369 1356 l 1,7,-1
 369 741 l 1,0,-1
969 741 m 1,8,-1
 768 1300 l 1,9,-1
 760 1300 l 1,10,-1
 766 1171 l 1,11,-1
 766 741 l 1,12,-1
 647 741 l 1,13,-1
 647 1462 l 1,14,-1
 834 1462 l 1,15,-1
 1030 903 l 1,16,-1
 1233 1462 l 1,17,-1
 1413 1462 l 1,18,-1
 1413 741 l 1,19,-1
 1286 741 l 1,20,-1
 1286 1161 l 1,21,-1
 1292 1298 l 1,22,-1
 1284 1298 l 1,23,-1
 1073 741 l 1,24,-1
 969 741 l 1,8,-1
EndSplineSet
EndChar

StartChar: estimated
Encoding: 8494 8494 546
Width: 1268
GlyphClass: 2
Flags: W
LayerCount: 2
Fore
SplineSet
633 -35 m 0,0,1
 476 -35 476 -35 355.5 38.5 c 128,-1,2
 235 112 235 112 168.5 242.5 c 128,-1,3
 102 373 102 373 102 530 c 0,4,5
 102 701 102 701 171 828.5 c 128,-1,6
 240 956 240 956 362 1026 c 128,-1,7
 484 1096 484 1096 633 1096 c 0,8,9
 785 1096 785 1096 906.5 1025 c 128,-1,10
 1028 954 1028 954 1095.5 824.5 c 128,-1,11
 1163 695 1163 695 1163 530 c 1,12,-1
 336 530 l 1,13,-1
 336 174 l 1,14,15
 385 121 385 121 468 86 c 128,-1,16
 551 51 551 51 633 51 c 0,17,18
 764 51 764 51 855.5 103.5 c 128,-1,19
 947 156 947 156 1028 285 c 1,20,-1
 1100 244 l 1,21,22
 1002 89 1002 89 893.5 27 c 128,-1,23
 785 -35 785 -35 633 -35 c 0,0,1
932 616 m 1,24,-1
 932 893 l 1,25,26
 882 946 882 946 800.5 979 c 128,-1,27
 719 1012 719 1012 631 1012 c 0,28,29
 458 1012 458 1012 336 895 c 1,30,-1
 336 616 l 1,31,-1
 932 616 l 1,24,-1
EndSplineSet
EndChar

StartChar: partialdiff
Encoding: 8706 8706 551
Width: 1190
GlyphClass: 2
Flags: W
LayerCount: 2
Fore
SplineSet
1077 934 m 0,0,1
 1077 672 1077 672 993.5 442.5 c 128,-1,2
 910 213 910 213 772 96.5 c 128,-1,3
 634 -20 634 -20 461 -20 c 0,4,5
 289 -20 289 -20 195.5 80.5 c 128,-1,6
 102 181 102 181 102 373 c 0,7,8
 102 542 102 542 170 695.5 c 128,-1,9
 238 849 238 849 354 929.5 c 128,-1,10
 470 1010 470 1010 621 1010 c 0,11,12
 718 1010 718 1010 791 963.5 c 128,-1,13
 864 917 864 917 907 842 c 1,14,-1
 911 932 l 1,15,16
 911 1337 911 1337 629 1337 c 0,17,18
 567 1337 567 1337 495 1315 c 128,-1,19
 423 1293 423 1293 375 1260 c 1,20,-1
 375 1419 l 1,21,22
 422 1442 422 1442 499.5 1460.5 c 128,-1,23
 577 1479 577 1479 651 1479 c 0,24,25
 861 1479 861 1479 969 1341 c 128,-1,26
 1077 1203 1077 1203 1077 934 c 0,0,1
471 121 m 0,27,28
 566 121 566 121 649 193 c 128,-1,29
 732 265 732 265 792 394.5 c 128,-1,30
 852 524 852 524 874 674 c 1,31,32
 849 771 849 771 785 825 c 128,-1,33
 721 879 721 879 641 879 c 0,34,35
 540 879 540 879 457.5 813 c 128,-1,36
 375 747 375 747 324.5 622 c 128,-1,37
 274 497 274 497 274 369 c 0,38,39
 274 251 274 251 324.5 186 c 128,-1,40
 375 121 375 121 471 121 c 0,27,28
EndSplineSet
EndChar

StartChar: Delta
Encoding: 8710 8710 552
Width: 1171
GlyphClass: 2
Flags: W
LayerCount: 2
Fore
SplineSet
39 104 m 1,0,-1
 502 1462 l 1,1,-1
 668 1462 l 1,2,-1
 1133 102 l 1,3,-1
 1133 0 l 1,4,-1
 39 0 l 1,5,-1
 39 104 l 1,0,-1
584 1268 m 1,6,7
 523 1043 523 1043 483 922 c 2,8,-1
 223 152 l 1,9,-1
 944 152 l 1,10,-1
 686 913 l 2,11,12
 618 1115 618 1115 584 1268 c 1,6,7
EndSplineSet
EndChar

StartChar: product
Encoding: 8719 8719 553
Width: 1513
GlyphClass: 2
Flags: W
LayerCount: 2
Fore
SplineSet
1143 -496 m 1,0,-1
 1143 1309 l 1,1,-1
 371 1309 l 1,2,-1
 371 -496 l 1,3,-1
 201 -496 l 1,4,-1
 201 1462 l 1,5,-1
 1313 1462 l 1,6,-1
 1313 -496 l 1,7,-1
 1143 -496 l 1,0,-1
EndSplineSet
EndChar

StartChar: summation
Encoding: 8721 8721 554
Width: 1292
GlyphClass: 2
Flags: W
LayerCount: 2
Fore
SplineSet
76 -496 m 1,0,-1
 76 -389 l 1,1,-1
 707 535 l 1,2,-1
 92 1354 l 1,3,-1
 92 1462 l 1,4,-1
 1180 1462 l 1,5,-1
 1180 1311 l 1,6,-1
 332 1311 l 1,7,-1
 911 539 l 1,8,-1
 307 -344 l 1,9,-1
 1245 -344 l 1,10,-1
 1245 -496 l 1,11,-1
 76 -496 l 1,0,-1
EndSplineSet
EndChar

StartChar: minus
Encoding: 8722 8722 555
Width: 1171
GlyphClass: 2
Flags: W
LayerCount: 2
Fore
SplineSet
104 653 m 1,0,-1
 104 791 l 1,1,-1
 1065 791 l 1,2,-1
 1065 653 l 1,3,-1
 104 653 l 1,0,-1
EndSplineSet
EndChar

StartChar: radical
Encoding: 8730 8730 556
Width: 1124
GlyphClass: 2
Flags: W
LayerCount: 2
Fore
SplineSet
623 -14 m 1,0,-1
 496 -14 l 1,1,-1
 217 768 l 1,2,-1
 37 768 l 1,3,-1
 37 903 l 1,4,-1
 326 903 l 1,5,-1
 561 219 l 1,6,-1
 1075 1688 l 1,7,-1
 1212 1688 l 1,8,-1
 623 -14 l 1,0,-1
EndSplineSet
EndChar

StartChar: infinity
Encoding: 8734 8734 557
Width: 1444
GlyphClass: 2
Flags: W
LayerCount: 2
Fore
SplineSet
1325 719 m 0,0,1
 1325 588 1325 588 1241.5 495.5 c 128,-1,2
 1158 403 1158 403 1030 403 c 0,3,4
 937 403 937 403 860.5 456 c 128,-1,5
 784 509 784 509 719 625 c 1,6,7
 659 521 659 521 582.5 464.5 c 128,-1,8
 506 408 506 408 418 408 c 0,9,10
 287 408 287 408 203 494.5 c 128,-1,11
 119 581 119 581 119 723 c 0,12,13
 119 857 119 857 203 946.5 c 128,-1,14
 287 1036 287 1036 418 1036 c 0,15,16
 599 1036 599 1036 721 817 c 1,17,18
 845 1032 845 1032 1030 1032 c 0,19,20
 1163 1032 1163 1032 1244 944.5 c 128,-1,21
 1325 857 1325 857 1325 719 c 0,0,1
426 532 m 0,22,23
 492 532 492 532 546.5 577.5 c 128,-1,24
 601 623 601 623 655 723 c 1,25,26
 605 820 605 820 550.5 866.5 c 128,-1,27
 496 913 496 913 424 913 c 0,28,29
 348 913 348 913 298 860.5 c 128,-1,30
 248 808 248 808 248 721 c 0,31,32
 248 638 248 638 296.5 585 c 128,-1,33
 345 532 345 532 426 532 c 0,22,23
1018 909 m 0,34,35
 952 909 952 909 897.5 863 c 128,-1,36
 843 817 843 817 788 719 c 1,37,38
 839 622 839 622 894 575 c 128,-1,39
 949 528 949 528 1020 528 c 0,40,41
 1096 528 1096 528 1146 581.5 c 128,-1,42
 1196 635 1196 635 1196 719 c 0,43,44
 1196 804 1196 804 1145.5 856.5 c 128,-1,45
 1095 909 1095 909 1018 909 c 0,34,35
EndSplineSet
EndChar

StartChar: integral
Encoding: 8747 8747 558
Width: 786
GlyphClass: 2
Flags: W
LayerCount: 2
Fore
SplineSet
637 1556 m 0,0,1
 716 1556 716 1556 760 1540 c 1,2,-1
 760 1403 l 1,3,4
 711 1425 711 1425 649 1425 c 0,5,6
 473 1425 473 1425 473 1182 c 2,7,-1
 473 -129 l 2,8,9
 473 -305 473 -305 390.5 -398.5 c 128,-1,10
 308 -492 308 -492 145 -492 c 0,11,12
 71 -492 71 -492 12 -473 c 1,13,-1
 12 -338 l 1,14,15
 73 -360 73 -360 131 -360 c 0,16,17
 313 -360 313 -360 313 -117 c 2,18,-1
 313 1194 l 2,19,20
 313 1556 313 1556 637 1556 c 0,0,1
EndSplineSet
EndChar

StartChar: approxequal
Encoding: 8776 8776 559
Width: 1171
GlyphClass: 2
Flags: W
LayerCount: 2
Fore
SplineSet
336 512 m 0,0,1
 282 512 282 512 218.5 480 c 128,-1,2
 155 448 155 448 98 391 c 1,3,-1
 98 541 l 1,4,5
 206 651 206 651 354 651 c 0,6,7
 421 651 421 651 477 637 c 128,-1,8
 533 623 533 623 621 586 c 0,9,10
 698 553 698 553 743.5 540.5 c 128,-1,11
 789 528 789 528 834 528 c 0,12,13
 887 528 887 528 951 561 c 128,-1,14
 1015 594 1015 594 1069 651 c 1,15,-1
 1069 500 l 1,16,17
 968 391 968 391 815 391 c 0,18,19
 748 391 748 391 692.5 405.5 c 128,-1,20
 637 420 637 420 549 457 c 0,21,22
 476 487 476 487 430.5 499.5 c 128,-1,23
 385 512 385 512 336 512 c 0,0,1
336 918 m 0,24,25
 279 918 279 918 215 884 c 128,-1,26
 151 850 151 850 98 797 c 1,27,-1
 98 946 l 1,28,29
 204 1055 204 1055 354 1055 c 0,30,31
 423 1055 423 1055 481 1039 c 128,-1,32
 539 1023 539 1023 621 989 c 0,33,34
 690 960 690 960 737.5 947 c 128,-1,35
 785 934 785 934 834 934 c 0,36,37
 889 934 889 934 953.5 967 c 128,-1,38
 1018 1000 1018 1000 1069 1055 c 1,39,-1
 1069 905 l 1,40,41
 969 795 969 795 815 795 c 0,42,43
 746 795 746 795 687 811 c 128,-1,44
 628 827 628 827 549 860 c 0,45,46
 465 894 465 894 422.5 906 c 128,-1,47
 380 918 380 918 336 918 c 0,24,25
EndSplineSet
EndChar

StartChar: notequal
Encoding: 8800 8800 560
Width: 1171
GlyphClass: 2
Flags: W
LayerCount: 2
Fore
SplineSet
381 449 m 1,0,-1
 104 449 l 1,1,-1
 104 586 l 1,2,-1
 444 586 l 1,3,-1
 571 858 l 1,4,-1
 104 858 l 1,5,-1
 104 995 l 1,6,-1
 635 995 l 1,7,-1
 770 1282 l 1,8,-1
 895 1225 l 1,9,-1
 786 995 l 1,10,-1
 1065 995 l 1,11,-1
 1065 858 l 1,12,-1
 723 858 l 1,13,-1
 594 586 l 1,14,-1
 1065 586 l 1,15,-1
 1065 449 l 1,16,-1
 530 449 l 1,17,-1
 399 166 l 1,18,-1
 274 221 l 1,19,-1
 381 449 l 1,0,-1
EndSplineSet
EndChar

StartChar: lozenge
Encoding: 9674 9674 563
Width: 1194
GlyphClass: 2
Flags: W
LayerCount: 2
Fore
SplineSet
111 735 m 1,0,-1
 561 1475 l 1,1,-1
 633 1475 l 1,2,-1
 1085 735 l 1,3,-1
 633 0 l 1,4,-1
 561 0 l 1,5,-1
 111 735 l 1,0,-1
915 737 m 1,6,-1
 598 1268 l 1,7,-1
 281 737 l 1,8,-1
 598 205 l 1,9,-1
 915 737 l 1,6,-1
EndSplineSet
EndChar

StartChar: cyrillicbreve
Encoding: 65555 -1 566
Width: 1182
GlyphClass: 2
Flags: W
LayerCount: 2
Fore
SplineSet
584 1241 m 0,0,1
 399 1241 399 1241 314 1312.5 c 128,-1,2
 229 1384 229 1384 219 1548 c 1,3,-1
 375 1548 l 1,4,5
 384 1444 384 1444 429.5 1403 c 128,-1,6
 475 1362 475 1362 588 1362 c 0,7,8
 691 1362 691 1362 740.5 1406 c 128,-1,9
 790 1450 790 1450 801 1548 c 1,10,-1
 958 1548 l 1,11,12
 946 1390 946 1390 857 1315.5 c 128,-1,13
 768 1241 768 1241 584 1241 c 0,0,1
EndSplineSet
EndChar

StartChar: dotlessj
Encoding: 567 567 567
Width: 518
GlyphClass: 2
Flags: W
LayerCount: 2
Fore
SplineSet
43 -492 m 0,0,1
 -52 -492 -52 -492 -111 -467 c 1,2,-1
 -111 -332 l 1,3,4
 -42 -352 -42 -352 25 -352 c 0,5,6
 103 -352 103 -352 139.5 -309.5 c 128,-1,7
 176 -267 176 -267 176 -180 c 2,8,-1
 176 1096 l 1,9,-1
 342 1096 l 1,10,-1
 342 -168 l 2,11,12
 342 -492 342 -492 43 -492 c 0,0,1
EndSplineSet
EndChar

StartChar: caroncommaaccent
Encoding: 65556 -1 568
Width: 1024
GlyphClass: 2
Flags: W
LayerCount: 2
Fore
SplineSet
393 1253 m 1,0,1
 412 1308 412 1308 431.5 1391.5 c 128,-1,2
 451 1475 451 1475 461 1556 c 1,3,-1
 629 1556 l 1,4,-1
 629 1538 l 1,5,6
 618 1487 618 1487 574 1393 c 128,-1,7
 530 1299 530 1299 483 1229 c 1,8,-1
 393 1229 l 1,9,-1
 393 1253 l 1,0,1
EndSplineSet
EndChar

StartChar: commaaccent
Encoding: 65557 -1 569
Width: 1024
GlyphClass: 2
Flags: W
LayerCount: 2
Fore
SplineSet
369 -428 m 1,0,1
 397 -364 397 -364 422.5 -271 c 128,-1,2
 448 -178 448 -178 455 -125 c 1,3,-1
 623 -125 l 1,4,-1
 623 -143 l 1,5,6
 612 -194 612 -194 563 -290.5 c 128,-1,7
 514 -387 514 -387 459 -453 c 1,8,-1
 369 -453 l 1,9,-1
 369 -428 l 1,0,1
EndSplineSet
EndChar

StartChar: commaaccentrotate
Encoding: 65558 -1 570
Width: 1024
GlyphClass: 2
Flags: W
LayerCount: 2
Fore
SplineSet
639 1544 m 1,0,1
 610 1483 610 1483 583.5 1386.5 c 128,-1,2
 557 1290 557 1290 551 1241 c 1,3,-1
 385 1241 l 1,4,-1
 385 1260 l 1,5,6
 399 1321 399 1321 448.5 1416.5 c 128,-1,7
 498 1512 498 1512 547 1569 c 1,8,-1
 639 1569 l 1,9,-1
 639 1544 l 1,0,1
EndSplineSet
EndChar

StartChar: zerosuperior
Encoding: 8304 8304 571
Width: 711
GlyphClass: 2
Flags: W
LayerCount: 2
Fore
SplineSet
176 1024 m 0,0,1
 176 856 176 856 217 773 c 128,-1,2
 258 690 258 690 352 690 c 256,3,4
 446 690 446 690 489 772.5 c 128,-1,5
 532 855 532 855 532 1026 c 0,6,7
 532 1196 532 1196 489 1278 c 128,-1,8
 446 1360 446 1360 352 1360 c 256,9,10
 258 1360 258 1360 217 1277.5 c 128,-1,11
 176 1195 176 1195 176 1024 c 0,0,1
670 1026 m 0,12,13
 670 569 670 569 354 569 c 0,14,15
 196 569 196 569 117.5 687 c 128,-1,16
 39 805 39 805 39 1026 c 0,17,18
 39 1479 39 1479 354 1479 c 0,19,20
 512 1479 512 1479 591 1363 c 128,-1,21
 670 1247 670 1247 670 1026 c 0,12,13
EndSplineSet
EndChar

StartChar: foursuperior
Encoding: 8308 8308 572
Width: 711
GlyphClass: 2
Flags: W
LayerCount: 2
Fore
SplineSet
692 788 m 1,0,-1
 567 788 l 1,1,-1
 567 586 l 1,2,-1
 422 586 l 1,3,-1
 422 788 l 1,4,-1
 20 788 l 1,5,-1
 20 889 l 1,6,-1
 428 1468 l 1,7,-1
 567 1468 l 1,8,-1
 567 905 l 1,9,-1
 692 905 l 1,10,-1
 692 788 l 1,0,-1
422 905 m 1,11,-1
 422 1100 l 2,12,13
 422 1234 422 1234 428 1309 c 1,14,15
 423 1297 423 1297 411 1277.5 c 128,-1,16
 399 1258 399 1258 384 1235.5 c 128,-1,17
 369 1213 369 1213 354 1190.5 c 128,-1,18
 339 1168 339 1168 328 1151 c 2,19,-1
 160 905 l 1,20,-1
 422 905 l 1,11,-1
EndSplineSet
EndChar

StartChar: fivesuperior
Encoding: 8309 8309 573
Width: 711
GlyphClass: 2
Flags: W
LayerCount: 2
Fore
SplineSet
328 1128 m 0,0,1
 473 1128 473 1128 561 1056.5 c 128,-1,2
 649 985 649 985 649 862 c 0,3,4
 649 722 649 722 564 644.5 c 128,-1,5
 479 567 479 567 313 567 c 0,6,7
 239 567 239 567 169.5 582.5 c 128,-1,8
 100 598 100 598 59 621 c 1,9,-1
 59 752 l 1,10,11
 115 718 115 718 185 699 c 128,-1,12
 255 680 255 680 309 680 c 0,13,14
 404 680 404 680 459 721.5 c 128,-1,15
 514 763 514 763 514 852 c 0,16,17
 514 930 514 930 459.5 974 c 128,-1,18
 405 1018 405 1018 303 1018 c 0,19,20
 246 1018 246 1018 208 1009.5 c 128,-1,21
 170 1001 170 1001 139 993 c 1,22,-1
 80 1034 l 1,23,-1
 113 1450 l 1,24,-1
 608 1450 l 1,25,-1
 608 1346 l 1,26,-1
 227 1346 l 1,27,-1
 207 1116 l 1,28,29
 269 1128 269 1128 328 1128 c 0,0,1
EndSplineSet
EndChar

StartChar: sixsuperior
Encoding: 8310 8310 574
Width: 711
GlyphClass: 2
Flags: W
LayerCount: 2
Fore
SplineSet
41 963 m 0,0,1
 41 1224 41 1224 150.5 1351.5 c 128,-1,2
 260 1479 260 1479 479 1479 c 0,3,4
 553 1479 553 1479 602 1464 c 1,5,-1
 602 1350 l 1,6,7
 550 1368 550 1368 467 1368 c 0,8,9
 326 1368 326 1368 251 1291.5 c 128,-1,10
 176 1215 176 1215 166 1049 c 1,11,-1
 174 1049 l 1,12,13
 203 1092 203 1092 259.5 1121.5 c 128,-1,14
 316 1151 316 1151 401 1151 c 0,15,16
 526 1151 526 1151 600 1077 c 128,-1,17
 674 1003 674 1003 674 877 c 0,18,19
 674 733 674 733 591 651 c 128,-1,20
 508 569 508 569 367 569 c 0,21,22
 214 569 214 569 127.5 674 c 128,-1,23
 41 779 41 779 41 963 c 0,0,1
365 680 m 0,24,25
 446 680 446 680 495.5 726.5 c 128,-1,26
 545 773 545 773 545 872 c 0,27,28
 545 951 545 951 501 996.5 c 128,-1,29
 457 1042 457 1042 371 1042 c 0,30,31
 286 1042 286 1042 230 997 c 128,-1,32
 174 952 174 952 174 893 c 0,33,34
 174 804 174 804 227 742 c 128,-1,35
 280 680 280 680 365 680 c 0,24,25
EndSplineSet
EndChar

StartChar: sevensuperior
Encoding: 8311 8311 575
Width: 711
GlyphClass: 2
Flags: W
LayerCount: 2
Fore
SplineSet
162 586 m 1,0,-1
 512 1346 l 1,1,-1
 57 1346 l 1,2,-1
 57 1462 l 1,3,-1
 655 1462 l 1,4,-1
 655 1368 l 1,5,-1
 303 586 l 1,6,-1
 162 586 l 1,0,-1
EndSplineSet
EndChar

StartChar: eightsuperior
Encoding: 8312 8312 576
Width: 711
GlyphClass: 2
Flags: W
LayerCount: 2
Fore
SplineSet
356 1479 m 0,0,1
 480 1479 480 1479 555.5 1420 c 128,-1,2
 631 1361 631 1361 631 1257 c 0,3,4
 631 1127 631 1127 483 1051 c 1,5,6
 659 977 659 977 659 819 c 0,7,8
 659 706 659 706 576.5 637.5 c 128,-1,9
 494 569 494 569 356 569 c 0,10,11
 210 569 210 569 130.5 633 c 128,-1,12
 51 697 51 697 51 813 c 0,13,14
 51 882 51 882 87.5 940 c 128,-1,15
 124 998 124 998 209 1044 c 1,16,17
 135 1090 135 1090 106.5 1136.5 c 128,-1,18
 78 1183 78 1183 78 1251 c 0,19,20
 78 1353 78 1353 156.5 1416 c 128,-1,21
 235 1479 235 1479 356 1479 c 0,0,1
182 813 m 0,22,23
 182 753 182 753 224 716.5 c 128,-1,24
 266 680 266 680 352 680 c 0,25,26
 442 680 442 680 484 716.5 c 128,-1,27
 526 753 526 753 526 813 c 0,28,29
 526 876 526 876 479.5 915.5 c 128,-1,30
 433 955 433 955 352 983 c 2,31,-1
 324 993 l 1,32,33
 252 959 252 959 217 917 c 128,-1,34
 182 875 182 875 182 813 c 0,22,23
354 1370 m 256,35,36
 286 1370 286 1370 248.5 1340 c 128,-1,37
 211 1310 211 1310 211 1253 c 0,38,39
 211 1206 211 1206 245 1170.5 c 128,-1,40
 279 1135 279 1135 360 1102 c 1,41,42
 500 1156 500 1156 500 1253 c 0,43,44
 500 1310 500 1310 461 1340 c 128,-1,45
 422 1370 422 1370 354 1370 c 256,35,36
EndSplineSet
EndChar

StartChar: ninesuperior
Encoding: 8313 8313 577
Width: 711
GlyphClass: 2
Flags: W
LayerCount: 2
Fore
SplineSet
668 1094 m 0,0,1
 668 824 668 824 559 696.5 c 128,-1,2
 450 569 450 569 238 569 c 0,3,4
 155 569 155 569 106 584 c 1,5,-1
 106 700 l 1,6,7
 155 680 155 680 248 680 c 0,8,9
 524 680 524 680 545 1006 c 1,10,-1
 535 1006 l 1,11,12
 500 955 500 955 442 929 c 128,-1,13
 384 903 384 903 319 903 c 0,14,15
 188 903 188 903 111.5 976 c 128,-1,16
 35 1049 35 1049 35 1180 c 0,17,18
 35 1316 35 1316 119.5 1398.5 c 128,-1,19
 204 1481 204 1481 340 1481 c 0,20,21
 492 1481 492 1481 580 1380 c 128,-1,22
 668 1279 668 1279 668 1094 c 0,0,1
340 1370 m 0,23,24
 259 1370 259 1370 211.5 1322.5 c 128,-1,25
 164 1275 164 1275 164 1188 c 0,26,27
 164 1107 164 1107 206.5 1059.5 c 128,-1,28
 249 1012 249 1012 336 1012 c 0,29,30
 420 1012 420 1012 477.5 1054.5 c 128,-1,31
 535 1097 535 1097 535 1159 c 0,32,33
 535 1256 535 1256 483.5 1313 c 128,-1,34
 432 1370 432 1370 340 1370 c 0,23,24
EndSplineSet
EndChar

